<?xml version="1.0" encoding="utf-8"?>
<!-- Generator: Adobe Illustrator 16.0.0, SVG Export Plug-In . SVG Version: 6.00 Build 0)  -->
<!DOCTYPE svg PUBLIC "-//W3C//DTD SVG 1.1//EN" "http://www.w3.org/Graphics/SVG/1.1/DTD/svg11.dtd">
<svg version="1.1" id="Слой_1" xmlns="http://www.w3.org/2000/svg" xmlns:xlink="http://www.w3.org/1999/xlink" x="0px" y="0px"
	 width="61.519px" height="125.168px" viewBox="0 0 61.519 125.168" enable-background="new 0 0 61.519 125.168"
	 xml:space="preserve">
<g>
	<defs>
		<rect id="SVGID_1_" width="61.518" height="125.168"/>
	</defs>
	<clipPath id="SVGID_2_">
		<use xlink:href="#SVGID_1_"  overflow="visible"/>
	</clipPath>
	<path clip-path="url(#SVGID_2_)" fill="#B2D7F9" d="M60.5,95.428c0.01,0.27,0.018,0.539,0.018,0.812
		c0,14.274-13.392,27.929-29.757,27.929c-16.367,0-29.758-13.655-29.758-27.929c0-0.271,0.006-0.541,0.016-0.812
		c-0.01-0.163-0.016-0.326-0.016-0.491V47.452h13.357v47.399l0.028,0.437l-0.019,0.501c-0.006,0.15-0.009,0.301-0.009,0.45
		c0,7.845,7.406,14.306,16.401,14.306c8.994,0,16.401-6.46,16.401-14.306c0-0.151-0.005-0.301-0.01-0.45l-0.018-0.501l0.028-0.437
		V47.452h13.356v47.485C60.519,95.102,60.512,95.265,60.5,95.428L60.5,95.428z"/>
	<path clip-path="url(#SVGID_2_)" fill="none" stroke="#0F52BB" stroke-width="2" stroke-miterlimit="10" d="M60.5,95.428
		c0.01,0.27,0.018,0.539,0.018,0.812c0,14.274-13.392,27.929-29.757,27.929c-16.367,0-29.758-13.655-29.758-27.929
		c0-0.271,0.006-0.541,0.016-0.812c-0.01-0.163-0.016-0.326-0.016-0.491V47.452h13.357v47.399l0.028,0.437l-0.019,0.501
		c-0.006,0.15-0.009,0.301-0.009,0.45c0,7.845,7.406,14.306,16.401,14.306c8.994,0,16.401-6.46,16.401-14.306
		c0-0.151-0.005-0.301-0.01-0.45l-0.018-0.501l0.028-0.437V47.452h13.356v47.485C60.519,95.102,60.512,95.265,60.5,95.428
		L60.5,95.428z"/>
	<path clip-path="url(#SVGID_2_)" fill="#D2E6FF" d="M1,47.452h13.356v12.893H1V47.452z M47.159,47.452h13.354v12.893H47.159V47.452
		z"/>
	<path clip-path="url(#SVGID_2_)" fill="none" stroke="#0F52BB" stroke-width="2" stroke-miterlimit="10" d="M1,47.452h13.356
		v12.893H1V47.452z M47.159,47.452h13.354v12.893H47.159V47.452z"/>
	<path clip-path="url(#SVGID_2_)" fill="#0F52BB" d="M41.028,15.848c-1.22-2.562-4.642-1.974-6.443-3.1
		c-0.161-0.101-0.288-0.235-0.389-0.396c-0.3-0.481-0.361-1.201-0.432-1.984c1.353-1.038,2.265-2.852,2.265-4.463V4.414
		c0-0.608-0.129-1.187-0.363-1.715c-0.026-0.062-0.061-0.121-0.092-0.182c-0.033-0.068-0.063-0.137-0.101-0.202
		C34.692,0.939,33.172,0,31.433,0l-0.039,0.001L31.354,0c-2.528,0-4.597,1.985-4.597,4.412v1.492c0,1.612,0.912,3.424,2.265,4.463
		c-0.095,1.045-0.173,1.976-0.822,2.381c-2.217,1.386-6.888,0.167-6.888,5.436v19.728l3.757-0.007v19.131
		c0,1.256,1.643,2.285,2.942,2.285h0.595c1.297,0,2.38-1.039,2.38-2.285V37.645h0.359h0.048v0.001h0.407v19.39
		c0,0.314,0.066,0.615,0.188,0.888c0.027,0.06,0.058,0.117,0.088,0.174c0.005,0.008,0.008,0.017,0.014,0.025
		c0.405,0.713,1.196,1.2,2.09,1.2h0.595c1.298,0,2.942-1.038,2.942-2.286V37.906l3.757,0.008V18.185
		C41.475,17.198,41.311,16.439,41.028,15.848"/>
	<polygon clip-path="url(#SVGID_2_)" fill="#0EC0FB" points="36.669,66.381 33.666,81.1 40.264,80.657 29.415,100.831 
		32.416,86.112 25.82,86.555 	"/>
	<path clip-path="url(#SVGID_2_)" fill="#B2D7F9" d="M59.243,19.079c0-2.821-2.505-2.173-3.693-2.915
		c-0.349-0.217-0.391-0.716-0.44-1.277c0.726-0.557,1.215-1.529,1.215-2.393v-0.8c0-1.303-1.108-2.367-2.465-2.367l-0.022,0.001
		l-0.021-0.001h-0.004v0.001c-1.355,0.002-2.462,1.066-2.462,2.367v0.799c0,0.864,0.489,1.837,1.215,2.394
		c-0.049,0.56-0.092,1.058-0.44,1.277c-1.188,0.743-3.693,0.089-3.693,2.915v10.58l2.015-0.005v10.26
		c0,0.674,0.882,1.225,1.578,1.225h0.318c0.696,0,1.277-0.556,1.277-1.225v-10.4h0.192h0.023h0.002h0.217v10.4
		c0,0.673,0.581,1.225,1.276,1.225h0.319c0.261,0,0.549-0.078,0.806-0.211c0.43-0.222,0.773-0.596,0.773-1.015V29.655l2.014,0.005
		h0.001V19.079z"/>
	<path clip-path="url(#SVGID_2_)" fill="none" stroke="#0F52BB" stroke-width="2" stroke-miterlimit="10" d="M59.243,19.079
		c0-2.821-2.505-2.173-3.693-2.915c-0.349-0.217-0.391-0.716-0.44-1.277c0.726-0.557,1.215-1.529,1.215-2.393v-0.8
		c0-1.303-1.108-2.367-2.465-2.367l-0.022,0.001l-0.021-0.001h-0.004v0.001c-1.355,0.002-2.462,1.066-2.462,2.367v0.799
		c0,0.864,0.489,1.837,1.215,2.394c-0.049,0.56-0.092,1.058-0.44,1.277c-1.188,0.743-3.693,0.089-3.693,2.915v10.58l2.015-0.005
		v10.26c0,0.674,0.882,1.225,1.578,1.225h0.318c0.696,0,1.277-0.556,1.277-1.225v-10.4h0.192h0.023h0.002h0.217v10.4
		c0,0.673,0.581,1.225,1.276,1.225h0.319c0.261,0,0.549-0.078,0.806-0.211c0.43-0.222,0.773-0.596,0.773-1.015V29.655l2.014,0.005
		h0.001V19.079z"/>
	<path clip-path="url(#SVGID_2_)" fill="#B2D7F9" d="M12.104,19.079c0-2.821-2.505-2.173-3.694-2.915
		c-0.348-0.217-0.39-0.716-0.44-1.277c0.726-0.557,1.215-1.529,1.215-2.393v-0.8c0-1.303-1.109-2.367-2.465-2.367L6.699,9.328
		L6.677,9.327H6.672v0.001C5.317,9.33,4.21,10.394,4.21,11.695v0.799c0,0.864,0.489,1.837,1.215,2.394
		c-0.049,0.56-0.092,1.058-0.44,1.277c-1.189,0.743-3.694,0.089-3.694,2.915v10.58l2.015-0.005v10.26
		c0,0.674,0.882,1.225,1.578,1.225h0.318c0.697,0,1.278-0.556,1.278-1.225v-10.4h0.192h0.024h0.002h0.216v10.4
		c0,0.673,0.581,1.225,1.277,1.225h0.319c0.261,0,0.549-0.078,0.806-0.211c0.428-0.222,0.773-0.596,0.773-1.015V29.655l2.014,0.005
		h0.001V19.079z"/>
	<path clip-path="url(#SVGID_2_)" fill="none" stroke="#0F52BB" stroke-width="2" stroke-miterlimit="10" d="M12.104,19.079
		c0-2.821-2.505-2.173-3.694-2.915c-0.348-0.217-0.39-0.716-0.44-1.277c0.726-0.557,1.215-1.529,1.215-2.393v-0.8
		c0-1.303-1.109-2.367-2.465-2.367L6.699,9.328L6.677,9.327H6.672v0.001C5.317,9.33,4.21,10.394,4.21,11.695v0.799
		c0,0.864,0.489,1.837,1.215,2.394c-0.049,0.56-0.092,1.058-0.44,1.277c-1.189,0.743-3.694,0.089-3.694,2.915v10.58l2.015-0.005
		v10.26c0,0.674,0.882,1.225,1.578,1.225h0.318c0.697,0,1.278-0.556,1.278-1.225v-10.4h0.192h0.024h0.002h0.216v10.4
		c0,0.673,0.581,1.225,1.277,1.225h0.319c0.261,0,0.549-0.078,0.806-0.211c0.428-0.222,0.773-0.596,0.773-1.015V29.655l2.014,0.005
		h0.001V19.079z"/>
</g>
</svg>
