<?xml version="1.0" encoding="utf-8"?>
<!-- Generator: Adobe Illustrator 16.0.0, SVG Export Plug-In . SVG Version: 6.00 Build 0)  -->
<!DOCTYPE svg PUBLIC "-//W3C//DTD SVG 1.1//EN" "http://www.w3.org/Graphics/SVG/1.1/DTD/svg11.dtd">
<svg version="1.1" id="Слой_1" xmlns="http://www.w3.org/2000/svg" xmlns:xlink="http://www.w3.org/1999/xlink" x="0px" y="0px"
	 width="100.185px" height="105.429px" viewBox="0 0 100.185 105.429" enable-background="new 0 0 100.185 105.429"
	 xml:space="preserve">
<g>
	<defs>
		<rect id="SVGID_1_" width="100.185" height="105.429"/>
	</defs>
	<clipPath id="SVGID_2_">
		<use xlink:href="#SVGID_1_"  overflow="visible"/>
	</clipPath>
	<path clip-path="url(#SVGID_2_)" fill="#B2D7F9" d="M94.987,16.708H15.661c-2.308,0-4.197,1.889-4.197,4.197v79.327
		c0,2.309,1.889,4.197,4.197,4.197h79.327c2.309,0,4.197-1.889,4.197-4.197V20.905C99.185,18.597,97.296,16.708,94.987,16.708"/>
	<path clip-path="url(#SVGID_2_)" fill="none" stroke="#0F52BB" stroke-width="2" stroke-miterlimit="10" d="M94.987,16.708H15.661
		c-2.308,0-4.197,1.889-4.197,4.197v79.327c0,2.309,1.889,4.197,4.197,4.197h79.327c2.309,0,4.197-1.889,4.197-4.197V20.905
		C99.185,18.597,97.296,16.708,94.987,16.708z"/>
	<path clip-path="url(#SVGID_2_)" fill="#FFFFFF" d="M85.964,20.486H24.685c-2.308,0-4.197,1.889-4.197,4.197v66.526
		c0,2.308,1.889,4.197,4.197,4.197h47.008l18.679-18.678V24.683C90.161,22.375,88.271,20.486,85.964,20.486"/>
	<path clip-path="url(#SVGID_2_)" fill="#D2E6FF" d="M85.964,20.486H24.685c-2.308,0-4.197,1.889-4.197,4.197v66.526
		c0,2.308,1.889,4.197,4.197,4.197h47.008l18.679-18.678V24.683C90.161,22.375,88.271,20.486,85.964,20.486"/>
	<path clip-path="url(#SVGID_2_)" fill="none" stroke="#0F52BB" stroke-width="2" stroke-miterlimit="10" d="M85.964,20.486H24.685
		c-2.308,0-4.197,1.889-4.197,4.197v66.526c0,2.308,1.889,4.197,4.197,4.197h47.008l18.679-18.678V24.683
		C90.161,22.375,88.271,20.486,85.964,20.486z"/>
	<path clip-path="url(#SVGID_2_)" fill="#B2D7F9" d="M71.693,95.405L90.37,76.728H75.891c-2.309,0-4.197,1.888-4.197,4.197V95.405z"
		/>
	<path clip-path="url(#SVGID_2_)" fill="none" stroke="#0F52BB" stroke-width="2" stroke-miterlimit="10" d="M71.693,95.405
		L90.37,76.728H75.891c-2.309,0-4.197,1.888-4.197,4.197V95.405z"/>
	<path clip-path="url(#SVGID_2_)" fill="#B2D7F9" d="M67.915,10.203h-6.086c0-3.568-2.937-6.506-6.505-6.506
		c-3.567,0-6.506,2.938-6.506,6.506h-6.086c-3.777,0-6.715,2.938-6.715,6.715v7.555h38.614v-7.555
		C74.632,13.14,71.693,10.203,67.915,10.203 M55.324,6.635c1.89,0,3.568,1.679,3.568,3.568c0,1.888-1.679,3.567-3.568,3.567
		c-1.889,0-3.567-1.679-3.567-3.567C51.757,8.314,53.436,6.635,55.324,6.635"/>
	<path clip-path="url(#SVGID_2_)" fill="none" stroke="#0F52BB" stroke-width="2" stroke-miterlimit="10" d="M67.915,10.203h-6.086
		c0-3.568-2.937-6.506-6.505-6.506c-3.567,0-6.506,2.938-6.506,6.506h-6.086c-3.777,0-6.715,2.938-6.715,6.715v7.555h38.614v-7.555
		C74.632,13.14,71.693,10.203,67.915,10.203z M55.324,6.635c1.89,0,3.568,1.679,3.568,3.568c0,1.888-1.679,3.567-3.568,3.567
		c-1.889,0-3.567-1.679-3.567-3.567C51.757,8.314,53.436,6.635,55.324,6.635z"/>
	<path clip-path="url(#SVGID_2_)" fill="#0EC0FB" d="M32.45,33.497c2.318,0,4.197,1.879,4.197,4.197
		c0,2.318-1.879,4.197-4.197,4.197s-4.197-1.879-4.197-4.197C28.253,35.375,30.132,33.497,32.45,33.497"/>
	<path clip-path="url(#SVGID_2_)" fill="#0F52BB" d="M33.919,57.42l2.728-2.728c0.42-0.42,0.42-1.05,0-1.469
		c-0.42-0.42-1.049-0.42-1.469,0l-2.728,2.728l-2.728-2.728c-0.42-0.42-1.049-0.42-1.469,0c-0.42,0.42-0.42,1.049,0,1.469
		l2.728,2.728l-2.728,2.729c-0.42,0.42-0.42,1.049,0,1.469c0.21,0.21,0.42,0.21,0.839,0.21c0.21,0,0.63,0,0.84-0.21l2.728-2.728
		l2.728,2.728c0.21,0.21,0.42,0.21,0.84,0.21s0.63,0,0.839-0.21c0.42-0.42,0.42-1.049,0-1.469L33.919,57.42z"/>
	<path clip-path="url(#SVGID_2_)" fill="#0F52BB" d="M57.003,73.79l2.729-2.728c0.42-0.42,0.42-1.049,0-1.469
		c-0.42-0.421-1.049-0.421-1.469,0l-2.729,2.728l-2.728-2.728c-0.42-0.421-1.051-0.421-1.47,0c-0.42,0.42-0.42,1.049,0,1.469
		l2.729,2.728l-2.729,2.729c-0.42,0.42-0.42,1.049,0,1.469c0.21,0.21,0.42,0.21,0.84,0.21c0.21,0,0.63,0,0.84-0.21l2.728-2.728
		l2.729,2.728c0,0.21,0.21,0.21,0.63,0.21c0.21,0,0.63,0,0.84-0.21c0.419-0.42,0.419-1.049,0-1.469L57.003,73.79z"/>
	<path clip-path="url(#SVGID_2_)" fill="#0EC0FB" d="M74.631,33.497c2.318,0,4.197,1.879,4.197,4.197
		c0,2.318-1.879,4.197-4.197,4.197c-2.317,0-4.196-1.879-4.196-4.197C70.435,35.375,72.313,33.497,74.631,33.497"/>
	<path clip-path="url(#SVGID_2_)" fill="#0EC0FB" d="M55.534,33.497c2.318,0,4.197,1.879,4.197,4.197
		c0,2.318-1.879,4.197-4.197,4.197s-4.197-1.879-4.197-4.197C51.337,35.375,53.216,33.497,55.534,33.497"/>
	<path clip-path="url(#SVGID_2_)" fill="#0EC0FB" d="M74.631,53.224c2.318,0,4.197,1.879,4.197,4.197
		c0,2.318-1.879,4.197-4.197,4.197c-2.317,0-4.196-1.879-4.196-4.197C70.435,55.103,72.313,53.224,74.631,53.224"/>
	<path clip-path="url(#SVGID_2_)" fill="#0F52BB" d="M42.313,79.875c-0.84,0-1.679-0.63-1.679-1.679v-15.32
		c0-0.839,0.63-1.678,1.679-1.678h11.542V48.607c0-0.84,0.63-1.679,1.679-1.679c0.84,0,1.679,0.63,1.679,1.679v14.06
		c0,0.84-0.63,1.679-1.679,1.679H43.992v13.852C43.992,79.036,43.152,79.875,42.313,79.875"/>
	<path clip-path="url(#SVGID_2_)" fill="#D2E6FF" d="M28.166,13.394C27.45,6.946,22.292,1.788,15.844,1.072
		C15.414,1.072,15.056,1,14.626,1c-0.43,0-0.788,0-1.218,0.072C6.961,1.788,1.802,7.018,1.086,13.394
		C0.585,17.979,2.304,22.134,5.313,25c1.719,1.647,3.152,3.797,3.582,6.089h11.462c0.43-2.292,1.863-4.442,3.582-6.089
		C26.948,22.134,28.668,17.979,28.166,13.394"/>
	<path clip-path="url(#SVGID_2_)" fill="none" stroke="#0F52BB" stroke-width="2" stroke-miterlimit="10" d="M28.166,13.394
		C27.45,6.946,22.292,1.788,15.844,1.072C15.414,1.072,15.056,1,14.626,1c-0.43,0-0.788,0-1.218,0.072
		C6.961,1.788,1.802,7.018,1.086,13.394C0.585,17.979,2.304,22.134,5.313,25c1.719,1.647,3.152,3.797,3.582,6.089h11.462
		c0.43-2.292,1.863-4.442,3.582-6.089C26.948,22.134,28.668,17.979,28.166,13.394"/>
	<path clip-path="url(#SVGID_2_)" fill="#0EC0FB" d="M10.328,15.328c-0.788,0-1.432,0.645-1.432,1.433s0.644,1.432,1.432,1.432
		h1.433v-1.432C11.761,15.973,11.116,15.328,10.328,15.328 M17.492,18.193h1.433c0.788,0,1.433-0.644,1.433-1.432
		s-0.645-1.433-1.433-1.433c-0.788,0-1.433,0.645-1.433,1.433V18.193z M16.775,31.805c-0.43,0-0.716-0.287-0.716-0.716V19.626
		h-2.866v11.463c0,0.429-0.287,0.716-0.716,0.716c-0.43,0-0.717-0.287-0.717-0.716V19.626h-1.433c-1.576,0-2.865-1.289-2.865-2.865
		s1.289-2.866,2.865-2.866c1.576,0,2.866,1.29,2.866,2.866v1.432h2.865v-1.432c0-1.577,1.29-2.866,2.866-2.866
		c1.576,0,2.866,1.29,2.866,2.866s-1.29,2.865-2.866,2.865h-1.433v11.463C17.492,31.518,17.206,31.805,16.775,31.805"/>
	<polygon clip-path="url(#SVGID_2_)" fill="#0F52BB" points="8.895,31.089 8.895,39.686 20.357,39.686 20.357,33.955 20.357,31.089 
			"/>
	<path clip-path="url(#SVGID_2_)" fill="#0F52BB" d="M15.701,42.551h-2.149c-0.645,0-1.29-0.287-1.72-0.86l-1.504-2.006h8.597
		l-1.505,2.006C16.991,42.264,16.346,42.551,15.701,42.551"/>
	<path clip-path="url(#SVGID_2_)" fill="#D2E6FF" d="M13.91,34.671c0.43,0,0.716-0.287,0.716-0.716c0-0.43-0.286-0.717-0.716-0.717
		H8.895v1.433H13.91z"/>
	<path clip-path="url(#SVGID_2_)" fill="none" stroke="#0F52BB" stroke-width="2" stroke-miterlimit="10" d="M13.91,34.671
		c0.43,0,0.716-0.287,0.716-0.716c0-0.43-0.286-0.717-0.716-0.717H8.895v1.433H13.91z"/>
	<path clip-path="url(#SVGID_2_)" fill="#D2E6FF" d="M11.761,37.537c0.43,0,0.716-0.287,0.716-0.716c0-0.43-0.286-0.717-0.716-0.717
		H8.895v1.433H11.761z"/>
	<path clip-path="url(#SVGID_2_)" fill="none" stroke="#0F52BB" stroke-width="2" stroke-miterlimit="10" d="M11.761,37.537
		c0.43,0,0.716-0.287,0.716-0.716c0-0.43-0.286-0.717-0.716-0.717H8.895v1.433H11.761z"/>
	<path clip-path="url(#SVGID_2_)" fill="#D2E6FF" d="M20.357,33.238h-2.866c-0.429,0-0.716,0.287-0.716,0.716
		c0,0.43,0.287,0.717,0.716,0.717h2.866v-0.717V33.238z"/>
	<path clip-path="url(#SVGID_2_)" fill="none" stroke="#0F52BB" stroke-width="2" stroke-miterlimit="10" d="M20.357,33.238h-2.866
		c-0.429,0-0.716,0.287-0.716,0.716c0,0.43,0.287,0.717,0.716,0.717h2.866v-0.717V33.238z"/>
	<path clip-path="url(#SVGID_2_)" fill="#D2E6FF" d="M15.343,36.104c-0.43,0-0.716,0.287-0.716,0.716
		c0,0.43,0.286,0.717,0.716,0.717h5.015v-1.433H15.343z"/>
	<path clip-path="url(#SVGID_2_)" fill="none" stroke="#0F52BB" stroke-width="2" stroke-miterlimit="10" d="M15.343,36.104
		c-0.43,0-0.716,0.287-0.716,0.716c0,0.43,0.286,0.717,0.716,0.717h5.015v-1.433H15.343z"/>
</g>
</svg>
