<?xml version="1.0" encoding="utf-8"?>
<!-- Generator: Adobe Illustrator 16.0.0, SVG Export Plug-In . SVG Version: 6.00 Build 0)  -->
<!DOCTYPE svg PUBLIC "-//W3C//DTD SVG 1.1//EN" "http://www.w3.org/Graphics/SVG/1.1/DTD/svg11.dtd">
<svg version="1.1" id="Слой_1" xmlns="http://www.w3.org/2000/svg" xmlns:xlink="http://www.w3.org/1999/xlink" x="0px" y="0px"
	 width="816.161px" height="705.797px" viewBox="0 0 816.161 705.797" enable-background="new 0 0 816.161 705.797"
	 xml:space="preserve">
<g>
	<g>
		<g opacity="0.47">
			<g>
				<defs>
					<rect id="SVGID_1_" width="705.797" height="705.797"/>
				</defs>
				<clipPath id="SVGID_2_">
					<use xlink:href="#SVGID_1_"  overflow="visible"/>
				</clipPath>
				<path clip-path="url(#SVGID_2_)" fill="#D2E6FF" d="M705.797,352.898c0,194.9-157.998,352.898-352.898,352.898
					C157.998,705.797,0,547.799,0,352.898C0,157.999,157.998,0,352.899,0C547.799,0,705.797,157.999,705.797,352.898"/>
			</g>
		</g>
		<path fill="#D2E6FF" d="M573.04,472.688c0,7.367-5.972,13.339-13.336,13.339H419.036c-7.367,0-13.339-5.972-13.339-13.339V321.448
			c0-7.37,5.972-13.339,13.339-13.339h140.668c7.364,0,13.336,5.969,13.336,13.339V472.688z"/>
		<path fill="none" stroke="#0F52BB" stroke-width="2" stroke-miterlimit="10" d="M573.04,472.688
			c0,7.367-5.972,13.339-13.336,13.339H419.036c-7.367,0-13.339-5.972-13.339-13.339V321.448c0-7.37,5.972-13.339,13.339-13.339
			h140.668c7.364,0,13.336,5.969,13.336,13.339V472.688z"/>
		<rect x="419.854" y="322.893" fill="#FFFFFF" width="139.028" height="148.354"/>
		
			<rect x="419.854" y="322.893" fill="none" stroke="#0F52BB" stroke-width="2" stroke-miterlimit="10" width="139.028" height="148.354"/>
		<path fill="#B2D7F9" d="M507.615,297.086c0-10.077-8.17-18.247-18.25-18.247c-10.074,0-18.246,8.17-18.246,18.247
			s8.172,18.247,18.246,18.247C499.445,315.333,507.615,307.163,507.615,297.086"/>
		<path fill="none" stroke="#0F52BB" stroke-width="2" stroke-miterlimit="10" d="M507.615,297.086
			c0-10.077-8.17-18.247-18.25-18.247c-10.074,0-18.246,8.17-18.246,18.247s8.172,18.247,18.246,18.247
			C499.445,315.333,507.615,307.163,507.615,297.086z"/>
		<path fill="#B2D7F9" d="M526.734,315.333c0,10.074-8.174,3.142-18.25,3.142h-38.231c-10.082,0-18.247,6.932-18.247-3.142
			c0-10.077,8.165-18.247,18.247-18.247h38.231C518.561,297.086,526.734,305.256,526.734,315.333"/>
		<path fill="none" stroke="#0F52BB" stroke-width="2" stroke-miterlimit="10" d="M526.734,315.333
			c0,10.074-8.174,3.142-18.25,3.142h-38.231c-10.082,0-18.247,6.932-18.247-3.142c0-10.077,8.165-18.247,18.247-18.247h38.231
			C518.561,297.086,526.734,305.256,526.734,315.333z"/>
		<rect x="430.077" y="349.096" fill="#B2D7F9" width="118.58" height="3.803"/>
		<rect x="430.077" y="363.876" fill="#B2D7F9" width="118.58" height="3.801"/>
		<rect x="430.077" y="378.66" fill="#B2D7F9" width="118.58" height="3.801"/>
		<rect x="430.077" y="393.445" fill="#B2D7F9" width="118.58" height="3.798"/>
		<rect x="430.077" y="408.221" fill="#B2D7F9" width="118.58" height="3.807"/>
		<rect x="430.077" y="423.005" fill="#B2D7F9" width="118.58" height="3.803"/>
		<rect x="430.077" y="437.782" fill="#B2D7F9" width="118.58" height="3.804"/>
		<rect x="430.077" y="452.572" fill="#B2D7F9" width="118.58" height="3.798"/>
		<path fill="#C3DCFC" d="M460.209,472.532l-1.439,6.242c0,0-13.276,10.232-18.075,13.751c0,0-8.797,1.761-8.637,6.719
			c0.159,4.959,7.838,5.759,13.115-1.279c0,0,15.677-6.537,19.035-10.147c3.359-3.608,8.157-11.904,8.157-11.904L460.209,472.532z"
			/>
		<path fill="none" stroke="#0F52BB" stroke-width="2" stroke-miterlimit="10" d="M460.209,472.532l-1.439,6.242
			c0,0-13.276,10.232-18.075,13.751c0,0-8.797,1.761-8.637,6.719c0.159,4.959,7.838,5.759,13.115-1.279
			c0,0,15.677-6.537,19.035-10.147c3.359-3.608,8.157-11.904,8.157-11.904L460.209,472.532z"/>
		<path fill="#D2E6FF" d="M514.685,533.119c0,1.876-64.188,3.398-143.367,3.398c-79.179,0-143.366-1.522-143.366-3.398
			s64.187-3.398,143.366-3.398C450.497,529.721,514.685,531.243,514.685,533.119"/>
		<path fill="#B2D7F9" d="M185.162,276.732c1.722-1.048,3.582-1.57,5.581-1.57c0.912,0,1.763,0.133,2.554,0.401
			c0.79,0.268,1.479,0.652,2.062,1.155c0.583,0.506,1.045,1.131,1.382,1.885c0.337,0.755,0.503,1.603,0.503,2.555
			c0,0.771-0.099,1.495-0.298,2.164c-0.194,0.674-0.468,1.316-0.813,1.918c-0.348,0.603-0.746,1.178-1.205,1.72
			c-0.454,0.547-0.929,1.075-1.424,1.586c-0.533,0.558-1.081,1.089-1.647,1.589c-0.564,0.506-1.073,0.954-1.529,1.352h7.038v3.798
			h-12.588l-0.713-2.728c0.536-0.556,1.008-1.048,1.423-1.468c0.418-0.426,0.81-0.829,1.175-1.205c0.365-0.376,0.716-0.741,1.05-1.1
			c0.338-0.354,0.694-0.741,1.07-1.156c0.417-0.456,0.843-0.923,1.277-1.41c0.437-0.486,0.826-0.983,1.175-1.498
			c0.343-0.514,0.633-1.028,0.857-1.545c0.229-0.511,0.345-1.028,0.345-1.545c0-0.79-0.238-1.424-0.716-1.896
			c-0.472-0.475-1.136-0.713-1.987-0.713c-0.614,0-1.186,0.086-1.722,0.265c-0.531,0.18-1.087,0.437-1.661,0.774L185.162,276.732z"
			/>
		<path fill="#B2D7F9" d="M206.863,275.162c0.929,0,1.785,0.113,2.568,0.343c0.779,0.224,1.448,0.547,2.004,0.961
			c0.552,0.415,0.984,0.929,1.291,1.529c0.307,0.603,0.459,1.291,0.459,2.065c0,0.514-0.094,0.995-0.282,1.454
			s-0.429,0.876-0.725,1.26c-0.301,0.387-0.641,0.747-1.025,1.084c-0.387,0.337-0.791,0.652-1.205,0.951
			c0.475,0.315,0.94,0.658,1.398,1.023c0.454,0.364,0.863,0.768,1.217,1.205c0.356,0.431,0.635,0.912,0.845,1.44
			c0.21,0.522,0.31,1.111,0.31,1.766c0,0.749-0.177,1.46-0.533,2.123c-0.357,0.663-0.841,1.233-1.455,1.719
			c-0.613,0.484-1.337,0.868-2.167,1.142c-0.832,0.279-1.73,0.414-2.7,0.414c-2.159,0-3.842-0.483-5.048-1.45
			c-1.205-0.971-1.81-2.267-1.81-3.887c0-0.597,0.108-1.139,0.326-1.636c0.218-0.492,0.5-0.957,0.846-1.382
			c0.346-0.426,0.744-0.816,1.186-1.173c0.447-0.356,0.906-0.702,1.382-1.039c-0.476-0.334-0.904-0.674-1.288-1.023
			c-0.39-0.345-0.724-0.707-1.012-1.083c-0.287-0.376-0.509-0.78-0.669-1.216c-0.158-0.434-0.238-0.912-0.238-1.427
			c0-0.751,0.15-1.443,0.443-2.078c0.301-0.633,0.718-1.178,1.263-1.631c0.544-0.454,1.211-0.813,1.993-1.073
			C205.017,275.289,205.894,275.162,206.863,275.162 M209.269,290.21c0-0.296-0.047-0.564-0.136-0.802
			c-0.085-0.235-0.237-0.469-0.445-0.696c-0.207-0.229-0.475-0.465-0.801-0.713c-0.327-0.244-0.727-0.539-1.203-0.874
			c-0.694,0.514-1.238,0.99-1.633,1.421c-0.393,0.442-0.592,0.989-0.592,1.664c0,0.655,0.21,1.158,0.636,1.515
			c0.428,0.354,1.014,0.533,1.769,0.533c0.71,0,1.291-0.196,1.736-0.594C209.047,291.271,209.269,290.785,209.269,290.21
			 M204.903,280.237c0,0.218,0.025,0.42,0.075,0.608c0.049,0.188,0.146,0.384,0.296,0.581c0.146,0.199,0.35,0.403,0.61,0.619
			c0.255,0.221,0.592,0.475,1.006,0.774c0.576-0.415,1.04-0.824,1.396-1.233c0.357-0.404,0.537-0.857,0.537-1.349
			c0-0.575-0.191-1.006-0.567-1.288c-0.376-0.288-0.84-0.434-1.393-0.434c-0.575,0-1.045,0.157-1.413,0.473
			C205.085,279.308,204.903,279.723,204.903,280.237"/>
		<path fill="#B2D7F9" d="M227.614,281.069c0,0.71-0.116,1.418-0.34,2.12c-0.229,0.702-0.575,1.338-1.042,1.902
			c-0.464,0.564-1.053,1.023-1.766,1.365c-0.713,0.349-1.565,0.52-2.552,0.52c-0.992,0-1.843-0.171-2.554-0.52
			c-0.71-0.342-1.299-0.801-1.766-1.365c-0.464-0.564-0.813-1.2-1.039-1.902c-0.227-0.702-0.34-1.41-0.34-2.12
			c0-0.71,0.113-1.418,0.34-2.12c0.226-0.708,0.575-1.338,1.039-1.905c0.467-0.561,1.056-1.02,1.766-1.362
			c0.711-0.349,1.562-0.52,2.554-0.52c0.987,0,1.839,0.171,2.552,0.52c0.713,0.342,1.302,0.801,1.766,1.362
			c0.467,0.567,0.813,1.197,1.042,1.905C227.498,279.651,227.614,280.359,227.614,281.069 M223.844,281.069
			c0-0.893-0.152-1.6-0.462-2.12c-0.304-0.525-0.796-0.791-1.468-0.791c-0.674,0-1.163,0.266-1.467,0.791
			c-0.31,0.52-0.465,1.227-0.465,2.12c0,0.887,0.155,1.595,0.465,2.12c0.304,0.525,0.793,0.791,1.467,0.791
			c0.672,0,1.164-0.266,1.468-0.791C223.692,282.664,223.844,281.956,223.844,281.069 M244.389,290.603
			c0,0.71-0.116,1.418-0.34,2.12c-0.23,0.702-0.575,1.338-1.042,1.902c-0.465,0.563-1.053,1.022-1.767,1.365
			c-0.713,0.348-1.564,0.52-2.551,0.52c-0.992,0-1.844-0.172-2.554-0.52c-0.711-0.343-1.299-0.802-1.766-1.365
			c-0.465-0.564-0.813-1.2-1.04-1.902c-0.226-0.702-0.34-1.41-0.34-2.12c0-0.711,0.114-1.418,0.34-2.12
			c0.227-0.708,0.575-1.338,1.04-1.905c0.467-0.561,1.055-1.02,1.766-1.363c0.71-0.348,1.562-0.519,2.554-0.519
			c0.987,0,1.838,0.171,2.551,0.519c0.714,0.343,1.302,0.802,1.767,1.363c0.467,0.567,0.812,1.197,1.042,1.905
			C244.273,289.185,244.389,289.892,244.389,290.603 M240.618,290.603c0-0.893-0.152-1.601-0.461-2.12
			c-0.304-0.526-0.796-0.791-1.468-0.791c-0.674,0-1.164,0.265-1.468,0.791c-0.309,0.519-0.464,1.227-0.464,2.12
			c0,0.887,0.155,1.595,0.464,2.12c0.304,0.525,0.794,0.79,1.468,0.79c0.672,0,1.164-0.265,1.468-0.79
			C240.466,292.198,240.618,291.49,240.618,290.603 M232.808,275.162l3.383,1.631l-8.961,18.849l-3.328-1.689L232.808,275.162z"/>
		<path fill="#4D677D" d="M445.517,254.76c1.72-1.048,3.577-1.573,5.578-1.573c0.91,0,1.764,0.133,2.554,0.398
			c0.791,0.268,1.479,0.653,2.063,1.161c0.586,0.503,1.048,1.134,1.383,1.886c0.334,0.751,0.502,1.603,0.502,2.548
			c0,0.774-0.097,1.498-0.295,2.173c-0.199,0.669-0.474,1.307-0.816,1.912c-0.348,0.603-0.746,1.178-1.202,1.72
			c-0.456,0.544-0.932,1.078-1.426,1.592c-0.537,0.553-1.081,1.078-1.647,1.587c-0.562,0.503-1.075,0.956-1.528,1.349h7.037v3.8
			H445.13l-0.714-2.728c0.536-0.558,1.013-1.045,1.427-1.471c0.415-0.425,0.805-0.829,1.172-1.205
			c0.365-0.376,0.719-0.741,1.056-1.097c0.335-0.357,0.691-0.741,1.067-1.158c0.415-0.454,0.84-0.924,1.276-1.41
			c0.435-0.484,0.827-0.984,1.17-1.498c0.346-0.514,0.633-1.028,0.862-1.543c0.229-0.516,0.34-1.033,0.34-1.548
			c0-0.785-0.237-1.42-0.711-1.896c-0.472-0.475-1.135-0.713-1.989-0.713c-0.611,0-1.186,0.089-1.72,0.268
			c-0.532,0.18-1.092,0.434-1.661,0.771L445.517,254.76z"/>
		<path fill="#B2D7F9" d="M89.002,317.73v4.721h-4.63v-4.721h-7.72l-0.653-3.472l7.334-11.579h5.669v11.43h2.612v3.621H89.002z
			 M84.372,306.778l-4.13,7.331h4.13V306.778z"/>
		<path fill="#B2D7F9" d="M106.366,316.293c0,1.028-0.202,1.946-0.605,2.748c-0.407,0.804-0.959,1.487-1.648,2.04
			c-0.696,0.553-1.515,0.984-2.465,1.282c-0.951,0.299-1.971,0.445-3.061,0.445c-0.909,0-1.824-0.091-2.744-0.268
			c-0.921-0.182-1.686-0.401-2.3-0.663l0.625-3.583c0.63,0.238,1.299,0.432,2.001,0.581c0.702,0.146,1.399,0.221,2.092,0.221
			c1.092,0,1.944-0.216,2.557-0.65c0.611-0.433,0.918-1.058,0.918-1.887c0-0.47-0.111-0.871-0.326-1.195
			c-0.216-0.326-0.509-0.586-0.874-0.779c-0.367-0.199-0.796-0.337-1.277-0.415c-0.486-0.077-0.998-0.121-1.531-0.121H94.64V302.68
			h10.656v3.8h-6.172v3.859h0.475c0.932,0,1.808,0.133,2.629,0.387c0.818,0.26,1.537,0.639,2.15,1.144
			c0.614,0.509,1.101,1.128,1.454,1.863C106.189,314.463,106.366,315.317,106.366,316.293"/>
		<path fill="#B2D7F9" d="M120.143,308.23c0,0.716-0.116,1.423-0.34,2.125c-0.229,0.702-0.575,1.338-1.039,1.897
			c-0.467,0.563-1.056,1.022-1.769,1.368c-0.714,0.345-1.565,0.517-2.554,0.517c-0.99,0-1.839-0.172-2.549-0.517
			c-0.716-0.346-1.305-0.805-1.769-1.368c-0.467-0.559-0.81-1.195-1.039-1.897c-0.227-0.702-0.34-1.409-0.34-2.125
			c0-0.711,0.113-1.418,0.34-2.12c0.229-0.703,0.572-1.335,1.039-1.902c0.464-0.564,1.053-1.017,1.769-1.366
			c0.71-0.342,1.559-0.519,2.549-0.519c0.989,0,1.84,0.177,2.554,0.519c0.713,0.349,1.302,0.802,1.769,1.366
			c0.464,0.567,0.81,1.199,1.039,1.902C120.027,306.812,120.143,307.519,120.143,308.23 M116.37,308.23
			c0-0.888-0.149-1.595-0.459-2.12c-0.307-0.526-0.796-0.786-1.47-0.786c-0.672,0-1.161,0.26-1.468,0.786
			c-0.307,0.525-0.459,1.232-0.459,2.12c0,0.892,0.152,1.6,0.459,2.125c0.307,0.525,0.796,0.785,1.468,0.785
			c0.674,0,1.163-0.26,1.47-0.785C116.221,309.83,116.37,309.122,116.37,308.23 M125.337,302.323l3.383,1.633l-8.961,18.852
			l-3.328-1.694L125.337,302.323z M136.352,316.901c0,0.71-0.116,1.421-0.345,2.12c-0.227,0.705-0.57,1.335-1.034,1.905
			c-0.467,0.561-1.056,1.017-1.769,1.359c-0.713,0.349-1.565,0.523-2.554,0.523c-0.99,0-1.838-0.174-2.549-0.523
			c-0.716-0.342-1.304-0.798-1.769-1.359c-0.467-0.57-0.81-1.2-1.039-1.905c-0.227-0.699-0.34-1.41-0.34-2.12
			c0-0.713,0.113-1.421,0.34-2.123c0.229-0.705,0.572-1.338,1.039-1.902c0.465-0.564,1.053-1.017,1.769-1.365
			c0.711-0.343,1.559-0.52,2.549-0.52c0.989,0,1.841,0.177,2.554,0.52c0.713,0.348,1.302,0.801,1.769,1.365
			c0.464,0.564,0.807,1.197,1.034,1.902C136.236,315.48,136.352,316.188,136.352,316.901 M132.579,316.901
			c0-0.89-0.155-1.598-0.459-2.123c-0.304-0.525-0.796-0.788-1.47-0.788c-0.672,0-1.161,0.263-1.468,0.788
			c-0.307,0.525-0.462,1.233-0.462,2.123c0,0.89,0.155,1.598,0.462,2.12c0.307,0.525,0.796,0.788,1.468,0.788
			c0.674,0,1.166-0.263,1.47-0.788C132.424,318.499,132.579,317.791,132.579,316.901"/>
		<path fill="#D2E6FF" d="M104.757,228.1c-21.851,0-39.627-17.774-39.627-39.628c0-21.848,17.776-39.627,39.627-39.627
			s39.627,17.779,39.627,39.627C144.384,210.326,126.608,228.1,104.757,228.1 M104.757,158.751
			c-16.386,0-29.718,13.335-29.718,29.72c0,16.389,13.332,29.721,29.718,29.721c16.389,0,29.723-13.332,29.723-29.721
			C134.48,172.087,121.146,158.751,104.757,158.751"/>
		<path fill="#D2E6FF" d="M104.757,246.92c-32.227,0-58.448-26.218-58.448-58.448c0-32.231,26.221-58.451,58.448-58.451
			c32.233,0,58.449,26.22,58.449,58.451C163.207,220.702,136.991,246.92,104.757,246.92 M104.757,139.93
			c-26.765,0-48.542,21.773-48.542,48.542c0,26.765,21.777,48.544,48.542,48.544c26.768,0,48.544-21.779,48.544-48.544
			C153.301,161.703,131.525,139.93,104.757,139.93"/>
		<path fill="#D2E6FF" d="M104.757,265.747c-42.607,0-77.272-34.668-77.272-77.275s34.665-77.275,77.272-77.275
			c42.61,0,77.272,34.668,77.272,77.275S147.368,265.747,104.757,265.747 M104.757,121.109c-37.142,0-67.366,30.218-67.366,67.363
			s30.224,67.368,67.366,67.368c37.148,0,67.368-30.223,67.368-67.368S141.905,121.109,104.757,121.109"/>
		<path fill="#0EC0FB" d="M134.467,187.975c0.003,0.166,0.014,0.331,0.014,0.497c0,16.389-13.334,29.721-29.723,29.721
			c-16.386,0-29.718-13.332-29.718-29.721c0-16.385,13.332-29.72,29.718-29.72v-9.907c-21.851,0-39.627,17.779-39.627,39.627
			c0,21.854,17.776,39.627,39.627,39.627s39.627-17.773,39.627-39.627c0-0.166-0.008-0.331-0.011-0.497H134.467z"/>
		<path fill="#0EC0FB" d="M104.263,237.003c-26.539-0.268-48.047-21.928-48.047-48.531c0-26.602,21.508-48.262,48.047-48.53v-9.904
			c-31.998,0.268-57.954,26.37-57.954,58.434c0,32.065,25.956,58.169,57.954,58.435V237.003z"/>
		<path fill="#0EC0FB" d="M104.263,121.12v-9.91c-42.38,0.269-76.778,34.818-76.778,77.262h9.907
			C37.392,151.493,67.347,121.386,104.263,121.12"/>
		<path fill="#B2D7F9" d="M286.786,507.854c0,14.455,11.819,26.283,26.279,26.283h118.141c14.456,0,26.274-11.828,26.274-26.283
			V227.621c0-14.46-11.818-26.279-26.274-26.279H313.064c-14.46,0-26.279,11.819-26.279,26.279V507.854z"/>
	</g>
	<g>
		<defs>
			<path id="SVGID_3_" d="M313.064,201.343c-14.459,0-26.278,11.819-26.278,26.279v280.231c0,14.455,11.819,26.282,26.278,26.282
				h118.14c14.456,0,26.274-11.827,26.274-26.282V227.622c0-14.46-11.818-26.279-26.274-26.279H313.064z"/>
		</defs>
		<clipPath id="SVGID_4_">
			<use xlink:href="#SVGID_3_"  overflow="visible"/>
		</clipPath>
		<rect x="286.777" y="201.334" clip-path="url(#SVGID_4_)" fill="#B2D7F9" width="170.714" height="332.786"/>
		
			<rect x="286.777" y="201.334" clip-path="url(#SVGID_4_)" fill="none" stroke="#0F52BB" stroke-width="2" stroke-miterlimit="10" width="170.714" height="332.786"/>
	</g>
	<g>
		<path fill="none" stroke="#0F52BB" stroke-width="2" stroke-miterlimit="10" d="M286.786,507.854
			c0,14.455,11.819,26.283,26.279,26.283h118.141c14.456,0,26.274-11.828,26.274-26.283V227.621
			c0-14.46-11.818-26.279-26.274-26.279H313.064c-14.46,0-26.279,11.819-26.279,26.279V507.854z"/>
		<rect x="294.939" y="248.291" fill="#FFFFFF" width="154.443" height="236.581"/>
		
			<rect x="294.939" y="248.291" fill="none" stroke="#0F52BB" stroke-width="2" stroke-miterlimit="10" width="154.443" height="236.581"/>
		<path fill="#D2E6FF" d="M352.413,507.725c0,3.702,3.001,6.715,6.711,6.715h24.962c3.711,0,6.715-3.013,6.715-6.715
			c0-3.71-3.004-6.719-6.715-6.719h-24.962C355.414,501.006,352.413,504.015,352.413,507.725"/>
		<path fill="none" stroke="#0F52BB" stroke-width="2" stroke-miterlimit="10" d="M352.413,507.725c0,3.702,3.001,6.715,6.711,6.715
			h24.962c3.711,0,6.715-3.013,6.715-6.715c0-3.71-3.004-6.719-6.715-6.719h-24.962
			C355.414,501.006,352.413,504.015,352.413,507.725z"/>
		<path fill="#D2E6FF" d="M356.924,225.137c0,1.486,1.202,2.688,2.684,2.688h23.18c1.491,0,2.692-1.202,2.692-2.688
			c0-1.486-1.201-2.689-2.692-2.689h-23.18C358.126,222.448,356.924,223.651,356.924,225.137"/>
		<path fill="none" stroke="#0F52BB" stroke-width="2" stroke-miterlimit="10" d="M356.924,225.137c0,1.486,1.202,2.688,2.684,2.688
			h23.18c1.491,0,2.692-1.202,2.692-2.688c0-1.486-1.201-2.689-2.692-2.689h-23.18C358.126,222.448,356.924,223.651,356.924,225.137
			z"/>
		<path fill="#D2E6FF" d="M395.625,225.137c0,1.819,1.475,3.297,3.295,3.297c1.827,0,3.294-1.478,3.294-3.297
			c0-1.819-1.467-3.293-3.294-3.293C397.1,221.844,395.625,223.318,395.625,225.137"/>
		<path fill="none" stroke="#0F52BB" stroke-width="2" stroke-miterlimit="10" d="M395.625,225.137c0,1.819,1.475,3.297,3.295,3.297
			c1.827,0,3.294-1.478,3.294-3.297c0-1.819-1.467-3.293-3.294-3.293C397.1,221.844,395.625,223.318,395.625,225.137z"/>
		<polygon fill="#0EC0FB" points="411.585,312.876 373.038,312.876 373.038,314.604 373.038,399.219 435.208,399.219 
			435.208,333.18 		"/>
		<polygon fill="#0F52BB" points="411.438,333.179 435.056,333.179 411.438,312.876 		"/>
		<polygon fill="#D2E6FF" points="370.28,326.288 317.578,326.288 317.578,328.646 317.578,444.321 402.563,444.321 
			402.563,354.046 		"/>
		<polygon fill="none" stroke="#0F52BB" stroke-width="2" stroke-miterlimit="10" points="370.28,326.288 317.578,326.288 
			317.578,328.646 317.578,444.321 402.563,444.321 402.563,354.046 		"/>
		<polygon fill="#B2D7F9" points="370.078,354.046 402.369,354.046 370.078,326.288 		"/>
		<polygon fill="none" stroke="#0F52BB" stroke-width="2" stroke-miterlimit="10" points="370.078,354.046 402.369,354.046 
			370.078,326.288 		"/>
		<rect x="328.71" y="348.733" fill="#B2D7F9" width="29.267" height="5.548"/>
		<rect x="328.71" y="361.4" fill="#B2D7F9" width="55.607" height="5.549"/>
		<rect x="328.709" y="374.07" fill="#B2D7F9" width="49.374" height="5.545"/>
		<rect x="328.71" y="386.738" fill="#B2D7F9" width="53.199" height="5.548"/>
		<rect x="328.71" y="399.406" fill="#B2D7F9" width="40.951" height="5.551"/>
		<rect x="328.71" y="412.077" fill="#B2D7F9" width="55.607" height="5.545"/>
		<path fill="#D2E6FF" d="M162.02,431.966c0,0,7.01,45.339,30.633,70.572H162.02h-30.63
			C155.013,477.305,162.02,431.966,162.02,431.966"/>
		<path fill="none" stroke="#0F52BB" stroke-width="2" stroke-miterlimit="10" d="M162.02,431.966c0,0,7.01,45.339,30.633,70.572
			H162.02h-30.63C155.013,477.305,162.02,431.966,162.02,431.966z"/>
		<path fill="#B2D7F9" d="M109.846,400.659c0,0,7.007,65.447,30.63,101.879h-30.63H79.214
			C102.833,466.106,109.846,400.659,109.846,400.659"/>
		<path fill="none" stroke="#0F52BB" stroke-width="2" stroke-miterlimit="10" d="M109.846,400.659c0,0,7.007,65.447,30.63,101.879
			h-30.63H79.214C102.833,466.106,109.846,400.659,109.846,400.659z"/>
		<path fill="#D2E6FF" d="M71.148,453.786c0,0,4.962,31.318,21.677,48.752H71.148H49.469
			C66.192,485.104,71.148,453.786,71.148,453.786"/>
		<path fill="none" stroke="#0F52BB" stroke-width="2" stroke-miterlimit="10" d="M71.148,453.786c0,0,4.962,31.318,21.677,48.752
			H71.148H49.469C66.192,485.104,71.148,453.786,71.148,453.786z"/>
		<path fill="#B2D7F9" d="M199.253,453.786c0,0,5.893,31.318,25.768,48.752h-25.768h-25.768
			C193.355,485.104,199.253,453.786,199.253,453.786"/>
		<path fill="none" stroke="#0F52BB" stroke-width="2" stroke-miterlimit="10" d="M199.253,453.786c0,0,5.893,31.318,25.768,48.752
			h-25.768h-25.768C193.355,485.104,199.253,453.786,199.253,453.786z"/>
		<rect x="40.278" y="506.684" fill="#B2D7F9" width="192.61" height="0.684"/>
		
			<rect x="40.278" y="506.684" fill="none" stroke="#0F52BB" stroke-width="2" stroke-miterlimit="10" width="192.61" height="0.684"/>
		<path fill="#D2E6FF" d="M242.441,407.845l-19.352-34.828v-10.072c0-10.333-8.378-18.714-18.716-18.714h-30.718
			c-10.341,0-18.716,8.381-18.716,18.714v18.719c0,10.332,8.375,18.713,18.716,18.713h30.718c5.443,0,10.343-2.327,13.76-6.037
			L242.441,407.845z"/>
		<path fill="none" stroke="#0F52BB" stroke-width="2" stroke-miterlimit="10" d="M242.441,407.845l-19.352-34.828v-10.072
			c0-10.333-8.378-18.714-18.716-18.714h-30.718c-10.341,0-18.716,8.381-18.716,18.714v18.719c0,10.332,8.375,18.713,18.716,18.713
			h30.718c5.443,0,10.343-2.327,13.76-6.037L242.441,407.845z"/>
		<path fill="#4D677D" d="M171.745,376.287c-2.366,0-4.296-1.927-4.296-4.293c0-2.369,1.93-4.296,4.296-4.296
			c2.369,0,4.296,1.927,4.296,4.296C176.041,374.36,174.114,376.287,171.745,376.287 M171.745,370.435
			c-0.862,0-1.559,0.702-1.559,1.56c0,0.862,0.697,1.559,1.559,1.559c0.857,0,1.559-0.696,1.559-1.559
			C173.304,371.137,172.602,370.435,171.745,370.435"/>
		<path fill="#4D677D" d="M188.512,376.287c-2.366,0-4.293-1.927-4.293-4.293c0-2.369,1.927-4.296,4.293-4.296
			c2.366,0,4.293,1.927,4.293,4.296C192.805,374.36,190.878,376.287,188.512,376.287 M188.512,370.435
			c-0.86,0-1.559,0.702-1.559,1.56c0,0.862,0.699,1.559,1.559,1.559c0.862,0,1.562-0.696,1.562-1.559
			C190.074,371.137,189.374,370.435,188.512,370.435"/>
		<path fill="#4D677D" d="M205.279,376.287c-2.363,0-4.29-1.927-4.29-4.293c0-2.369,1.927-4.296,4.29-4.296
			c2.369,0,4.298,1.927,4.298,4.296C209.577,374.36,207.648,376.287,205.279,376.287 M205.279,370.435
			c-0.857,0-1.556,0.702-1.556,1.56c0,0.862,0.699,1.559,1.556,1.559c0.862,0,1.565-0.696,1.565-1.559
			C206.844,371.137,206.142,370.435,205.279,370.435"/>
		<path fill="#B2D7F9" d="M369.724,93.177c-4.414,0-7.999,3.593-7.999,8.008c0,4.42,3.585,8.01,7.999,8.01
			c4.434,0,8.013-3.59,8.013-8.01C377.736,96.77,374.158,93.177,369.724,93.177"/>
		<path fill="none" stroke="#0F52BB" stroke-width="2" stroke-miterlimit="10" d="M369.724,93.177c-4.414,0-7.999,3.593-7.999,8.008
			c0,4.42,3.585,8.01,7.999,8.01c4.434,0,8.013-3.59,8.013-8.01C377.736,96.77,374.158,93.177,369.724,93.177z"/>
		<path fill="#D2E6FF" d="M369.724,164.99c-4.414,0-7.999,3.588-7.999,8.01c0,4.418,3.585,8.003,7.999,8.003
			c4.434,0,8.013-3.585,8.013-8.003C377.736,168.578,374.158,164.99,369.724,164.99"/>
		<path fill="none" stroke="#0F52BB" stroke-width="2" stroke-miterlimit="10" d="M369.724,164.99c-4.414,0-7.999,3.588-7.999,8.01
			c0,4.418,3.585,8.003,7.999,8.003c4.434,0,8.013-3.585,8.013-8.003C377.736,168.578,374.158,164.99,369.724,164.99z"/>
		<path fill="#D2E6FF" d="M405.633,129.083c-4.42,0-8.013,3.588-8.013,8.011c0,4.428,3.593,8.005,8.013,8.005
			c4.417,0,8.008-3.577,8.008-8.005C413.641,132.671,410.05,129.083,405.633,129.083"/>
		<path fill="none" stroke="#0F52BB" stroke-width="2" stroke-miterlimit="10" d="M405.633,129.083c-4.42,0-8.013,3.588-8.013,8.011
			c0,4.428,3.593,8.005,8.013,8.005c4.417,0,8.008-3.577,8.008-8.005C413.641,132.671,410.05,129.083,405.633,129.083z"/>
		<path fill="#B2D7F9" d="M341.828,137.094c0-4.423-3.591-8.011-8.005-8.011c-4.423,0-8.011,3.588-8.011,8.011
			c0,4.428,3.588,8.005,8.011,8.005C338.237,145.099,341.828,141.522,341.828,137.094"/>
		<path fill="none" stroke="#0F52BB" stroke-width="2" stroke-miterlimit="10" d="M341.828,137.094c0-4.423-3.591-8.011-8.005-8.011
			c-4.423,0-8.011,3.588-8.011,8.011c0,4.428,3.588,8.005,8.011,8.005C338.237,145.099,341.828,141.522,341.828,137.094z"/>
		<path fill="#B2D7F9" d="M400.779,117.363c3.123-3.129,3.123-8.196,0-11.325c-3.126-3.123-8.207-3.123-11.325,0.003
			c-3.126,3.121-3.126,8.204-0.005,11.322C392.589,120.493,397.653,120.493,400.779,117.363"/>
		<path fill="none" stroke="#0F52BB" stroke-width="2" stroke-miterlimit="10" d="M400.779,117.363
			c3.123-3.129,3.123-8.196,0-11.325c-3.126-3.123-8.207-3.123-11.325,0.003c-3.126,3.121-3.126,8.204-0.005,11.322
			C392.589,120.493,397.653,120.493,400.779,117.363z"/>
		<path fill="#B2D7F9" d="M338.671,156.825c-3.118,3.123-3.118,8.193,0,11.317c3.129,3.128,8.199,3.128,11.325,0
			c3.134-3.124,3.134-8.194,0-11.325C346.878,153.693,341.8,153.693,338.671,156.825"/>
		<path fill="none" stroke="#0F52BB" stroke-width="2" stroke-miterlimit="10" d="M338.671,156.825
			c-3.118,3.123-3.118,8.193,0,11.317c3.129,3.128,8.199,3.128,11.325,0c3.134-3.124,3.134-8.194,0-11.325
			C346.878,153.693,341.8,153.693,338.671,156.825z"/>
		<path fill="#D2E6FF" d="M389.454,156.816c-3.134,3.132-3.126,8.201-0.005,11.325c3.123,3.129,8.198,3.129,11.33,0
			c3.123-3.124,3.123-8.193,0-11.317C397.647,153.693,392.572,153.693,389.454,156.816"/>
		<path fill="none" stroke="#0F52BB" stroke-width="2" stroke-miterlimit="10" d="M389.454,156.816
			c-3.134,3.132-3.126,8.201-0.005,11.325c3.123,3.129,8.198,3.129,11.33,0c3.123-3.124,3.123-8.193,0-11.317
			C397.647,153.693,392.572,153.693,389.454,156.816z"/>
		<path fill="#B2D7F9" d="M349.996,117.363c3.123-3.118,3.123-8.201,0-11.325c-3.126-3.123-8.196-3.123-11.325,0
			c-3.129,3.129-3.118,8.196,0,11.325C341.8,120.493,346.87,120.493,349.996,117.363"/>
		<path fill="none" stroke="#0F52BB" stroke-width="2" stroke-miterlimit="10" d="M349.996,117.363
			c3.123-3.118,3.123-8.201,0-11.325c-3.126-3.123-8.196-3.123-11.325,0c-3.129,3.129-3.118,8.196,0,11.325
			C341.8,120.493,346.87,120.493,349.996,117.363z"/>
		
			<rect x="102.903" y="290.608" transform="matrix(1 0.0039 -0.0039 1 1.1461 -0.407)" fill="#0EC0FB" width="2.737" height="2.397"/>
		<path fill="#0EC0FB" d="M105.665,285.871l-2.734-0.017l0.022-4.749l2.736,0.014L105.665,285.871z M105.708,276.368l-2.731-0.012
			l0.019-4.751l2.737,0.013L105.708,276.368z M105.755,266.87l-2.734-0.011l0.02-4.755l2.736,0.017L105.755,266.87z M105.8,257.369
			l-2.734-0.013l0.025-4.75l2.731,0.017L105.8,257.369z M105.844,247.869l-2.733-0.011l0.024-4.749l2.731,0.011L105.844,247.869z
			 M105.891,238.368l-2.736-0.011l0.025-4.751l2.733,0.016L105.891,238.368z M105.936,228.868l-2.737-0.011l0.025-4.749l2.734,0.014
			L105.936,228.868z M105.982,219.37l-2.737-0.014l0.022-4.746l2.737,0.011L105.982,219.37z M106.023,209.873l-2.734-0.017
			l0.022-4.746l2.737,0.011L106.023,209.873z M106.071,200.372l-2.737-0.014l0.023-4.749l2.736,0.011L106.071,200.372z"/>
		<polygon fill="#0EC0FB" points="106.115,190.872 103.381,190.86 103.397,187.106 107.152,187.106 107.152,189.84 106.118,189.84 
					"/>
		<path fill="#0EC0FB" d="M196.288,189.84h-4.953v-2.734h4.953V189.84z M186.383,189.84h-4.951v-2.734h4.951V189.84z
			 M176.477,189.84h-4.951v-2.734h4.951V189.84z M166.573,189.84h-4.951v-2.734h4.951V189.84z M156.672,189.84h-4.953v-2.734h4.953
			V189.84z M146.767,189.84h-4.953v-2.734h4.953V189.84z M136.863,189.84h-4.953v-2.734h4.953V189.84z M126.959,189.84h-4.953
			v-2.734h4.953V189.84z M117.055,189.84h-4.951v-2.734h4.951V189.84z"/>
		<polygon fill="#0EC0FB" points="204.998,190.866 202.264,190.866 202.264,189.84 201.238,189.84 201.238,187.107 204.998,187.107 
					"/>
		<path fill="#0EC0FB" d="M204.997,257.4h-2.734v-4.754h2.734V257.4z M204.997,247.891h-2.734v-4.752h2.734V247.891z
			 M204.997,238.388h-2.734v-4.752h2.734V238.388z M204.997,228.884h-2.734v-4.752h2.734V228.884z M204.997,219.381h-2.734v-4.754
			h2.734V219.381z M204.997,209.873h-2.734v-4.752h2.734V209.873z M204.997,200.369h-2.734v-4.749h2.734V200.369z"/>
		<rect x="202.263" y="262.154" fill="#0EC0FB" width="2.734" height="2.388"/>
		<polyline fill="#B2D7F9" points="712.941,372.313 709.188,402.89 786.678,373.2 		"/>
		<polyline fill="none" stroke="#0F52BB" stroke-width="2" stroke-miterlimit="10" points="712.941,372.313 709.188,402.89 
			786.678,373.2 		"/>
		<polygon fill="#B2D7F9" points="715.625,382.206 709.188,402.89 738.828,405.304 		"/>
		<polyline fill="none" stroke="#0F52BB" stroke-width="2" stroke-miterlimit="10" points="715.625,382.206 709.188,402.89 
			738.828,405.304 715.625,382.206 		"/>
		<polygon fill="#D2E6FF" points="812.966,372.349 732.912,418.577 715.625,382.206 786.679,373.2 712.941,372.313 701.479,361.373 
					"/>
		<polygon fill="none" stroke="#0F52BB" stroke-width="2" stroke-miterlimit="10" points="812.966,372.349 732.912,418.577 
			715.625,382.206 786.679,373.2 712.941,372.313 701.479,361.373 		"/>
		<path fill="#0EC0FB" d="M688.119,396.375l-1.551-2.25c0.644-0.445,1.288-0.897,1.927-1.366l1.608,2.218
			C689.446,395.452,688.782,395.916,688.119,396.375"/>
		<path fill="#0EC0FB" d="M552.257,418.499l-0.34-2.714c0.874-0.11,1.741-0.32,2.582-0.642c0.464-0.186,0.956-0.425,1.443-0.702
			l1.354,2.377c-0.591,0.338-1.199,0.631-1.808,0.874C554.419,418.096,553.34,418.363,552.257,418.499"/>
		<path fill="#0EC0FB" d="M547.003,418.201c-1.587-0.368-3.206-0.987-4.815-1.845l1.285-2.413c1.398,0.741,2.792,1.283,4.146,1.599
			L547.003,418.201z"/>
		<path fill="#0EC0FB" d="M627.518,414.041c-1.365,0-2.753-0.025-4.136-0.064l0.083-2.732c1.354,0.041,2.715,0.063,4.053,0.063
			l0.713-0.005l0.014,2.736L627.518,414.041z"/>
		<path fill="#0EC0FB" d="M633.106,413.922l-0.116-2.73c1.584-0.072,3.181-0.172,4.746-0.3l0.224,2.721
			C636.362,413.745,634.729,413.85,633.106,413.922"/>
		<path fill="#0EC0FB" d="M618.528,413.739c-1.601-0.104-3.229-0.237-4.837-0.397l0.268-2.727c1.584,0.161,3.182,0.293,4.752,0.396
			L618.528,413.739z"/>
		<path fill="#0EC0FB" d="M561.359,413.612l-1.957-1.907c0.99-1.017,1.946-2.217,2.833-3.56l2.281,1.506
			C563.535,411.136,562.474,412.469,561.359,413.612"/>
		<path fill="#0EC0FB" d="M537.975,413.568c-1.255-0.995-2.493-2.128-3.685-3.372l1.974-1.892c1.105,1.155,2.256,2.206,3.411,3.123
			L537.975,413.568z"/>
		<path fill="#0EC0FB" d="M642.801,413.115l-0.332-2.714c1.567-0.188,3.148-0.421,4.701-0.679l0.451,2.695
			C646.031,412.684,644.406,412.921,642.801,413.115"/>
		<path fill="#0EC0FB" d="M608.865,412.777c-1.576-0.207-3.193-0.451-4.802-0.713l0.444-2.701c1.582,0.264,3.168,0.501,4.716,0.705
			L608.865,412.777z"/>
		<path fill="#0EC0FB" d="M652.406,411.518l-0.564-2.677c1.56-0.331,3.113-0.695,4.622-1.089l0.688,2.644
			C655.601,410.798,654.009,411.18,652.406,411.518"/>
		<path fill="#0EC0FB" d="M599.284,411.199c-1.564-0.307-3.162-0.65-4.746-1.009l0.608-2.665c1.556,0.354,3.126,0.686,4.669,0.99
			L599.284,411.199z"/>
		<path fill="#0EC0FB" d="M661.843,409.063l-0.813-2.609c1.518-0.473,3.029-0.983,4.5-1.515l0.935,2.568
			C664.955,408.057,663.398,408.578,661.843,409.063"/>
		<path fill="#0EC0FB" d="M589.825,409.046c-1.556-0.403-3.129-0.838-4.681-1.288l0.759-2.626c1.527,0.445,3.076,0.868,4.604,1.264
			L589.825,409.046z"/>
		<path fill="#0EC0FB" d="M531.015,406.649c-1.086-1.158-2.17-2.396-3.229-3.689l2.118-1.731c1.018,1.244,2.063,2.438,3.107,3.552
			L531.015,406.649z"/>
		<path fill="#0EC0FB" d="M580.501,406.346c-1.536-0.495-3.085-1.009-4.6-1.545l0.907-2.582c1.49,0.524,3.016,1.034,4.531,1.52
			L580.501,406.346z"/>
		<path fill="#0EC0FB" d="M671.009,405.727l-1.062-2.519c1.451-0.614,2.908-1.271,4.323-1.952l1.188,2.463
			C673.997,404.421,672.502,405.099,671.009,405.727"/>
		<path fill="#0EC0FB" d="M566.965,405.292l-2.469-1.177c0.656-1.372,1.242-2.823,1.75-4.313l1.076,0.367l0.594-1.413
			c1.501,0.634,2.988,1.239,4.435,1.819l-1.019,2.538c-0.964-0.387-1.944-0.785-2.938-1.194
			C567.96,403.075,567.482,404.206,566.965,405.292"/>
		<path fill="#0EC0FB" d="M679.802,401.491l-1.308-2.401c1.382-0.755,2.765-1.555,4.103-2.377l1.431,2.326
			C682.651,399.889,681.228,400.715,679.802,401.491"/>
		<path fill="#0EC0FB" d="M562.41,399.321c-1.584-0.729-3.019-1.437-4.385-2.162l1.277-2.418c1.327,0.702,2.717,1.391,4.251,2.099
			L562.41,399.321z"/>
		<path fill="#0EC0FB" d="M524.807,399.09c-0.927-1.277-1.858-2.626-2.771-4.02l2.289-1.498c0.885,1.354,1.791,2.67,2.69,3.908
			L524.807,399.09z"/>
		<path fill="#0EC0FB" d="M570.172,395.905l-2.67-0.589c0.343-1.557,0.586-3.1,0.727-4.586l2.721,0.249
			C570.8,392.582,570.54,394.241,570.172,395.905"/>
		<path fill="#0EC0FB" d="M553.764,394.708c-1.457-0.92-2.822-1.871-4.055-2.833l1.678-2.156c1.163,0.906,2.451,1.803,3.834,2.671
			L553.764,394.708z"/>
		<path fill="#0EC0FB" d="M519.455,390.946c-0.802-1.341-1.617-2.759-2.422-4.215l2.394-1.321c0.791,1.428,1.592,2.816,2.377,4.132
			L519.455,390.946z"/>
		<path fill="#0EC0FB" d="M545.975,388.558c-1.212-1.243-2.295-2.549-3.209-3.889l2.255-1.546c0.827,1.208,1.808,2.394,2.911,3.519
			L545.975,388.558z"/>
		<path fill="#0EC0FB" d="M568.292,386.15c-0.058-0.799-0.161-1.564-0.299-2.267l-0.019-0.131c-0.069-0.69-0.213-1.37-0.417-2.028
			l2.605-0.823c0.257,0.81,0.431,1.653,0.523,2.51c0.154,0.796,0.268,1.647,0.334,2.537L568.292,386.15z"/>
		<path fill="#0EC0FB" d="M514.742,382.46c-0.71-1.377-1.446-2.836-2.182-4.329l2.455-1.208c0.728,1.482,1.451,2.917,2.156,4.271
			L514.742,382.46z"/>
		<path fill="#0EC0FB" d="M539.835,380.608c-0.556-1.172-0.838-2.316-0.832-3.405c0-0.849,0.171-1.653,0.514-2.4l2.482,1.15
			c-0.174,0.376-0.262,0.802-0.262,1.255c-0.003,0.677,0.189,1.426,0.568,2.231L539.835,380.608z"/>
		<path fill="#0EC0FB" d="M565.479,378.026c-0.901-1.061-2.021-2.018-3.328-2.842l1.454-2.31c1.548,0.967,2.88,2.105,3.964,3.388
			L565.479,378.026z"/>
		<path fill="#0EC0FB" d="M510.463,373.775c-0.622-1.321-1.236-2.638-1.838-3.942l-0.205-0.467l2.508-1.092l0.19,0.437
			c0.586,1.272,1.197,2.582,1.815,3.896L510.463,373.775z"/>
		<path fill="#0EC0FB" d="M544.885,373.729l-0.944-2.565c0.096-0.036,0.192-0.069,0.293-0.102c1.409-0.62,2.957-1.057,4.594-1.294
			l0.395,2.702c-1.418,0.21-2.741,0.583-3.941,1.117l-0.124,0.047C545.063,373.665,544.974,373.698,544.885,373.729"/>
		<path fill="#0EC0FB" d="M558.101,373.303c-1.429-0.474-2.911-0.782-4.409-0.927l0.264-2.72c1.696,0.161,3.378,0.514,5,1.045
			L558.101,373.303z"/>
		<path fill="#0EC0FB" d="M506.552,364.891c-0.597-1.495-1.186-3.018-1.747-4.527l2.565-0.95c0.55,1.487,1.128,2.988,1.72,4.455
			L506.552,364.891z"/>
		<path fill="#0EC0FB" d="M503.185,355.789c-0.511-1.499-1.017-3.052-1.501-4.608l2.609-0.812c0.48,1.531,0.979,3.062,1.479,4.543
			L503.185,355.789z"/>
		<path fill="#0EC0FB" d="M500.296,346.537c-0.439-1.529-0.867-3.101-1.276-4.666l2.645-0.697c0.407,1.548,0.827,3.102,1.262,4.614
			L500.296,346.537z"/>
		<path fill="#0EC0FB" d="M497.842,337.175c-0.37-1.551-0.733-3.137-1.081-4.713l2.67-0.589c0.343,1.562,0.703,3.132,1.073,4.663
			L497.842,337.175z"/>
		<path fill="#0EC0FB" d="M495.766,327.729c-0.321-1.573-0.63-3.151-0.926-4.738l2.689-0.503c0.294,1.573,0.598,3.14,0.915,4.699
			L495.766,327.729z"/>
		<path fill="#0EC0FB" d="M494.005,318.204c-0.237-1.581-0.459-3.179-0.675-4.788l2.706-0.364c0.216,1.592,0.438,3.178,0.672,4.746
			L494.005,318.204z"/>
		<path fill="#0EC0FB" d="M492.709,308.632c-0.166-1.319-0.326-2.643-0.492-3.972l-0.103-0.804l2.714-0.335l0.104,0.802
			c0.16,1.332,0.326,2.65,0.491,3.969L492.709,308.632z"/>
		<path fill="#0EC0FB" d="M491.515,299.087c-0.205-1.584-0.415-3.173-0.639-4.754l2.709-0.382c0.224,1.595,0.439,3.19,0.644,4.788
			L491.515,299.087z"/>
		<path fill="#0EC0FB" d="M490.174,289.595c-0.257-1.631-0.525-3.217-0.799-4.713l2.689-0.489c0.279,1.514,0.548,3.123,0.811,4.776
			L490.174,289.595z"/>
		<path fill="#0EC0FB" d="M488.446,280.202c-0.133-0.619-0.271-1.238-0.412-1.852c-0.254-0.882-0.533-1.769-0.824-2.632l2.591-0.873
			c0.307,0.912,0.603,1.849,0.871,2.781l0.02,0.072c0.146,0.641,0.293,1.282,0.428,1.929L488.446,280.202z"/>
		<path fill="#0EC0FB" d="M485.555,271.302c-0.597-1.435-1.255-2.88-1.957-4.296l2.455-1.216c0.729,1.476,1.409,2.974,2.026,4.467
			L485.555,271.302z"/>
		<path fill="#0EC0FB" d="M481.373,262.838c-0.774-1.349-1.606-2.703-2.478-4.03l2.286-1.499c0.899,1.372,1.762,2.776,2.563,4.166
			L481.373,262.838z"/>
		<path fill="#0EC0FB" d="M476.195,254.91c-0.912-1.244-1.885-2.51-2.894-3.754l2.126-1.725c1.036,1.283,2.037,2.579,2.976,3.865
			L476.195,254.91z"/>
		<path fill="#0EC0FB" d="M470.236,247.524c-1.028-1.158-2.109-2.339-3.221-3.508l1.982-1.885c1.136,1.194,2.241,2.402,3.286,3.585
			L470.236,247.524z"/>
		<path fill="#0EC0FB" d="M463.674,240.619c-1.104-1.086-2.264-2.194-3.45-3.295l1.863-2.007c1.206,1.123,2.383,2.25,3.505,3.356
			L463.674,240.619z"/>
		<path fill="#0EC0FB" d="M456.687,234.107c-1.155-1.017-2.372-2.079-3.616-3.135l1.771-2.084c1.262,1.073,2.491,2.14,3.657,3.173
			L456.687,234.107z"/>
		<path fill="#0EC0FB" d="M449.397,227.891c-1.236-1.02-2.478-2.026-3.719-3.027l1.714-2.134c1.252,1.012,2.502,2.029,3.745,3.055
			L449.397,227.891z"/>
		<path fill="#0EC0FB" d="M441.926,221.862c-1.264-1.003-2.524-1.996-3.781-2.985l1.693-2.145c1.256,0.986,2.519,1.984,3.784,2.985
			L441.926,221.862z"/>
		<g opacity="0.6">
			<g>
				<defs>
					<rect id="SVGID_5_" x="232.888" y="572.779" width="68.634" height="29.139"/>
				</defs>
				<clipPath id="SVGID_6_">
					<use xlink:href="#SVGID_5_"  overflow="visible"/>
				</clipPath>
				<path clip-path="url(#SVGID_6_)" fill="#D2E6FF" d="M291.387,577.038c13.464,5.698,13.509,14.924,0.158,20.61
					c-13.35,5.687-35.082,5.698-48.546,0.001c-13.438-5.688-13.482-14.913-0.132-20.6
					C256.218,571.363,277.949,571.353,291.387,577.038"/>
			</g>
		</g>
		<g opacity="0.6">
			<g>
				<defs>
					<rect id="SVGID_7_" x="447.186" y="568.713" width="68.635" height="29.139"/>
				</defs>
				<clipPath id="SVGID_8_">
					<use xlink:href="#SVGID_7_"  overflow="visible"/>
				</clipPath>
				<path clip-path="url(#SVGID_8_)" fill="#D2E6FF" d="M505.686,572.972c13.464,5.698,13.509,14.924,0.157,20.61
					c-13.35,5.687-35.082,5.698-48.546,0.001c-13.438-5.688-13.481-14.913-0.132-20.601
					C470.516,567.297,492.247,567.286,505.686,572.972"/>
			</g>
		</g>
		<polygon fill="#0EC0FB" points="270.875,450.804 270.881,452.811 296.814,437.838 296.81,435.831 		"/>
		<path fill="#C3DCFC" d="M255.229,580.59c0,0-2.365-1.19-2.692-4.284c-0.327-3.095-3.145-3.228-3.145-3.228l-1.807,1.538
			l-0.943,5.497l5.922,4.219l2.897-2.22L255.229,580.59z"/>
		<path fill="none" stroke="#0F52BB" stroke-width="2" stroke-miterlimit="10" d="M255.229,580.59c0,0-2.365-1.19-2.692-4.284
			c-0.327-3.095-3.145-3.228-3.145-3.228l-1.807,1.538l-0.943,5.497l5.922,4.219l2.897-2.22L255.229,580.59z"/>
		<path fill="#0F52BB" d="M246.241,573.082c0,0-2.655,1.818-3.07,4.126c-0.416,2.306,0.132,4.305-0.73,5.651l2.744,1.098l1.279-1.36
			c0,0,0.383,1.17,1.878,2.305c1.494,1.137,7.756,1.361,7.756,1.361s2.546-0.843,2.423-2.577c-0.122-1.733-3.292-3.096-3.292-3.096
			s-0.98,2.046-2.743,1.196c-1.764-0.85-3.314-3.79-3.319-6.223S246.241,573.082,246.241,573.082"/>
		<path fill="#0F52BB" d="M245.893,502.148c0,0-2.016,10.226,2.853,15.494c4.109,4.444,8.123,15.871,8.427,17.947
			c0,0-4.42,6.934-5.479,11.11c-1.059,4.178-5.254,24.531-6.807,27.41c0,0,4.056,4.493,8.07,1.601c0,0,12.063-34.038,14.914-37.41
			s-3.068-23.695-3.068-23.695l-4.467-8.083L245.893,502.148z"/>
		<path fill="#C3DCFC" d="M287.82,583.606c0,0-2.641-0.19-4.131-2.921c-1.491-2.732-4.145-1.772-4.145-1.772l-1.076,2.114
			l1.241,5.437l7.088,1.621l1.822-3.163L287.82,583.606z"/>
		<path fill="none" stroke="#0F52BB" stroke-width="2" stroke-miterlimit="10" d="M287.82,583.606c0,0-2.641-0.19-4.131-2.921
			c-1.491-2.732-4.145-1.772-4.145-1.772l-1.076,2.114l1.241,5.437l7.088,1.621l1.822-3.163L287.82,583.606z"/>
		<path fill="#0F52BB" d="M276.638,580.128c0,0-1.752,2.7-1.249,4.989c0.502,2.289,1.776,3.923,1.497,5.498l2.956-0.041l0.658-1.747
			c0,0,0.803,0.933,2.619,1.406c1.816,0.475,7.684-1.725,7.684-1.725s2.027-1.756,1.247-3.31c-0.779-1.554-4.229-1.594-4.229-1.594
			s-0.118,2.266-2.073,2.159s-4.516-2.226-5.455-4.47C279.353,579.051,276.638,580.128,276.638,580.128"/>
		<path fill="#0F52BB" d="M274.463,515.396c0,0,7.638,16.744,8.817,22.245c1.179,5.502-0.197,13.361,0,22.007
			c0.196,8.646,0.483,21.221,0.483,21.221s-3.854,2.29-7.784,0.522c0,0,1.21-3.862-0.166-8.774
			c-1.375-4.913-4.323-23.186-2.947-30.653c0,0-7.074-13.754-10.611-16.111c-3.536-2.358-13.758-13.503-11.203-20.97
			C253.606,497.416,274.463,515.396,274.463,515.396"/>
		<path fill="#C3DCFC" d="M270.75,445.41c0,0,1.985,11.67-5.482,13.504c-7.466,1.834-6.942-8.646-6.942-8.646l4.06-6.418
			L270.75,445.41z"/>
		<path fill="none" stroke="#0F52BB" stroke-width="2" stroke-miterlimit="10" d="M270.75,445.41c0,0,1.985,11.67-5.482,13.504
			c-7.466,1.834-6.942-8.646-6.942-8.646l4.06-6.418L270.75,445.41z"/>
		<path fill="#0EC0FB" d="M247.977,468.87c0,0,1.048-9.604,7.598-9.74c6.549-0.136,12.837,1.618,14.671,5.092
			c2.02,3.827,3.144,6.744,0,18.795c-3.144,12.052-0.262,24.104,2.882,28.819s0,4.191,0,4.191s-19.125-0.818-27.247-13.918
			c0,0,2.62-4.944,2.62-9.398S247.329,472.925,247.977,468.87"/>
		<path fill="#C3DCFC" d="M263.567,470.028c-2.171-7.198,9.939-11.015,13.168-12.014c1.458-0.451,2.411-0.601,3.203-0.838
			c0.112-0.255,0.221-0.541,0.33-0.875c0.944-2.896,6.486-8.61,8.251-9.927c1.765-1.316,2.207-3.557,2.283-3.981
			c1.145-6.399,5.786-11.283,7.879-7.017c2.506,5.108-3.039,10.466-4.345,11.248c-0.853,0.512-2.068,5.557-4.607,9.691
			c-2.241,3.648-4.882,6.532-7.001,7.134c-2.968,0.844-5.571,3.952-10.935,7.303C266.429,474.103,263.567,470.028,263.567,470.028"
			/>
		<path fill="none" stroke="#0F52BB" stroke-width="2" stroke-miterlimit="10" d="M263.567,470.028
			c-2.171-7.198,9.939-11.015,13.168-12.014c1.458-0.451,2.411-0.601,3.203-0.838c0.112-0.255,0.221-0.541,0.33-0.875
			c0.944-2.896,6.486-8.61,8.251-9.927c1.765-1.316,2.207-3.557,2.283-3.981c1.145-6.399,5.786-11.283,7.879-7.017
			c2.506,5.108-3.039,10.466-4.345,11.248c-0.853,0.512-2.068,5.557-4.607,9.691c-2.241,3.648-4.882,6.532-7.001,7.134
			c-2.968,0.844-5.571,3.952-10.935,7.303C266.429,474.103,263.567,470.028,263.567,470.028z"/>
		<path fill="#0F52BB" d="M263.172,433.501c-7.467-1.048-14.671,2.358-14.933,13.1c-0.003,0.097,0.01,0.183,0.009,0.278
			c-0.028,0.495-0.005,0.99,0.05,1.488c0.098,1.169,0.33,2.237,0.663,3.221c1.279,6.578-1.02,19.521-0.335,19.706
			c6.35,1.722,10.572,8.91,16.61,1.964c0.113-0.13-0.145-2.47,0.953-8.929c0.01-0.062-0.619-3.078-1.094-5.371
			c0.057-0.017,0.116-0.026,0.173-0.044c0,0-1.31-4.454-1.31-7.598c0-3.145,1.572-5.502,2.62-0.786c0,0,3.668-3.406,4.716-6.288
			C271.294,444.242,271.219,434.63,263.172,433.501"/>
		<path fill="#0F52BB" d="M467.026,579.411c-3.518,2.634-6.942,2.847-10.172,5.835c-0.5,0.463-2.394,1.555-2.219,2.298
			c0.574,2.435,5.331,6.791,7.172,6.663c3.175-0.221,5.952-1.244,9.056-1.679c2.468-0.346,7.242-3.177,9.513-4.192
			c1.16-0.519,1.225-3.389,1.061-5.067c-0.059-0.596-1.385-2.137-1.502-2.419c-1.889,0.604-2.828,1.697-5.285,1.087
			c-0.49-0.369-1.08-0.506-1.785-0.401c-2.338-2.603-3.858-3.666-4.546-3.179C467.87,578.673,467.468,579.08,467.026,579.411"/>
		<path fill="#0F52BB" d="M493.283,560.636c-3.518,2.634-6.942,2.848-10.172,5.835c-0.5,0.463-1.768,2.923-1.593,3.666
			c0.575,2.437,4.48,2.418,6.32,2.291c3.176-0.221,5.953-1.244,9.056-1.679c2.469-0.346,7.468-0.172,9.738-1.188
			c1.16-0.519,1.224-3.389,1.061-5.066c-0.059-0.596-1.385-2.137-1.503-2.419c-1.888,0.604-2.827,1.696-5.284,1.087
			c-0.49-0.37-1.08-0.506-1.785-0.402c-2.338-2.602-3.858-3.666-4.546-3.179C494.127,559.898,493.725,560.305,493.283,560.636"/>
		<path fill="#0EC0FB" d="M472.525,478.77c0,0-3.879,0.28-8.317-1.359c-4.323-1.598-5.758-3.119-5.758-3.119
			s5.598-23.354,15.676-19.834C484.203,457.976,472.525,478.77,472.525,478.77"/>
		<path fill="#0F52BB" d="M472.733,515.888c0,0,8.957,26.659,11.729,30.711c2.773,4.052,10.168,16.783,10.168,16.783
			s9.027,3.905,11.373-0.787c0,0-2.19-15.446-7.625-22.075c0,0-4.531-27.404-7.73-29.323
			C487.449,509.275,472.733,515.888,472.733,515.888"/>
		<path fill="#0F52BB" d="M498.379,514.608c0,0,0.801,6.611-2.186,12.583s-10.237,21.541-10.237,21.541l-6.397,34.124
			c0,0-6.825,1.706-12.797-1.707c0,0,2.559-26.872,3.626-32.204c1.065-5.332,7.836-31.991,7.836-31.991L498.379,514.608z"/>
		<path fill="#0EC0FB" d="M471.667,453.398c0,0,15.995-5.117,28.472,6.719v56.837c0,0-16.742,6.185-30.392,0l-2.985-55.664
			C466.762,461.29,467.828,455.745,471.667,453.398"/>
		<path fill="#C3DCFC" d="M486.482,450.097l4.817,4.797c0,0-3.123,10.252-10.744,7.444c-7.62-2.809-1.694-9.597-1.694-9.597v-5.021
			L486.482,450.097z"/>
		<path fill="none" stroke="#0F52BB" stroke-width="2" stroke-miterlimit="10" d="M486.482,450.097l4.817,4.797
			c0,0-3.123,10.252-10.744,7.444c-7.62-2.809-1.694-9.597-1.694-9.597v-5.021L486.482,450.097z"/>
		<path fill="#C3DCFC" d="M494.565,442.919c-0.318-0.366-0.628-0.547-0.902-0.547c-0.095,0-0.189,0.012-0.284,0.037
			c-0.44,0.155-0.879,0.568-1.316,1.27c-0.501,0.845-0.738,1.591-0.714,2.244c-0.061-0.082-0.466-0.166-1.189-0.271
			c-0.558-0.082-0.831-0.285-0.831-0.595c0-0.796,0.214-1.829,0.654-3.109c0.309-0.904,0.51-1.665,0.604-2.271
			c-0.877,0.797-2.219,1.283-4.013,1.462c-0.13,0.012-0.284,0.022-0.438,0.034c-1.687,0.035-3.622-0.57-5.808-1.817
			c-0.296-0.176-0.57-0.426-0.807-0.746c-0.32-0.605-0.583-1.058-0.772-1.343c-0.465-0.689-1.046-1.033-1.758-1.033
			c-0.225,0-0.428,0.107-0.63,0.331c-0.034,0.037-0.02-1.466-0.341-1.133c-0.998-1.13-1.868,0.065-2.189,0.196
			c-0.297,0.131-0.569,0.404-0.808,0.795c-0.071,0.12-0.153,0.297-0.248,0.523c-0.036,0.558-0.071,1.068-0.095,1.529
			c-0.036,0.015-0.061,0.062-0.061,0.146c0,1.568,0.071,3.051,0.204,4.453c0.366,3.967,1.257,7.269,2.669,9.893
			c0.583,1.083,1.2,1.983,1.877,2.696c0.606,0.652,1.259,1.163,1.949,1.52c0.653,0.32,1.353,0.485,2.102,0.485h0.06
			c1.27,0,2.447-0.248,3.537-0.737c0.273-0.114,0.523-0.26,0.774-0.412c1.924-1.165,3.574-3.173,4.952-6.021
			c0.344-0.678,0.651-1.39,0.937-2.139c0.18,0.272,0.439,0.428,0.762,0.464h0.129c0.536,0,1.105-0.604,1.7-1.817
			c0.497-1.032,0.784-1.888,0.842-2.589v-0.203C495.112,443.75,494.935,443.324,494.565,442.919"/>
		<path fill="none" stroke="#0F52BB" stroke-width="2" stroke-miterlimit="10" d="M494.565,442.919
			c-0.318-0.366-0.628-0.547-0.902-0.547c-0.095,0-0.189,0.012-0.284,0.037c-0.44,0.155-0.879,0.568-1.316,1.27
			c-0.501,0.845-0.738,1.591-0.714,2.244c-0.061-0.082-0.466-0.166-1.189-0.271c-0.558-0.082-0.831-0.285-0.831-0.595
			c0-0.796,0.214-1.829,0.654-3.109c0.309-0.904,0.51-1.665,0.604-2.271c-0.877,0.797-2.219,1.283-4.013,1.462
			c-0.13,0.012-0.284,0.022-0.438,0.034c-1.687,0.035-3.622-0.57-5.808-1.817c-0.296-0.176-0.57-0.426-0.807-0.746
			c-0.32-0.605-0.583-1.058-0.772-1.343c-0.465-0.689-1.046-1.033-1.758-1.033c-0.225,0-0.428,0.107-0.63,0.331
			c-0.034,0.037-0.02-1.466-0.341-1.133c-0.998-1.13-1.868,0.065-2.189,0.196c-0.297,0.131-0.569,0.404-0.808,0.795
			c-0.071,0.12-0.153,0.297-0.248,0.523c-0.036,0.558-0.071,1.068-0.095,1.529c-0.036,0.015-0.061,0.062-0.061,0.146
			c0,1.568,0.071,3.051,0.204,4.453c0.366,3.967,1.257,7.269,2.669,9.893c0.583,1.083,1.2,1.983,1.877,2.696
			c0.606,0.652,1.259,1.163,1.949,1.52c0.653,0.32,1.353,0.485,2.102,0.485h0.06c1.27,0,2.447-0.248,3.537-0.737
			c0.273-0.114,0.523-0.26,0.774-0.412c1.924-1.165,3.574-3.173,4.952-6.021c0.344-0.678,0.651-1.39,0.937-2.139
			c0.18,0.272,0.439,0.428,0.762,0.464h0.129c0.536,0,1.105-0.604,1.7-1.817c0.497-1.032,0.784-1.888,0.842-2.589v-0.203
			C495.112,443.75,494.935,443.324,494.565,442.919z"/>
		<path fill="#0F52BB" d="M485.473,424.949c1.608,0.036,3.222,0.174,4.768,0.442c1.999,0.349,3.837,1.588,4.79,3.396
			c1.103,2.091,1.687,4.109,1.721,6.07c0.035,1.945-0.034,3.372-0.237,4.275c-0.486,1.813-0.927,3.606-1.318,5.354l-0.082,0.131
			v-0.201v-0.202c0-0.464-0.18-0.89-0.548-1.295c-0.318-0.366-0.629-0.546-0.902-0.546c-0.095,0-0.19,0.012-0.284,0.035
			c-0.439,0.155-0.878,0.57-1.317,1.271c-0.501,0.844-0.736,1.592-0.714,2.245c-0.06-0.083-0.464-0.167-1.188-0.275
			c-0.558-0.08-0.83-0.283-0.83-0.591c0-0.797,0.213-1.829,0.654-3.111c0.308-0.903,0.509-1.665,0.604-2.269
			c-0.076,0.486-1.726,0.99-2.099,1.102c-0.918,0.277-1.889,0.423-2.848,0.376c-2.521-0.119-4.604-1.587-6.814-2.626
			c-0.916-0.43-1.863-0.833-2.646-1.488c-0.593-0.497-1.434-1.815-2.349-1.412c-0.297,0.13-0.57,0.402-0.808,0.794
			c-0.071,0.12-0.153,0.297-0.248,0.522c-0.037,0.559-0.072,1.069-0.097,1.531c-0.035,0.013-0.059,0.061-0.059,0.145
			c0,1.567,0.071,3.051,0.204,4.452c-0.003-0.032-0.994-0.793-1.089-0.904c-0.497-0.583-0.843-1.239-1.179-1.924
			c-1.231-2.513-0.92-4.284-0.188-6.924c0.603-2.175,2.217-3.753,4.019-5.004c2.332-1.62,4.767-3.131,7.68-3.302
			C483.182,424.949,484.326,424.924,485.473,424.949"/>
		<path fill="#C3DCFC" d="M486.223,478.191l-1.44,6.243c0,0-13.275,10.232-18.073,13.751c0,0-8.798,1.76-8.639,6.719
			c0.16,4.958,7.838,5.759,13.116-1.279c0,0,15.676-6.537,19.035-10.146s8.158-11.905,8.158-11.905L486.223,478.191z"/>
		<path fill="none" stroke="#0F52BB" stroke-width="2" stroke-miterlimit="10" d="M486.223,478.191l-1.44,6.243
			c0,0-13.275,10.232-18.073,13.751c0,0-8.798,1.76-8.639,6.719c0.16,4.958,7.838,5.759,13.116-1.279
			c0,0,15.676-6.537,19.035-10.146s8.158-11.905,8.158-11.905L486.223,478.191z"/>
		<path fill="#0EC0FB" d="M498.539,484.43c0,0-3.879,0.28-8.318-1.359c-4.322-1.597-5.758-3.119-5.758-3.119
			s5.599-23.354,15.677-19.834C510.216,463.636,498.539,484.43,498.539,484.43"/>
	</g>
</g>
</svg>
