<?xml version="1.0" encoding="utf-8"?>
<!-- Generator: Adobe Illustrator 16.0.0, SVG Export Plug-In . SVG Version: 6.00 Build 0)  -->
<!DOCTYPE svg PUBLIC "-//W3C//DTD SVG 1.1//EN" "http://www.w3.org/Graphics/SVG/1.1/DTD/svg11.dtd">
<svg version="1.1" id="Слой_1" xmlns="http://www.w3.org/2000/svg" xmlns:xlink="http://www.w3.org/1999/xlink" x="0px" y="0px"
	 width="736.745px" height="705.797px" viewBox="0 0 736.745 705.797" enable-background="new 0 0 736.745 705.797"
	 xml:space="preserve">
<g>
	<g>
		<g opacity="0.47">
			<g>
				<defs>
					<rect id="SVGID_1_" width="705.797" height="705.797"/>
				</defs>
				<clipPath id="SVGID_2_">
					<use xlink:href="#SVGID_1_"  overflow="visible"/>
				</clipPath>
				<path clip-path="url(#SVGID_2_)" fill="#D2E6FF" d="M705.797,352.898c0,194.9-157.998,352.898-352.898,352.898
					C157.998,705.797,0,547.799,0,352.898C0,157.999,157.998,0,352.899,0C547.799,0,705.797,157.999,705.797,352.898"/>
			</g>
		</g>
		<path fill="#D2E6FF" d="M637.429,536.298c0,3.875-117.44,7.017-262.311,7.017c-144.87,0-262.311-3.142-262.311-7.017
			s117.441-7.016,262.311-7.016C519.988,529.282,637.429,532.423,637.429,536.298"/>
		<path fill="#D2E6FF" d="M546.067,526.604c0,7.367-5.972,13.339-13.337,13.339H392.063c-7.367,0-13.339-5.972-13.339-13.339
			V375.362c0-7.37,5.972-13.339,13.339-13.339H532.73c7.365,0,13.337,5.969,13.337,13.339V526.604z"/>
		<path fill="none" stroke="#0F52BB" stroke-width="2" stroke-miterlimit="10" d="M546.067,526.604
			c0,7.367-5.972,13.339-13.337,13.339H392.063c-7.367,0-13.339-5.972-13.339-13.339V375.362c0-7.37,5.972-13.339,13.339-13.339
			H532.73c7.365,0,13.337,5.969,13.337,13.339V526.604z"/>
		<rect x="392.881" y="376.808" fill="#FFFFFF" width="139.028" height="148.354"/>
		
			<rect x="392.881" y="376.808" fill="none" stroke="#0F52BB" stroke-width="2" stroke-miterlimit="10" width="139.028" height="148.354"/>
		<path fill="#B2D7F9" d="M480.643,351.001c0-10.077-8.17-18.247-18.25-18.247c-10.074,0-18.246,8.17-18.246,18.247
			s8.172,18.247,18.246,18.247C472.473,369.248,480.643,361.078,480.643,351.001"/>
		<path fill="none" stroke="#0F52BB" stroke-width="2" stroke-miterlimit="10" d="M480.643,351.001
			c0-10.077-8.17-18.247-18.25-18.247c-10.074,0-18.246,8.17-18.246,18.247s8.172,18.247,18.246,18.247
			C472.473,369.248,480.643,361.078,480.643,351.001z"/>
		<path fill="#B2D7F9" d="M499.761,369.248c0,10.073-8.173,3.142-18.25,3.142h-38.23c-10.082,0-18.247,6.932-18.247-3.142
			c0-10.077,8.165-18.248,18.247-18.248h38.23C491.588,351,499.761,359.171,499.761,369.248"/>
		<path fill="none" stroke="#0F52BB" stroke-width="2" stroke-miterlimit="10" d="M499.761,369.248
			c0,10.073-8.173,3.142-18.25,3.142h-38.23c-10.082,0-18.247,6.932-18.247-3.142c0-10.077,8.165-18.248,18.247-18.248h38.23
			C491.588,351,499.761,359.171,499.761,369.248z"/>
		<rect x="403.104" y="403.011" fill="#B2D7F9" width="118.58" height="3.803"/>
		<rect x="403.104" y="417.791" fill="#B2D7F9" width="118.58" height="3.801"/>
		<rect x="403.104" y="432.575" fill="#B2D7F9" width="118.58" height="3.801"/>
		<rect x="403.104" y="447.359" fill="#B2D7F9" width="118.58" height="3.799"/>
		<rect x="403.104" y="462.135" fill="#B2D7F9" width="118.58" height="3.806"/>
		<rect x="403.104" y="476.92" fill="#B2D7F9" width="118.58" height="3.803"/>
		<rect x="403.104" y="491.697" fill="#B2D7F9" width="118.58" height="3.804"/>
		<rect x="403.104" y="506.487" fill="#B2D7F9" width="118.58" height="3.798"/>
		<path fill="#D2E6FF" d="M438.457,520.874c0,9.612-7.792,17.399-17.396,17.399H237.588c-9.609,0-17.396-7.787-17.396-17.399
			v-267.82c0-9.617,7.787-17.401,17.396-17.401h183.472c9.604,0,17.396,7.784,17.396,17.401V520.874z"/>
		<path fill="none" stroke="#0F52BB" stroke-width="2" stroke-miterlimit="10" d="M438.457,520.874
			c0,9.612-7.792,17.399-17.396,17.399H237.588c-9.609,0-17.396-7.787-17.396-17.399v-267.82c0-9.617,7.787-17.401,17.396-17.401
			h183.472c9.604,0,17.396,7.784,17.396,17.401V520.874z"/>
		<rect x="235.275" y="268.486" fill="#FFFFFF" width="188.094" height="236.955"/>
		
			<rect x="235.275" y="268.486" fill="none" stroke="#0F52BB" stroke-width="2" stroke-miterlimit="10" width="188.094" height="236.955"/>
		<rect x="253.548" y="285.507" fill="#0EC0FB" width="39.861" height="43.797"/>
		<rect x="303.592" y="285.507" fill="#D2E6FF" width="105.813" height="3.88"/>
		<rect x="303.592" y="295.154" fill="#D2E6FF" width="105.813" height="3.88"/>
		<rect x="303.592" y="304.794" fill="#D2E6FF" width="105.813" height="3.878"/>
		<rect x="303.592" y="314.439" fill="#D2E6FF" width="105.813" height="3.885"/>
		<rect x="303.592" y="324.085" fill="#D2E6FF" width="56.547" height="3.88"/>
		<path fill="#0F52BB" d="M140.816,523.042c-0.688-0.486-2.207,0.577-4.546,3.18c-0.705-0.104-1.294,0.031-1.784,0.401
			c-2.458,0.61-3.398-0.482-5.286-1.087c-0.118,0.282-1.443,1.823-1.501,2.419c-0.165,1.679-0.101,4.548,1.059,5.067
			c2.271,1.016,7.046,3.847,9.513,4.193c3.103,0.435,5.881,1.457,9.056,1.678c1.84,0.128,6.597-4.228,7.171-6.663
			c0.176-0.743-1.718-1.835-2.218-2.297c-3.229-2.989-6.654-3.202-10.172-5.836C141.666,523.767,141.265,523.36,140.816,523.042"/>
		<path fill="#0F52BB" d="M114.559,504.268c-0.688-0.487-2.207,0.577-4.546,3.179c-0.705-0.104-1.294,0.032-1.784,0.402
			c-2.458,0.609-3.398-0.483-5.286-1.088c-0.118,0.282-1.443,1.823-1.501,2.42c-0.165,1.679-0.101,4.548,1.059,5.066
			c2.271,1.017,7.27,0.843,9.738,1.188c3.103,0.435,5.881,1.458,9.056,1.679c1.84,0.128,5.745,0.145,6.32-2.29
			c0.175-0.743-1.092-3.204-1.592-3.666c-3.229-2.989-6.654-3.202-10.172-5.836C115.409,504.991,115.008,504.585,114.559,504.268"/>
		<path fill="#C3DCFC" d="M148.925,417.219l1.44,6.242c0,0,13.276,10.232,18.075,13.752c0,0,8.797,1.76,8.637,6.718
			c-0.16,4.959-7.838,5.759-13.116-1.279c0,0-15.676-6.537-19.035-10.147c-3.359-3.608-8.157-11.904-8.157-11.904L148.925,417.219z"
			/>
		<path fill="none" stroke="#0F52BB" stroke-width="2" stroke-miterlimit="10" d="M148.925,417.219l1.44,6.242
			c0,0,13.276,10.232,18.075,13.752c0,0,8.797,1.76,8.637,6.718c-0.16,4.959-7.838,5.759-13.116-1.279
			c0,0-15.676-6.537-19.035-10.147c-3.359-3.608-8.157-11.904-8.157-11.904L148.925,417.219z"/>
		<path fill="#0EC0FB" d="M136.608,423.457c0,0,3.879,0.279,8.318-1.36c4.323-1.597,5.758-3.119,5.758-3.119
			s-5.598-23.353-15.676-19.834C124.932,402.662,136.608,423.457,136.608,423.457"/>
		<path fill="#0F52BB" d="M136.401,460.574c0,0-8.957,26.659-11.73,30.711c-2.772,4.053-10.168,16.783-10.168,16.783
			s-9.027,3.905-11.373-0.787c0,0,2.191-15.445,7.625-22.075c0,0,4.532-27.404,7.731-29.323
			C121.685,453.963,136.401,460.574,136.401,460.574"/>
		<path fill="#0F52BB" d="M110.755,459.295c0,0-0.8,6.611,2.186,12.583s10.237,21.541,10.237,21.541l6.398,34.124
			c0,0,6.825,1.706,12.797-1.707c0,0-2.559-26.872-3.626-32.204c-1.066-5.332-7.836-31.991-7.836-31.991L110.755,459.295z"/>
		<path fill="#0EC0FB" d="M137.467,398.085c0,0-15.995-5.117-28.472,6.719v56.837c0,0,16.742,6.185,30.392,0l2.985-55.664
			C142.373,405.977,141.307,400.432,137.467,398.085"/>
		<path fill="#C3DCFC" d="M122.652,394.783l-4.817,4.797c0,0,3.123,10.252,10.744,7.444c7.62-2.809,1.694-9.596,1.694-9.596v-5.021
			L122.652,394.783z"/>
		<path fill="none" stroke="#0F52BB" stroke-width="2" stroke-miterlimit="10" d="M122.652,394.783l-4.817,4.797
			c0,0,3.123,10.252,10.744,7.444c7.62-2.809,1.694-9.596,1.694-9.596v-5.021L122.652,394.783z"/>
		<path fill="#C3DCFC" d="M114.569,387.605c0.318-0.366,0.628-0.547,0.902-0.547c0.095,0,0.19,0.012,0.284,0.037
			c0.441,0.155,0.879,0.569,1.317,1.27c0.501,0.845,0.738,1.592,0.714,2.244c0.06-0.082,0.465-0.166,1.189-0.271
			c0.558-0.082,0.831-0.285,0.831-0.595c0-0.796-0.214-1.828-0.654-3.109c-0.309-0.904-0.51-1.665-0.604-2.271
			c0.877,0.797,2.219,1.283,4.013,1.462c0.131,0.012,0.284,0.022,0.439,0.034c1.686,0.035,3.622-0.569,5.807-1.817
			c0.296-0.176,0.57-0.426,0.807-0.746c0.32-0.605,0.583-1.058,0.772-1.343c0.465-0.689,1.046-1.033,1.758-1.033
			c0.225,0,0.428,0.107,0.63,0.331c0.034,0.038,0.019-1.466,0.341-1.133c0.998-1.13,1.868,0.065,2.189,0.196
			c0.297,0.131,0.57,0.404,0.808,0.795c0.071,0.12,0.153,0.297,0.248,0.523c0.036,0.558,0.071,1.068,0.095,1.529
			c0.036,0.015,0.06,0.062,0.06,0.146c0,1.568-0.071,3.051-0.204,4.453c-0.366,3.967-1.257,7.269-2.669,9.893
			c-0.583,1.083-1.2,1.983-1.877,2.696c-0.606,0.652-1.259,1.163-1.949,1.52c-0.653,0.32-1.353,0.485-2.102,0.485h-0.059
			c-1.27,0-2.447-0.248-3.537-0.737c-0.274-0.114-0.524-0.26-0.775-0.412c-1.924-1.164-3.574-3.173-4.952-6.021
			c-0.343-0.678-0.651-1.39-0.936-2.139c-0.18,0.272-0.44,0.428-0.762,0.464h-0.129c-0.536,0-1.105-0.604-1.7-1.817
			c-0.497-1.032-0.784-1.888-0.842-2.589v-0.203C114.022,388.437,114.2,388.011,114.569,387.605"/>
		<path fill="none" stroke="#0F52BB" stroke-width="2" stroke-miterlimit="10" d="M114.569,387.605
			c0.318-0.366,0.628-0.547,0.902-0.547c0.095,0,0.19,0.012,0.284,0.037c0.441,0.155,0.879,0.569,1.317,1.27
			c0.501,0.845,0.738,1.592,0.714,2.244c0.06-0.082,0.465-0.166,1.189-0.271c0.558-0.082,0.831-0.285,0.831-0.595
			c0-0.796-0.214-1.828-0.654-3.109c-0.309-0.904-0.51-1.665-0.604-2.271c0.877,0.797,2.219,1.283,4.013,1.462
			c0.131,0.012,0.284,0.022,0.439,0.034c1.686,0.035,3.622-0.569,5.807-1.817c0.296-0.176,0.57-0.426,0.807-0.746
			c0.32-0.605,0.583-1.058,0.772-1.343c0.465-0.689,1.046-1.033,1.758-1.033c0.225,0,0.428,0.107,0.63,0.331
			c0.034,0.038,0.019-1.466,0.341-1.133c0.998-1.13,1.868,0.065,2.189,0.196c0.297,0.131,0.57,0.404,0.808,0.795
			c0.071,0.12,0.153,0.297,0.248,0.523c0.036,0.558,0.071,1.068,0.095,1.529c0.036,0.015,0.06,0.062,0.06,0.146
			c0,1.568-0.071,3.051-0.204,4.453c-0.366,3.967-1.257,7.269-2.669,9.893c-0.583,1.083-1.2,1.983-1.877,2.696
			c-0.606,0.652-1.259,1.163-1.949,1.52c-0.653,0.32-1.353,0.485-2.102,0.485h-0.059c-1.27,0-2.447-0.248-3.537-0.737
			c-0.274-0.114-0.524-0.26-0.775-0.412c-1.924-1.164-3.574-3.173-4.952-6.021c-0.343-0.678-0.651-1.39-0.936-2.139
			c-0.18,0.272-0.44,0.428-0.762,0.464h-0.129c-0.536,0-1.105-0.604-1.7-1.817c-0.497-1.032-0.784-1.888-0.842-2.589v-0.203
			C114.022,388.437,114.2,388.011,114.569,387.605z"/>
		<path fill="#0F52BB" d="M123.662,369.637c-1.608,0.035-3.221,0.173-4.767,0.441c-1.999,0.35-3.837,1.588-4.79,3.396
			c-1.103,2.091-1.687,4.109-1.721,6.07c-0.035,1.945,0.034,3.372,0.237,4.275c0.487,1.813,0.927,3.606,1.319,5.354l0.082,0.132
			v-0.202V388.9c0-0.464,0.179-0.889,0.548-1.295c0.318-0.366,0.628-0.546,0.902-0.546c0.095,0,0.19,0.012,0.284,0.036
			c0.44,0.154,0.878,0.569,1.317,1.27c0.501,0.844,0.737,1.592,0.714,2.245c0.06-0.083,0.464-0.167,1.189-0.275
			c0.557-0.08,0.83-0.282,0.83-0.591c0-0.797-0.213-1.829-0.654-3.111c-0.308-0.903-0.509-1.664-0.604-2.269
			c0.076,0.486,1.726,0.99,2.099,1.102c0.918,0.277,1.888,0.423,2.847,0.376c2.522-0.119,4.604-1.587,6.815-2.626
			c0.916-0.43,1.863-0.833,2.646-1.488c0.593-0.497,1.434-1.815,2.349-1.412c0.297,0.13,0.57,0.403,0.808,0.794
			c0.071,0.12,0.153,0.297,0.248,0.522c0.037,0.559,0.072,1.069,0.096,1.531c0.035,0.013,0.06,0.061,0.06,0.145
			c0,1.567-0.072,3.051-0.205,4.453c0.003-0.033,0.994-0.794,1.089-0.905c0.497-0.583,0.842-1.239,1.178-1.924
			c1.232-2.513,0.92-4.284,0.189-6.924c-0.603-2.175-2.217-3.753-4.019-5.004c-2.332-1.619-4.766-3.131-7.679-3.302
			C125.952,369.637,124.809,369.61,123.662,369.637"/>
		<path fill="#C3DCFC" d="M122.912,422.878l1.44,6.243c0,0,13.276,10.232,18.074,13.751c0,0,8.798,1.761,8.638,6.72
			c-0.16,4.958-7.838,5.758-13.116-1.28c0,0-15.676-6.537-19.035-10.146s-8.158-11.905-8.158-11.905L122.912,422.878z"/>
		<path fill="none" stroke="#0F52BB" stroke-width="2" stroke-miterlimit="10" d="M122.912,422.878l1.44,6.243
			c0,0,13.276,10.232,18.074,13.751c0,0,8.798,1.761,8.638,6.72c-0.16,4.958-7.838,5.758-13.116-1.28
			c0,0-15.676-6.537-19.035-10.146s-8.158-11.905-8.158-11.905L122.912,422.878z"/>
		<path fill="#0EC0FB" d="M110.595,429.116c0,0,3.879,0.28,8.318-1.359c4.323-1.597,5.758-3.119,5.758-3.119
			s-5.598-23.354-15.676-19.834C98.918,408.322,110.595,429.116,110.595,429.116"/>
		<path fill="#B2D7F9" d="M151.912,441.506c0,0-2.281,2.612-2.281,11.771v30.3v6.962v30.298c0,9.163,2.281,11.771,2.281,11.771
			l56.556-8.218v-33.852v-6.962v-33.852L151.912,441.506z"/>
		<path fill="none" stroke="#0F52BB" stroke-width="2" stroke-miterlimit="10" d="M151.912,441.506c0,0-2.281,2.612-2.281,11.771
			v30.3v6.962v30.298c0,9.163,2.281,11.771,2.281,11.771l56.556-8.218v-33.852v-6.962v-33.852L151.912,441.506z"/>
		<path fill="#B2D7F9" d="M280.092,441.506c0,0,2.281,2.612,2.281,11.771v30.3v6.962v30.298c0,9.163-2.281,11.771-2.281,11.771
			l-56.556-8.218v-33.852v-6.962v-33.852L280.092,441.506z"/>
		<path fill="none" stroke="#0F52BB" stroke-width="2" stroke-miterlimit="10" d="M280.092,441.506c0,0,2.281,2.612,2.281,11.771
			v30.3v6.962v30.298c0,9.163-2.281,11.771-2.281,11.771l-56.556-8.218v-33.852v-6.962v-33.852L280.092,441.506z"/>
		<path fill="#D2E6FF" d="M223.144,485.323c0,0-1.203-0.938-2.951-2.013v-3.125c-1.293,0.052-2.703,0.461-4.072,1.02
			c-1.365-0.559-2.769-0.968-4.057-1.02v3.106c-1.772,1.082-2.992,2.031-2.992,2.031l-57.16,47.364c0,0,4.224,5.151,12.67,5.151
			h47.482h8.129h47.276c8.417,0,12.624-5.151,12.624-5.151L223.144,485.323z"/>
		<path fill="none" stroke="#0F52BB" stroke-width="2" stroke-miterlimit="10" d="M223.144,485.323c0,0-1.203-0.938-2.951-2.013
			v-3.125c-1.293,0.052-2.703,0.461-4.072,1.02c-1.365-0.559-2.769-0.968-4.057-1.02v3.106c-1.772,1.082-2.992,2.031-2.992,2.031
			l-57.16,47.364c0,0,4.224,5.151,12.67,5.151h47.482h8.129h47.276c8.417,0,12.624-5.151,12.624-5.151L223.144,485.323z"/>
		<path fill="#D2E6FF" d="M268.2,436.349h-52.198h-52.198c-7.928,0-11.892,5.158-11.892,5.158l53.652,47.359
			c0,0,5.97,4.95,10.438,5.142c4.471-0.191,10.442-5.142,10.442-5.142l53.648-47.359C280.092,441.507,276.129,436.349,268.2,436.349
			"/>
		<path fill="none" stroke="#0F52BB" stroke-width="2" stroke-miterlimit="10" d="M268.2,436.349h-52.198h-52.198
			c-7.928,0-11.892,5.158-11.892,5.158l53.652,47.359c0,0,5.97,4.95,10.438,5.142c4.471-0.191,10.442-5.142,10.442-5.142
			l53.648-47.359C280.092,441.507,276.129,436.349,268.2,436.349z"/>
		<path fill="#FFFFFF" d="M225.697,113.254c0,17.914,14.523,32.439,32.438,32.439c17.916,0,32.438-14.525,32.438-32.439
			c0-17.917-14.522-32.439-32.438-32.439C240.22,80.815,225.697,95.337,225.697,113.254"/>
		<circle fill="none" stroke="#0F52BB" stroke-width="2" stroke-miterlimit="10" cx="258.135" cy="113.254" r="32.438"/>
		<path fill="#0EC0FB" d="M259.64,103.841c-0.161,0.2-0.408,0.301-0.649,0.301c-0.24,0-0.477-0.097-0.634-0.292
			c-5.859-7.167-16.204-3.597-15.889,5.224c0.253,7.019,5.228,10.499,11.087,15.435c1.565,1.322,3.513,1.98,5.459,1.98
			c1.956,0,3.906-0.662,5.469-1.993c5.793-4.928,10.705-8.385,11.042-15.214C275.97,100.266,265.483,96.643,259.64,103.841
			 M262.295,122.104c-0.905,0.771-2.072,1.194-3.281,1.194c-1.205,0-2.372-0.423-3.316-1.218c-5.942-5.009-9.729-7.667-9.922-13.117
			c-0.209-5.768,6.109-7.877,9.982-3.137c0.784,0.958,1.961,1.506,3.233,1.506c1.28,0,2.468-0.555,3.251-1.524
			c3.789-4.664,10.275-2.678,9.978,3.324C271.957,114.471,268.027,117.226,262.295,122.104"/>
		<path fill="#FFFFFF" d="M402.648,207.787c0,15.203-12.324,27.529-27.528,27.529c-15.207,0-27.532-12.326-27.532-27.529
			c0-15.205,12.325-27.531,27.532-27.531C390.324,180.255,402.648,192.582,402.648,207.787"/>
		<circle fill="none" stroke="#0F52BB" stroke-width="2" stroke-miterlimit="10" cx="375.118" cy="207.787" r="27.53"/>
		<path fill="#0EC0FB" d="M369.831,189.207c-7.22,0-13.073,5.853-13.073,13.073c0,7.219,5.853,13.072,13.073,13.072
			c7.219,0,13.072-5.853,13.072-13.072C382.903,195.06,377.05,189.207,369.831,189.207 M369.831,212.084
			c-5.405,0-9.805-4.398-9.805-9.804c0-5.407,4.4-9.805,9.805-9.805c5.404,0,9.804,4.398,9.804,9.805
			C379.635,207.686,375.235,212.084,369.831,212.084 M389.439,219.578l-2.311,2.311l-6.934-6.932l2.311-2.313L389.439,219.578z"/>
		<path fill="#FFFFFF" d="M189.803,247.501c0,16.516,13.389,29.906,29.905,29.906c16.517,0,29.905-13.39,29.905-29.906
			c0-16.516-13.388-29.906-29.905-29.906C203.192,217.595,189.803,230.985,189.803,247.501"/>
		<circle fill="none" stroke="#0F52BB" stroke-width="2" stroke-miterlimit="10" cx="219.708" cy="247.501" r="29.905"/>
		<path fill="#0EC0FB" d="M233.01,251.506v6.656c0,1.466-0.598,2.641-2.064,2.641h-21.292c-1.467,0-3.247-1.175-3.247-2.641v-21.293
			c0-1.467,1.78-2.669,3.247-2.669h6.656c0.733,0,1.33,0.594,1.33,1.33c0,0.735-0.597,1.329-1.33,1.329h-5.322
			c-0.733,0-1.921,0.609-1.921,1.345v17.297c0,1.466,1.78,2.642,3.247,2.642h17.298c0.734,0,0.739-0.582,0.739-1.317v-5.32
			c0-0.737,0.593-1.33,1.329-1.33C232.417,250.176,233.01,250.77,233.01,251.506 M222.014,247.683l7.734-7.734
			c0.415-0.416,1.125-0.134,1.142,0.452l0.052,1.818c0.021,0.733,0.632,1.291,1.366,1.291h-0.296c0.737,0,0.998-0.633,0.998-1.367
			v-5.284c0-1.464-1.195-2.659-2.659-2.659h-4.679c-0.737,0-1.971,0.564-1.971,1.299v0.003c0,0.735,0.859,1.351,1.594,1.37
			l2.041,0.055c0.587,0.013,0.868,0.724,0.455,1.139l-7.698,7.736c-0.518,0.519-0.498,1.361,0.02,1.881
			C220.632,248.201,221.493,248.202,222.014,247.683"/>
		<path fill="#FFFFFF" d="M483.864,79.859c0,12.11-9.816,21.928-21.927,21.928c-12.111,0-21.928-9.818-21.928-21.928
			c0-12.11,9.816-21.928,21.928-21.928C474.048,57.932,483.864,67.75,483.864,79.859"/>
		<circle fill="none" stroke="#0F52BB" stroke-width="2" stroke-miterlimit="10" cx="461.937" cy="79.859" r="21.927"/>
		<path fill="#0EC0FB" d="M452.82,71.883v15.066c0,1.04,0.854,1.882,1.905,1.882h15.249c1.052,0,1.905-0.842,1.905-1.882V71.883
			c0-1.039-0.854-1.882-1.905-1.882h-15.249C453.675,70.001,452.82,70.844,452.82,71.883 M469.021,86.949H455.68
			c-0.525,0-0.954-0.422-0.954-0.942V72.825c0-0.52,0.429-0.942,0.954-0.942h13.342c0.525,0,0.953,0.422,0.953,0.942v13.182
			C469.975,86.527,469.547,86.949,469.021,86.949 M466.368,81.512l-2.71,2.529c-0.732,0.686-1.882,0.686-2.617,0l-2.707-2.529
			c-0.383-0.357-0.399-0.953-0.038-1.331c0.36-0.377,0.964-0.394,1.348-0.037l0.95,0.887c0.303,0.284,0.803,0.071,0.803-0.342V75.65
			c0-0.521,0.427-0.942,0.954-0.942c0.526,0,0.953,0.421,0.953,0.942v5.039c0,0.413,0.5,0.626,0.803,0.342l0.951-0.887
			c0.382-0.357,0.986-0.34,1.347,0.037C466.766,80.56,466.75,81.155,466.368,81.512"/>
		<polygon fill-rule="evenodd" clip-rule="evenodd" fill="#0EC0FB" points="380.098,487.934 395.28,472.747 380.098,457.563 
			375.761,461.902 386.606,472.747 375.761,483.591 		"/>
		<polygon fill-rule="evenodd" clip-rule="evenodd" fill="#0EC0FB" points="348.343,457.56 333.155,472.745 348.343,487.931 
			352.68,483.591 341.834,472.745 352.68,461.902 		"/>
		<polygon fill-rule="evenodd" clip-rule="evenodd" fill="#0EC0FB" points="380.098,376.661 395.28,361.476 380.098,346.291 
			375.761,350.63 386.606,361.476 375.761,372.318 		"/>
		<polygon fill-rule="evenodd" clip-rule="evenodd" fill="#0EC0FB" points="348.343,346.285 333.155,361.472 348.343,376.656 
			352.68,372.319 341.834,361.472 352.68,350.63 		"/>
		<line fill-rule="evenodd" clip-rule="evenodd" fill="#F7A934" x1="360.089" y1="485.49" x2="368.467" y2="460.006"/>
		<polygon fill="#0EC0FB" points="362.817,486.388 357.364,484.592 365.739,459.107 371.195,460.904 		"/>
		<polygon fill="#0195DF" points="375.729,358.666 352.865,358.539 352.831,364.284 375.729,364.408 		"/>
		<rect x="333.155" y="385.228" fill="#D2E6FF" width="70.145" height="5.19"/>
		<rect x="300.724" y="354.968" fill="#D2E6FF" width="14.472" height="8.333"/>
		<rect x="300.724" y="378.387" fill="#D2E6FF" width="14.472" height="8.331"/>
		<rect x="300.724" y="401.803" fill="#D2E6FF" width="14.472" height="8.331"/>
		<rect x="300.724" y="425.219" fill="#D2E6FF" width="14.472" height="8.331"/>
		<rect x="300.724" y="448.634" fill="#D2E6FF" width="14.472" height="8.331"/>
		<rect x="300.724" y="472.051" fill="#D2E6FF" width="14.472" height="8.331"/>
		<rect x="333.155" y="399.618" fill="#D2E6FF" width="70.145" height="5.192"/>
		<rect x="333.154" y="414.011" fill="#D2E6FF" width="55.438" height="5.19"/>
		<rect x="333.155" y="428.404" fill="#D2E6FF" width="70.145" height="5.189"/>
		<rect x="333.155" y="442.797" fill="#D2E6FF" width="70.145" height="5.19"/>
		<g opacity="0.6">
			<g>
				<defs>
					<rect id="SVGID_3_" x="367.533" y="596.652" width="121.288" height="32.337"/>
				</defs>
				<clipPath id="SVGID_4_">
					<use xlink:href="#SVGID_3_"  overflow="visible"/>
				</clipPath>
				<path clip-path="url(#SVGID_4_)" fill="#D2E6FF" d="M488.821,612.82c0,8.931-27.151,16.169-60.645,16.169
					s-60.644-7.238-60.644-16.169c0-8.93,27.15-16.169,60.644-16.169S488.821,603.891,488.821,612.82"/>
			</g>
		</g>
		<path fill="#0F52BB" d="M417.196,613.968c-3.448,2.583-6.808,2.791-9.975,5.723c-0.49,0.453-2.346,1.523-2.175,2.253
			c0.563,2.388,5.008,3.713,6.812,3.588c3.114-0.217,5.837-1.221,8.88-1.646c2.42-0.339,7.322-0.169,9.55-1.165
			c1.138-0.509,1.199-3.323,1.038-4.969c-0.057-0.584-1.356-2.096-1.473-2.372c-1.851,0.592-2.771,1.664-5.182,1.066
			c-0.481-0.363-1.06-0.496-1.75-0.395c-2.293-2.552-3.783-3.595-4.458-3.118C418.023,613.244,417.631,613.643,417.196,613.968"/>
		<path fill="#0F52BB" d="M442.944,595.557c-3.449,2.583-6.809,2.791-9.976,5.723c-0.49,0.454-1.731,2.866-1.56,3.595
			c0.563,2.388,4.393,2.371,6.197,2.246c3.113-0.217,5.837-1.22,8.88-1.646c2.42-0.339,7.321-0.169,9.549-1.165
			c1.138-0.509,1.2-3.322,1.039-4.969c-0.058-0.584-1.357-2.096-1.473-2.372c-1.852,0.593-2.772,1.664-5.183,1.066
			c-0.481-0.363-1.059-0.496-1.75-0.395c-2.293-2.551-3.783-3.595-4.458-3.117C443.771,594.834,443.378,595.232,442.944,595.557"/>
		<path fill="#C3DCFC" d="M410.512,509.162l-1.412,6.121c0,0-13.018,10.035-17.724,13.485c0,0-8.627,1.726-8.47,6.588
			s7.686,5.646,12.861-1.255c0,0,15.371-6.409,18.665-9.949c3.295-3.54,8-11.675,8-11.675L410.512,509.162z"/>
		<path fill="none" stroke="#0F52BB" stroke-width="2" stroke-miterlimit="10" d="M410.512,509.162l-1.412,6.121
			c0,0-13.018,10.035-17.724,13.485c0,0-8.627,1.726-8.47,6.588s7.686,5.646,12.861-1.255c0,0,15.371-6.409,18.665-9.949
			c3.295-3.54,8-11.675,8-11.675L410.512,509.162z"/>
		<path fill="#0EC0FB" d="M422.59,515.279c0,0-3.805,0.274-8.156-1.333c-4.24-1.565-5.647-3.059-5.647-3.059
			s5.49-22.9,15.372-19.449C434.04,494.889,422.59,515.279,422.59,515.279"/>
		<path fill="#0F52BB" d="M422.793,551.678c0,0,8.784,26.142,11.502,30.114c2.72,3.975,9.972,16.457,9.972,16.457
			s8.851,3.83,11.151-0.771c0,0-2.147-15.146-7.477-21.647c0,0-4.444-26.873-7.581-28.755S422.793,551.678,422.793,551.678"/>
		<path fill="#0F52BB" d="M447.941,550.422c0,0,0.784,6.483-2.144,12.34c-2.929,5.855-10.038,21.123-10.038,21.123l-6.274,33.461
			c0,0-6.691,1.673-12.548-1.674c0,0,2.509-26.351,3.555-31.578c1.047-5.229,7.686-31.371,7.686-31.371L447.941,550.422z"/>
		<path fill="#0EC0FB" d="M421.747,490.4c0,0,15.686-5.019,27.919,6.588v55.734c0,0-16.417,6.065-29.801,0l-2.928-54.584
			C416.938,498.139,417.983,492.701,421.747,490.4"/>
		<path fill="#C3DCFC" d="M436.275,487.163l4.724,4.703c0,0-3.063,10.054-10.535,7.301c-7.474-2.753-1.661-9.41-1.661-9.41v-4.924
			L436.275,487.163z"/>
		<path fill="none" stroke="#0F52BB" stroke-width="2" stroke-miterlimit="10" d="M436.275,487.163l4.724,4.703
			c0,0-3.063,10.054-10.535,7.301c-7.474-2.753-1.661-9.41-1.661-9.41v-4.924L436.275,487.163z"/>
		<path fill="#FFFFFF" d="M434.955,516.828c0,21.597-17.511,39.107-39.108,39.107c-21.603,0-39.108-17.511-39.108-39.107
			c0-21.602,17.505-39.108,39.108-39.108C417.444,477.72,434.955,495.227,434.955,516.828"/>
		<path fill="none" stroke="#0F52BB" stroke-width="2" stroke-miterlimit="10" d="M434.955,516.828
			c0,21.597-17.511,39.107-39.108,39.107c-21.603,0-39.108-17.511-39.108-39.107c0-21.602,17.505-39.108,39.108-39.108
			C417.444,477.72,434.955,495.227,434.955,516.828z"/>
		<path fill="#0EC0FB" d="M413.918,514.006c2.018-2.05,0.906-5.617-1.883-6.037l-7.085-1.077c-1.107-0.163-2.065-0.89-2.557-1.935
			l-3.17-6.688c-0.624-1.313-1.834-1.97-3.047-1.97c-1.211,0-2.423,0.657-3.047,1.97l-3.166,6.688
			c-0.495,1.045-1.45,1.771-2.559,1.935l-7.081,1.077c-2.789,0.42-3.903,3.987-1.884,6.037l5.123,5.204
			c0.804,0.811,1.167,1.983,0.978,3.131l-1.213,7.351c-0.373,2.288,1.371,4.146,3.352,4.146c0.521,0,1.063-0.129,1.583-0.415
			l6.335-3.47c0.495-0.269,1.037-0.408,1.579-0.408s1.084,0.14,1.581,0.408l6.336,3.47c0.521,0.286,1.062,0.415,1.581,0.415
			c1.98,0,3.727-1.857,3.348-4.146l-1.209-7.351c-0.188-1.147,0.176-2.32,0.979-3.131L413.918,514.006z M405.627,515.827
			c-1.87,1.899-2.721,4.635-2.279,7.314l0.818,4.983l-4.298-2.354c-1.134-0.619-2.41-0.949-3.691-0.949
			c-1.28,0-2.559,0.33-3.689,0.949l-4.299,2.354l0.821-4.983c0.441-2.68-0.413-5.415-2.282-7.314l-3.475-3.53l4.806-0.73
			c2.585-0.388,4.816-2.078,5.973-4.519l2.146-4.536l2.15,4.536c1.154,2.44,3.388,4.131,5.969,4.519l4.806,0.73L405.627,515.827z"/>
		<path fill="#C3DCFC" d="M436.021,514.713l-1.412,6.122c0,0-13.018,10.033-17.724,13.484c0,0-8.627,1.726-8.47,6.587
			c0.157,4.863,7.686,5.647,12.861-1.255c0,0,15.371-6.409,18.665-9.949s8-11.675,8-11.675L436.021,514.713z"/>
		<path fill="none" stroke="#0F52BB" stroke-width="2" stroke-miterlimit="10" d="M436.021,514.713l-1.412,6.122
			c0,0-13.018,10.033-17.724,13.484c0,0-8.627,1.726-8.47,6.587c0.157,4.863,7.686,5.647,12.861-1.255
			c0,0,15.371-6.409,18.665-9.949s8-11.675,8-11.675L436.021,514.713z"/>
		<path fill="#0EC0FB" d="M448.099,520.83c0,0-3.805,0.274-8.156-1.333c-4.24-1.566-5.647-3.06-5.647-3.06
			s5.49-22.899,15.372-19.448C459.548,500.438,448.099,520.83,448.099,520.83"/>
		<path fill="#C3DCFC" d="M445.333,479.519c-0.028-0.052-0.053-0.107-0.092-0.174c-0.229-0.279-0.44-0.466-0.641-0.56
			c-0.119-0.092-0.254-0.132-0.375-0.132c-0.104-0.017-0.213-0.017-0.331,0.011c-0.386,0.081-0.8,0.348-1.215,0.788
			c-0.119,0.16-0.238,0.333-0.388,0.519c-0.639,0.893-1.09,2.187-1.371,3.893c-0.626,0.359-1.092,0.574-1.398,0.653
			c-0.037-0.601-0.121-1.374-0.214-2.333c0.04-0.52,0.012-1.214-0.094-2.065c-0.039-0.252-0.08-0.506-0.092-0.746
			c-0.04-0.562,0-1.108,0.092-1.653l1.147-2.72c0.079-1.104-0.24-2.146-0.961-3.13c-0.625-0.867-1.305-1.374-2.039-1.494
			c-0.065-0.012-0.146-0.027-0.211-0.027l-0.786,0.027c-0.936,0.627-2.32,1.413-4.16,2.359c-1.813,0.933-3.691,1.373-5.649,1.333
			c-1.907-0.039-3.199-0.386-3.895-1.053c-0.65-0.693-1.053-1.212-1.186-1.574c-0.36,1.255-0.52,2.147-0.505,2.692
			c0.039,0.813,0.012,1.933-0.067,3.345l0.106,1.787c0.172,4.039,0.599,6.984,1.265,8.851c0.681,1.866,1.389,3.236,2.095,4.102
			c0.011,0.017,0.04,0.057,0.054,0.095l0.015,0.041c0.305,0.373,0.597,0.705,0.903,1.015c0.229,0.226,0.467,0.412,0.721,0.584
			c0.119,0.08,0.238,0.162,0.357,0.227c0.188,0.108,0.389,0.214,0.601,0.308c0.228,0.08,0.452,0.159,0.707,0.239
			c0.48,0.229,1.079,0.308,1.813,0.254c1.186,0.027,2.331-0.146,3.412-0.52c1.61-0.6,3.118-1.653,4.529-3.187
			c0.923-1.013,1.814-2.225,2.654-3.639c0.439-0.761,0.854-1.533,1.252-2.346c0.119,0.215,0.281,0.373,0.48,0.479
			c0.039,0.015,0.065,0.027,0.08,0.027c0.094,0.014,0.186,0.04,0.294,0.066c0.05,0.015,0.092,0.025,0.132,0.025
			c0.598,0.041,1.321-0.599,2.133-1.917c0.611-1.053,0.984-1.96,1.134-2.745c0.037-0.054,0.053-0.094,0.053-0.136v-0.211
			C445.732,480.411,445.614,479.957,445.333,479.519"/>
		<path fill="none" stroke="#0F52BB" stroke-width="2" stroke-miterlimit="10" d="M445.333,479.519
			c-0.028-0.052-0.053-0.107-0.092-0.174c-0.229-0.279-0.44-0.466-0.641-0.56c-0.119-0.092-0.254-0.132-0.375-0.132
			c-0.104-0.017-0.213-0.017-0.331,0.011c-0.386,0.081-0.8,0.348-1.215,0.788c-0.119,0.16-0.238,0.333-0.388,0.519
			c-0.639,0.893-1.09,2.187-1.371,3.893c-0.626,0.359-1.092,0.574-1.398,0.653c-0.037-0.601-0.121-1.374-0.214-2.333
			c0.04-0.52,0.012-1.214-0.094-2.065c-0.039-0.252-0.08-0.506-0.092-0.746c-0.04-0.562,0-1.108,0.092-1.653l1.147-2.72
			c0.079-1.104-0.24-2.146-0.961-3.13c-0.625-0.867-1.305-1.374-2.039-1.494c-0.065-0.012-0.146-0.027-0.211-0.027l-0.786,0.027
			c-0.936,0.627-2.32,1.413-4.16,2.359c-1.813,0.933-3.691,1.373-5.649,1.333c-1.907-0.039-3.199-0.386-3.895-1.053
			c-0.65-0.693-1.053-1.212-1.186-1.574c-0.36,1.255-0.52,2.147-0.505,2.692c0.039,0.813,0.012,1.933-0.067,3.345l0.106,1.787
			c0.172,4.039,0.599,6.984,1.265,8.851c0.681,1.866,1.389,3.236,2.095,4.102c0.011,0.017,0.04,0.057,0.054,0.095l0.015,0.041
			c0.305,0.373,0.597,0.705,0.903,1.015c0.229,0.226,0.467,0.412,0.721,0.584c0.119,0.08,0.238,0.162,0.357,0.227
			c0.188,0.108,0.389,0.214,0.601,0.308c0.228,0.08,0.452,0.159,0.707,0.239c0.48,0.229,1.079,0.308,1.813,0.254
			c1.186,0.027,2.331-0.146,3.412-0.52c1.61-0.6,3.118-1.653,4.529-3.187c0.923-1.013,1.814-2.225,2.654-3.639
			c0.439-0.761,0.854-1.533,1.252-2.346c0.119,0.215,0.281,0.373,0.48,0.479c0.039,0.015,0.065,0.027,0.08,0.027
			c0.094,0.014,0.186,0.04,0.294,0.066c0.05,0.015,0.092,0.025,0.132,0.025c0.598,0.041,1.321-0.599,2.133-1.917
			c0.611-1.053,0.984-1.96,1.134-2.745c0.037-0.054,0.053-0.094,0.053-0.136v-0.211
			C445.732,480.411,445.614,479.957,445.333,479.519z"/>
		<path fill="#0F52BB" d="M439.4,471.869c-0.625-0.867-1.304-1.374-2.039-1.494c-0.064-0.013-0.146-0.027-0.21-0.027l-0.786,0.027
			c-0.935,0.627-2.32,1.413-4.16,2.359c-1.813,0.933-3.691,1.372-5.649,1.332c-1.908-0.039-3.2-0.385-3.894-1.052
			c-0.651-0.692-1.055-1.212-1.187-1.574c0.227-0.678,0.504-1.465,0.813-2.356c0.267-0.441,0.535-0.936,0.787-1.454
			c1.798-3.187,5.598-4.783,11.421-4.798c5.454,0.386,8.769,3.6,9.942,9.648c0.4,1.721,0.453,3.813,0.161,6.305
			c-0.121-0.093-0.254-0.133-0.375-0.133c-0.104-0.016-0.213-0.016-0.331,0.012c-0.386,0.081-0.8,0.347-1.215,0.788
			c-0.119,0.159-0.239,0.333-0.388,0.519c-0.64,0.892-1.09,2.187-1.371,3.892c-0.627,0.36-1.091,0.572-1.399,0.654
			c-0.037-0.601-0.121-1.374-0.213-2.333c0.041-0.52,0.012-1.213-0.094-2.065c-0.039-0.252-0.08-0.507-0.092-0.746
			c-0.039-0.562,0-1.107,0.092-1.653l1.146-2.72C440.44,473.895,440.122,472.853,439.4,471.869"/>
		<path fill="#FFFFFF" d="M680.891,467.946c0-3.974-15.946-7.194-35.618-7.194c-19.671,0-35.617,3.221-35.617,7.194
			c0,0.117,0.016,0.235,0.044,0.352h-0.044v10.862c0.85,0.475,1.805,0.931,2.854,1.367l2.381,17.271
			c-1.07-0.435-1.72-0.948-1.886-1.549l5.542,39.711c0,0.916,0.608,1.553,1.879,1.995l4.257,30.886
			c0,2.266,9.219,4.103,20.591,4.103s20.593-1.837,20.593-4.103l4.295-31.164c1.438-0.344,2.357-0.767,2.89-1.28l4.249-40.315
			c0,0.688-0.577,1.26-1.646,1.738l2.423-17.578c1.043-0.459,1.994-0.938,2.814-1.443v-10.395c-0.02-0.015-0.043-0.027-0.064-0.04
			C680.866,468.226,680.891,468.087,680.891,467.946"/>
		<path fill="#3C2415" d="M626.947,568.155c1.49,0.937,7.805,2.451,18.325,2.451c10.522,0,16.836-1.515,18.326-2.451l4.245-30.797
			c0.131-0.955,0.835-1.731,1.772-1.955c0.559-0.133,0.951-0.263,1.226-0.373l3.705-35.15c-0.104-0.055-0.202-0.119-0.297-0.189
			c-0.681-0.51-1.029-1.349-0.913-2.19l2.423-17.578c0.11-0.804,0.631-1.493,1.374-1.819c0.512-0.227,0.986-0.451,1.419-0.674
			v-8.581c-0.055-0.238-0.072-0.484-0.049-0.729c-1.644-1.792-12.836-5.027-33.231-5.027c-20.44,0-31.638,3.25-33.242,5.039
			c0.017,0.208,0.003,0.416-0.037,0.619v8.988c0.445,0.214,0.917,0.424,1.412,0.63c0.767,0.318,1.307,1.018,1.42,1.84l2.382,17.272
			c0.112,0.828-0.223,1.652-0.883,2.166c-0.14,0.108-0.29,0.199-0.446,0.272l4.979,35.693c0.078,0.038,0.188,0.085,0.336,0.137
			c0.83,0.289,1.428,1.019,1.548,1.888L626.947,568.155z"/>
		<path fill="#B2D7F9" d="M645.272,464.741c-18.788,0-34.021,2.984-34.021,6.667c0,0.119,0.018,0.236,0.049,0.354l13.381,97.079
			c0,2.265,9.219,4.103,20.591,4.103s20.593-1.838,20.593-4.103l13.38-97.079c0.03-0.118,0.049-0.235,0.049-0.354
			C679.294,467.726,664.062,464.741,645.272,464.741"/>
		<path fill="none" stroke="#0F52BB" stroke-width="2" stroke-miterlimit="10" d="M645.272,464.741
			c-18.788,0-34.021,2.984-34.021,6.667c0,0.119,0.018,0.236,0.049,0.354l13.381,97.079c0,2.265,9.219,4.103,20.591,4.103
			s20.593-1.838,20.593-4.103l13.38-97.079c0.03-0.118,0.049-0.235,0.049-0.354C679.294,467.726,664.062,464.741,645.272,464.741z"
			/>
		<path fill="#FFFFFF" d="M678.639,471.407c0,3.683-15.232,6.667-34.021,6.667s-34.021-2.984-34.021-6.667
			c0-3.682,15.231-6.667,34.021-6.667S678.639,467.726,678.639,471.407"/>
		<path fill="#3C2415" d="M644.618,478.951c-14.028,0-34.897-2.01-34.897-7.543c0-5.535,20.869-7.544,34.897-7.544
			s34.898,2.009,34.898,7.544C679.517,476.941,658.646,478.951,644.618,478.951 M644.618,465.618
			c-20.233,0-33.144,3.429-33.144,5.79c0,2.359,12.91,5.789,33.144,5.789c20.232,0,33.144-3.43,33.144-5.789
			C677.762,469.047,664.851,465.618,644.618,465.618"/>
		<path fill="#FFFFFF" d="M609.655,479.16v-10.862h71.063c0.061,0.038,0.119,0.068,0.173,0.105v10.396
			c-1.396,0.857-3.126,1.647-5.141,2.377c-7.324,2.625-18.398,4.304-30.782,4.304c-12.793,0-24.18-1.791-31.492-4.566
			C612.037,480.364,610.76,479.777,609.655,479.16"/>
		<path fill="#D2E6FF" d="M610.532,478.639c0.964,0.509,2.057,0.997,3.257,1.455c7.548,2.864,18.913,4.509,31.18,4.509
			c11.836,0,22.948-1.55,30.486-4.252c1.79-0.648,3.322-1.337,4.559-2.05v-9.125h-69.481V478.639z"/>
		<path fill="none" stroke="#0F52BB" stroke-width="2" stroke-miterlimit="10" d="M610.532,478.639
			c0.964,0.509,2.057,0.997,3.257,1.455c7.548,2.864,18.913,4.509,31.18,4.509c11.836,0,22.948-1.55,30.486-4.252
			c1.79-0.648,3.322-1.337,4.559-2.05v-9.125h-69.481V478.639z"/>
		<path fill="#D2E6FF" d="M680.891,467.946c0,3.973-15.946,7.193-35.618,7.193c-19.671,0-35.617-3.221-35.617-7.193
			c0-3.974,15.946-7.194,35.617-7.194C664.944,460.752,680.891,463.973,680.891,467.946"/>
		
			<ellipse fill="none" stroke="#0F52BB" stroke-width="2" stroke-miterlimit="10" cx="645.273" cy="467.946" rx="35.618" ry="7.193"/>
		<path fill="#D2E6FF" d="M677.299,496.082l-4.249,40.315c-1.938,1.872-8.987,2.542-27.776,2.542
			c-18.79,0-26.728,0.342-26.728-2.979l-5.587-40.027c0,3.321,13.524,4.13,32.314,4.13
			C664.063,500.063,677.299,499.402,677.299,496.082"/>
		<path fill="none" stroke="#0F52BB" stroke-width="2" stroke-miterlimit="10" d="M677.299,496.082l-4.249,40.315
			c-1.938,1.872-8.987,2.542-27.776,2.542c-18.79,0-26.728,0.342-26.728-2.979l-5.587-40.027c0,3.321,13.524,4.13,32.314,4.13
			C664.063,500.063,677.299,499.402,677.299,496.082z"/>
		<path fill="#B2D7F9" d="M634.728,521.864c0,2.945-1.845,5.332-4.121,5.332c-2.275,0-4.121-2.387-4.121-5.332
			s1.846-5.332,4.121-5.332C632.883,516.532,634.728,518.919,634.728,521.864"/>
		
			<ellipse fill="none" stroke="#0F52BB" stroke-width="2" stroke-miterlimit="10" cx="630.606" cy="521.864" rx="4.121" ry="5.332"/>
		<path fill="#B2D7F9" d="M664.061,521.864c0,2.945-1.845,5.332-4.121,5.332c-2.275,0-4.121-2.387-4.121-5.332
			s1.846-5.332,4.121-5.332C662.216,516.532,664.061,518.919,664.061,521.864"/>
		
			<ellipse fill="none" stroke="#0F52BB" stroke-width="2" stroke-miterlimit="10" cx="659.939" cy="521.864" rx="4.121" ry="5.332"/>
		<path fill="#B2D7F9" d="M637.608,525.472c0,4.232,3.432,7.664,7.664,7.664c4.233,0,7.665-3.432,7.665-7.664H637.608z"/>
		<path fill="none" stroke="#0F52BB" stroke-width="2" stroke-miterlimit="10" d="M637.608,525.472c0,4.232,3.432,7.664,7.664,7.664
			c4.233,0,7.665-3.432,7.665-7.664H637.608z"/>
		<path fill="#D2E6FF" d="M645.273,468.047c0,0-27.435-30.126-35.618-47.944c-8.185-17.817,63.893-9.384,71.235-47.209
			c7.344-37.824-43.281-45.459-43.281-45.459s103.492,33.485,98.994,59.751c-4.5,26.267-114.856,20.579-105.997,44.146
			C639.466,454.896,645.273,468.047,645.273,468.047"/>
	</g>
</g>
</svg>
