<?xml version="1.0" encoding="utf-8"?>
<!-- Generator: Adobe Illustrator 16.0.0, SVG Export Plug-In . SVG Version: 6.00 Build 0)  -->
<!DOCTYPE svg PUBLIC "-//W3C//DTD SVG 1.1//EN" "http://www.w3.org/Graphics/SVG/1.1/DTD/svg11.dtd">
<svg version="1.1" id="Слой_1" xmlns="http://www.w3.org/2000/svg" xmlns:xlink="http://www.w3.org/1999/xlink" x="0px" y="0px"
	 width="891.151px" height="705.797px" viewBox="0 0 891.151 705.797" enable-background="new 0 0 891.151 705.797"
	 xml:space="preserve">
<g>
	<g>
		<g opacity="0.47">
			<g>
				<defs>
					<rect id="SVGID_1_" width="705.797" height="705.797"/>
				</defs>
				<clipPath id="SVGID_2_">
					<use xlink:href="#SVGID_1_"  overflow="visible"/>
				</clipPath>
				<path clip-path="url(#SVGID_2_)" fill="#D2E6FF" d="M705.797,352.898c0,194.9-157.998,352.898-352.898,352.898
					C157.998,705.797,0,547.799,0,352.898C0,157.999,157.998,0,352.899,0C547.799,0,705.797,157.999,705.797,352.898"/>
			</g>
		</g>
	</g>
	
		<rect x="177.734" y="113.939" transform="matrix(-0.9779 0.2089 -0.2089 -0.9779 571.3391 411.3834)" fill-rule="evenodd" clip-rule="evenodd" fill="#FFFFFF" width="172.42" height="243.853"/>
	
		<rect x="177.734" y="113.939" transform="matrix(-0.9779 0.2089 -0.2089 -0.9779 571.3391 411.3834)" fill="none" stroke="#0F52BB" stroke-width="2" stroke-miterlimit="10" width="172.42" height="243.853"/>
	<g>
		<path fill="#B2D7F9" d="M284.431,237.915c-0.306,2.995-1.226,5.826-2.731,8.353l19.15,17.423
			c6.075-8.017,9.549-17.937,9.431-28.384L284.431,237.915z"/>
		<path fill="none" stroke="#0F52BB" stroke-width="2" stroke-miterlimit="10" d="M284.431,237.915
			c-0.306,2.995-1.226,5.826-2.731,8.353l19.15,17.423c6.075-8.017,9.549-17.937,9.431-28.384L284.431,237.915z"/>
		<path fill="#B2D7F9" d="M263.795,215.034c8.972-0.05,17.032,5.8,19.789,14.5l25.809-2.619c-0.061-0.284-0.083-0.567-0.146-0.86
			c-5.062-23.631-27.319-39.146-50.864-36.288L263.795,215.034z"/>
		<path fill="none" stroke="#0F52BB" stroke-width="2" stroke-miterlimit="10" d="M263.795,215.034
			c8.972-0.05,17.032,5.8,19.789,14.5l25.809-2.619c-0.061-0.284-0.083-0.567-0.146-0.86c-5.062-23.631-27.319-39.146-50.864-36.288
			L263.795,215.034z"/>
		<path fill="#B2D7F9" d="M246.093,225.373c2.141-3.711,5.373-6.767,9.47-8.576l-5.412-25.266
			c-13.203,4.093-23.382,13.693-28.648,25.666L246.093,225.373z"/>
		<path fill="none" stroke="#0F52BB" stroke-width="2" stroke-miterlimit="10" d="M246.093,225.373
			c2.141-3.711,5.373-6.767,9.47-8.576l-5.412-25.266c-13.203,4.093-23.382,13.693-28.648,25.666L246.093,225.373z"/>
		<path fill="#B2D7F9" d="M276.064,252.514c-2.267,1.657-4.887,2.889-7.803,3.513c-11.185,2.396-22.199-4.74-24.595-15.924
			c-0.489-2.286-0.488-4.538-0.23-6.73l-24.593-8.189c-1.514,6.47-1.733,13.354-0.248,20.289
			c5.363,25.035,29.994,40.97,55.032,35.607c8.357-1.79,15.677-5.747,21.547-11.153L276.064,252.514z"/>
		<path fill="none" stroke="#0F52BB" stroke-width="2" stroke-miterlimit="10" d="M276.064,252.514
			c-2.267,1.657-4.887,2.889-7.803,3.513c-11.185,2.396-22.199-4.74-24.595-15.924c-0.489-2.286-0.488-4.538-0.23-6.73
			l-24.593-8.189c-1.514,6.47-1.733,13.354-0.248,20.289c5.363,25.035,29.994,40.97,55.032,35.607
			c8.357-1.79,15.677-5.747,21.547-11.153L276.064,252.514z"/>
		
			<rect x="175.453" y="144.648" transform="matrix(0.9778 -0.2094 0.2094 0.9778 -26.8222 42.2843)" fill="#0EC0FB" width="21.577" height="6.278"/>
		
			<rect x="178.45" y="158.64" transform="matrix(0.9778 -0.2094 0.2094 0.9778 -29.6862 43.2223)" fill="#0EC0FB" width="21.577" height="6.278"/>
		
			<rect x="181.447" y="172.632" transform="matrix(0.9778 -0.2094 0.2094 0.9778 -32.5501 44.1603)" fill="#0EC0FB" width="21.577" height="6.277"/>
		
			<rect x="184.444" y="186.624" transform="matrix(0.9778 -0.2094 0.2094 0.9778 -35.414 45.0984)" fill="#0EC0FB" width="21.577" height="6.277"/>
		
			<rect x="210.109" y="129.107" transform="matrix(-0.9778 0.2095 -0.2095 -0.9778 542.675 207.8071)" fill="#D2E6FF" width="100.45" height="7.065"/>
		
			<rect x="214.531" y="149.751" transform="matrix(-0.9778 0.2095 -0.2095 -0.9778 555.7446 247.7057)" fill="#D2E6FF" width="100.45" height="7.058"/>
		
			<rect x="218.953" y="170.396" transform="matrix(-0.9778 0.2095 -0.2095 -0.9778 568.8136 287.6068)" fill="#D2E6FF" width="100.45" height="7.054"/>
		
			<rect x="216.741" y="160.075" transform="matrix(-0.9778 0.2095 -0.2095 -0.9778 562.2782 267.6556)" fill="#D2E6FF" width="100.45" height="7.053"/>
		
			<rect x="212.32" y="139.433" transform="matrix(-0.9778 0.2095 -0.2095 -0.9778 549.2098 227.7554)" fill="#D2E6FF" width="100.45" height="7.053"/>
		
			<rect x="213.208" y="300.676" transform="matrix(0.9778 -0.2094 0.2094 0.9778 -63.2711 52.3351)" fill="#CCCCCC" width="4.565" height="48.514"/>
		
			<rect x="283.335" y="268.736" transform="matrix(0.2094 0.9778 -0.9778 0.2094 555.3812 -12.8185)" fill="#CCCCCC" width="4.565" height="136.636"/>
		
			<rect x="232.129" y="323.048" transform="matrix(0.9778 -0.2094 0.2094 0.9778 -64.6365 57.3042)" fill="#15B0BF" width="12.232" height="21.574"/>
		
			<rect x="228.74" y="312.622" transform="matrix(0.9778 -0.2094 0.2094 0.9778 -61.3961 56.2411)" fill="#A6DAE9" width="12.233" height="10.785"/>
		
			<rect x="253.455" y="309.032" transform="matrix(0.9778 -0.2094 0.2094 0.9778 -62.1996 61.5557)" fill="#15B0BF" width="12.234" height="30.915"/>
		
			<rect x="249.569" y="303.261" transform="matrix(0.9778 -0.2094 0.2094 0.9778 -58.4894 60.3424)" fill="#A6DAE9" width="12.233" height="6.183"/>
		
			<rect x="277.354" y="319.304" transform="matrix(0.9778 -0.2094 0.2094 0.9778 -62.2339 66.6284)" fill="#15B0BF" width="12.232" height="15.697"/>
		
			<rect x="274.529" y="308.334" transform="matrix(0.9778 -0.2094 0.2094 0.9778 -59.5331 65.7415)" fill="#A6DAE9" width="12.233" height="11.27"/>
		
			<rect x="300.361" y="321.159" transform="matrix(0.9778 -0.2094 0.2094 0.9778 -61.4097 71.4138)" fill="#15B0BF" width="12.232" height="8.989"/>
		
			<rect x="298.478" y="312.37" transform="matrix(0.9778 -0.2094 0.2094 0.9778 -59.6105 70.8246)" fill="#A6DAE9" width="12.232" height="8.989"/>
		
			<rect x="337.286" y="138.045" transform="matrix(-0.8756 -0.4831 0.4831 -0.8756 667.7507 689.661)" fill-rule="evenodd" clip-rule="evenodd" fill="#FFFFFF" width="170.813" height="241.58"/>
		
			<rect x="337.286" y="138.045" transform="matrix(-0.8756 -0.4831 0.4831 -0.8756 667.7507 689.661)" fill="none" stroke="#0F52BB" stroke-width="2" stroke-miterlimit="10" width="170.813" height="241.58"/>
		<polygon fill-rule="evenodd" clip-rule="evenodd" fill="#D2E6FF" points="364.774,231.534 377.69,238.66 371.192,250.402 
			358.274,243.274 		"/>
		<polygon fill-rule="evenodd" clip-rule="evenodd" fill="#D2E6FF" points="382.492,234.701 395.411,241.827 386.127,258.641 
			373.21,251.514 		"/>
		
			<rect x="395.114" y="232.682" transform="matrix(-0.8756 -0.483 0.483 -0.8756 634.6373 661.4655)" fill-rule="evenodd" clip-rule="evenodd" fill="#D2E6FF" width="14.753" height="32.667"/>
		
			<rect x="408.959" y="245.172" transform="matrix(-0.8755 -0.4832 0.4832 -0.8755 655.5883 687.372)" fill-rule="evenodd" clip-rule="evenodd" fill="#D2E6FF" width="14.752" height="28.135"/>
		
			<rect x="420.5" y="266.592" transform="matrix(-0.8756 -0.4831 0.4831 -0.8756 670.3201 719.9227)" fill-rule="evenodd" clip-rule="evenodd" fill="#9ACAE6" width="14.753" height="14.083"/>
		
			<rect x="436.351" y="269.618" transform="matrix(-0.8756 -0.4831 0.4831 -0.8756 697.3026 738.236)" fill-rule="evenodd" clip-rule="evenodd" fill="#73ACCD" width="14.752" height="19.393"/>
		
			<rect x="453.399" y="269.654" transform="matrix(-0.8755 -0.4832 0.4832 -0.8755 727.1187 754.7594)" fill-rule="evenodd" clip-rule="evenodd" fill="#87BBDA" width="14.751" height="28.14"/>
		<polygon fill-rule="evenodd" clip-rule="evenodd" fill="#9ACAE6" points="485.015,259.797 497.933,266.923 475.37,307.849 
			462.454,300.721 		"/>
		
			<rect x="338.57" y="273.068" transform="matrix(-0.8756 -0.4831 0.4831 -0.8756 562.0952 695.1634)" fill-rule="evenodd" clip-rule="evenodd" fill="#CCCCCC" width="64.002" height="4.253"/>
		
			<rect x="334.973" y="279.584" transform="matrix(-0.8756 -0.4831 0.4831 -0.8756 552.2022 705.6467)" fill-rule="evenodd" clip-rule="evenodd" fill="#CCCCCC" width="64.005" height="4.252"/>
		
			<rect x="331.38" y="286.1" transform="matrix(-0.8756 -0.4831 0.4831 -0.8756 542.3054 716.1353)" fill-rule="evenodd" clip-rule="evenodd" fill="#CCCCCC" width="64.002" height="4.252"/>
		
			<rect x="327.785" y="292.616" transform="matrix(-0.8756 -0.4831 0.4831 -0.8756 532.4189 726.617)" fill-rule="evenodd" clip-rule="evenodd" fill="#CCCCCC" width="64.003" height="4.252"/>
		
			<rect x="324.188" y="299.132" transform="matrix(-0.8756 -0.4831 0.4831 -0.8756 522.5255 737.102)" fill-rule="evenodd" clip-rule="evenodd" fill="#CCCCCC" width="64.003" height="4.253"/>
		
			<rect x="320.593" y="305.647" transform="matrix(-0.8756 -0.4831 0.4831 -0.8756 512.6326 747.5868)" fill-rule="evenodd" clip-rule="evenodd" fill="#CCCCCC" width="64.004" height="4.253"/>
		<polygon fill-rule="evenodd" clip-rule="evenodd" fill="#CCCCCC" points="322.006,296.968 378.048,327.888 375.99,331.613 
			319.954,300.691 		"/>
		
			<rect x="315.394" y="310.95" transform="matrix(-0.8756 -0.4831 0.4831 -0.8756 470.3101 747.2921)" fill-rule="evenodd" clip-rule="evenodd" fill="#CCCCCC" width="32.002" height="4.253"/>
		
			<rect x="404.637" y="309.521" transform="matrix(-0.8756 -0.4831 0.4831 -0.8756 668.4036 795.4464)" fill-rule="evenodd" clip-rule="evenodd" fill="#CCCCCC" width="64.003" height="4.253"/>
		
			<rect x="401.04" y="316.036" transform="matrix(-0.8756 -0.4831 0.4831 -0.8756 658.5038 805.9337)" fill-rule="evenodd" clip-rule="evenodd" fill="#CCCCCC" width="64.005" height="4.253"/>
		
			<rect x="397.447" y="322.552" transform="matrix(-0.8756 -0.4831 0.4831 -0.8756 648.623 816.4153)" fill-rule="evenodd" clip-rule="evenodd" fill="#CCCCCC" width="64.003" height="4.254"/>
		
			<rect x="393.852" y="329.069" transform="matrix(-0.8756 -0.4831 0.4831 -0.8756 638.721 826.9053)" fill-rule="evenodd" clip-rule="evenodd" fill="#CCCCCC" width="64.004" height="4.251"/>
		
			<rect x="390.258" y="335.585" transform="matrix(-0.8756 -0.4831 0.4831 -0.8756 628.824 837.3913)" fill-rule="evenodd" clip-rule="evenodd" fill="#CCCCCC" width="64.002" height="4.251"/>
		
			<rect x="386.661" y="342.101" transform="matrix(-0.8756 -0.4831 0.4831 -0.8756 618.9374 847.8736)" fill-rule="evenodd" clip-rule="evenodd" fill="#CCCCCC" width="64.004" height="4.252"/>
		
			<rect x="383.065" y="348.615" transform="matrix(-0.8756 -0.4831 0.4831 -0.8756 609.0593 858.3511)" fill-rule="evenodd" clip-rule="evenodd" fill="#CCCCCC" width="64.004" height="4.254"/>
		
			<rect x="380.65" y="350.555" transform="matrix(-0.8756 -0.4831 0.4831 -0.8756 585.8151 856.2454)" fill-rule="evenodd" clip-rule="evenodd" fill="#CCCCCC" width="45.051" height="4.252"/>
		<polygon fill="#0EC0FB" points="389.09,194.347 388.219,187.793 448.217,179.836 465.499,214.07 526.486,208.148 527.124,214.725 
			461.637,221.084 444.433,187.006 		"/>
		<polygon fill="#0EC0FB" points="521.941,225.087 517.309,222.534 522.937,212.322 512.724,206.695 515.275,202.064 
			530.12,210.244 		"/>
		<path fill="#D2E6FF" d="M470.166,219.797c1.938-3.517,0.656-7.94-2.858-9.876c-3.516-1.937-7.938-0.658-9.876,2.859
			c-1.938,3.515-0.656,7.938,2.858,9.875C463.806,224.592,468.229,223.312,470.166,219.797"/>
		<circle fill="none" stroke="#0F52BB" stroke-width="2" stroke-miterlimit="10" cx="463.799" cy="216.288" r="7.27"/>
		<path fill="#D2E6FF" d="M452.787,186.982c1.937-3.516,0.658-7.937-2.859-9.876c-3.516-1.937-7.937-0.657-9.875,2.86
			c-1.937,3.516-0.658,7.938,2.858,9.875C446.428,191.779,450.849,190.499,452.787,186.982"/>
		<circle fill="none" stroke="#0F52BB" stroke-width="2" stroke-miterlimit="10" cx="446.42" cy="183.474" r="7.269"/>
		<path fill="#D6D6D6" d="M504.848,300.328l-78.042-42.261c-0.531-0.288-0.731-0.958-0.443-1.49l0.722-1.332
			c0.288-0.532,0.958-0.731,1.49-0.443l78.041,42.261c0.532,0.288,0.731,0.958,0.443,1.49l-0.721,1.332
			C506.05,300.417,505.38,300.616,504.848,300.328"/>
		<path fill="#D6D6D6" d="M501.665,306.206l-78.042-42.261c-0.531-0.288-0.731-0.958-0.443-1.49l0.722-1.332
			c0.288-0.532,0.958-0.731,1.49-0.443l78.041,42.261c0.532,0.288,0.731,0.958,0.443,1.49l-0.722,1.332
			C502.867,306.294,502.197,306.494,501.665,306.206"/>
		<path fill="#D6D6D6" d="M447.003,296.453l-32.033-17.347c-0.343-0.185-0.472-0.618-0.286-0.961l1.093-2.018
			c0.185-0.343,0.618-0.472,0.961-0.286l32.033,17.347c0.344,0.185,0.473,0.618,0.286,0.961l-1.093,2.018
			C447.777,296.51,447.346,296.639,447.003,296.453"/>
		<path fill="#D6D6D6" d="M488.403,330.696l-78.042-42.261c-0.531-0.288-0.731-0.958-0.443-1.49l0.722-1.332
			c0.288-0.532,0.958-0.731,1.49-0.443l78.041,42.261c0.532,0.287,0.731,0.958,0.443,1.49l-0.722,1.332
			C489.605,330.784,488.935,330.983,488.403,330.696"/>
		<path fill="#D6D6D6" d="M485.22,336.573l-78.042-42.261c-0.531-0.288-0.731-0.958-0.443-1.49l0.722-1.332
			c0.288-0.532,0.958-0.731,1.49-0.443l78.041,42.261c0.532,0.287,0.73,0.958,0.442,1.49l-0.721,1.332
			C486.422,336.662,485.752,336.861,485.22,336.573"/>
		<path fill="#D6D6D6" d="M482.037,342.451l-78.042-42.261c-0.531-0.288-0.731-0.958-0.443-1.49l0.722-1.332
			c0.288-0.532,0.958-0.731,1.49-0.443l78.042,42.261c0.531,0.288,0.73,0.958,0.442,1.49l-0.721,1.332
			C483.239,342.54,482.569,342.739,482.037,342.451"/>
		<polygon fill="#FFFFFF" points="481.229,414.645 559.099,460.083 637.853,416.194 		"/>
		<polygon fill="none" stroke="#0F52BB" stroke-width="2" stroke-miterlimit="10" points="481.229,414.645 559.099,460.083 
			637.853,416.194 		"/>
		<polygon fill="#B2D7F9" points="481.229,414.645 559.982,370.756 637.853,416.194 		"/>
		<polygon fill="none" stroke="#0F52BB" stroke-width="2" stroke-miterlimit="10" points="481.229,414.645 559.982,370.756 
			637.853,416.194 		"/>
		<path fill="#D2E6FF" d="M614.772,437.458l-120.202-1.189c-1.207-0.012-2.187-1.01-2.175-2.218l0.003-0.358
			c0.013-1.208,1.012-2.187,2.22-2.175l120.202,1.188c1.207,0.012,2.187,1.011,2.175,2.219l-0.003,0.357
			C616.979,436.49,615.98,437.47,614.772,437.458"/>
		<path fill="#D2E6FF" d="M614.697,445.061l-120.202-1.189c-1.208-0.012-2.187-1.01-2.175-2.218l0.003-0.358
			c0.013-1.209,1.012-2.187,2.22-2.175l120.201,1.188c1.208,0.012,2.188,1.011,2.176,2.219l-0.003,0.358
			C616.904,444.094,615.905,445.072,614.697,445.061"/>
		<path fill="#8D95B1" d="M614.554,459.632l-120.202-1.188c-1.208-0.013-2.188-1.011-2.175-2.219l0.003-0.357
			c0.012-1.208,1.011-2.188,2.219-2.175l120.202,1.188c1.208,0.013,2.187,1.011,2.175,2.219l-0.003,0.358
			C616.761,458.665,615.762,459.645,614.554,459.632"/>
		<polygon fill="#D2E6FF" points="504.522,414.875 481.229,414.646 480.786,459.309 480.346,503.972 503.64,504.201 
			559.099,460.082 		"/>
		<polygon fill="none" stroke="#0F52BB" stroke-width="2" stroke-miterlimit="10" points="504.522,414.875 481.229,414.646 
			480.786,459.309 480.346,503.972 503.64,504.201 559.099,460.082 		"/>
		<polygon fill="#D2E6FF" points="614.559,415.964 637.854,416.193 637.411,460.857 636.969,505.521 613.676,505.289 
			559.099,460.082 		"/>
		<polygon fill="none" stroke="#0F52BB" stroke-width="2" stroke-miterlimit="10" points="614.559,415.964 637.854,416.193 
			637.411,460.857 636.969,505.521 613.676,505.289 559.099,460.082 		"/>
		<polygon fill="#B2D7F9" points="503.64,504.202 613.675,505.29 559.1,460.083 		"/>
		<polygon fill="none" stroke="#0F52BB" stroke-width="2" stroke-miterlimit="10" points="503.64,504.202 613.675,505.29 
			559.1,460.083 		"/>
		<path fill="#D2E6FF" d="M53.98,310.444c-16.374,15.61-17.006,41.511-1.413,57.868c10.939,11.475,37.857,13.267,50.026,20.317
			l12.853,13.483l27.162-25.895l-12.853-13.481c-7.172-10.795-6.975-39.457-17.914-50.931
			C96.247,295.448,70.354,294.834,53.98,310.444"/>
		<path fill="none" stroke="#0F52BB" stroke-width="2" stroke-miterlimit="10" d="M53.98,310.444
			c-16.374,15.61-17.006,41.511-1.413,57.868c10.939,11.475,37.857,13.267,50.026,20.317l12.853,13.483l27.162-25.895
			l-12.853-13.481c-7.172-10.795-6.975-39.457-17.914-50.931C96.247,295.448,70.354,294.834,53.98,310.444z"/>
		<path fill="#0EC0FB" d="M93.472,326.563c-0.071-0.14-0.156-0.27-0.276-0.373c-0.137-0.116-0.282-0.116-0.424-0.01
			c-0.812,0.607-0.545,2.195-0.546,3.091c-0.001,1.081,0.062,2.153,0.174,3.225c-0.744-0.282-1.7-0.077-2.454-0.024
			c-1.016,0.071-2.047,0.155-3.021,0.464c-0.118-0.1-0.312-0.098-0.359,0.093c-0.176,0.714-0.207,1.342-0.162,2.077
			c0.043,0.697,0.035,1.471,0.208,2.159c-0.719-0.128-1.441-0.102-2.189-0.075c-1.062,0.04-2.154,0.022-3.193,0.274
			c-0.14,0.034-0.227,0.155-0.256,0.285c-0.043,0.027-0.085,0.058-0.113,0.102c-0.482,0.75-0.471,1.749-0.519,2.616l-0.078,1.405
			c-0.015,0.275,0.096,1.052,0.034,1.485c-0.693-0.177-1.386-0.109-2.149-0.068c-1.015,0.055-2.173,0.116-3.071,0.621
			c-0.106,0.059-0.143,0.154-0.137,0.248c-0.072,0.008-0.142,0.03-0.197,0.076c-0.753,0.632-0.857,1.63-1.059,2.542
			c-0.227,1.027-0.542,2.115-0.497,3.179c-1.867-0.067-3.626,0.43-5.42,0.991l-0.1-0.07l-0.805,1.143l47.39,33.246l0.798-1.136
			L68.602,351.53c1.68-0.072,3.314-0.263,4.88-0.902c0.198,0.106,0.449,0.083,0.604-0.171c0.597-0.981,0.778-2.164,1.034-3.269
			c0.209-0.901,0.521-1.826,0.197-2.715c0.884,0.303,1.879,0.235,2.799,0.202c0.973-0.036,1.926-0.036,2.76-0.576
			c0.021-0.014,0.035-0.037,0.053-0.056c0.633-0.454,0.537-1.809,0.594-2.494c0.089-1.047,0.358-2.307,0.043-3.349
			c0.937,0.122,1.888,0.076,2.832,0.057c0.999-0.02,1.94-0.037,2.88-0.4c0.138-0.053,0.145-0.198,0.088-0.311
			c0.006-0.016,0.015-0.028,0.018-0.046c0.139-0.684,0.056-1.424,0.02-2.118c-0.032-0.633-0.079-1.197-0.225-1.776
			c0.902,0.149,1.824,0.139,2.737,0.105c0.886-0.034,2.084,0.105,2.821-0.485c0.158,0.012,0.324-0.064,0.356-0.234
			c0.228-1.223,0.374-2.449,0.453-3.69c0.01-0.163,0.031-0.351,0.053-0.548l29.917,47.305l1.18-0.75L93.75,326.385L93.472,326.563z"
			/>
		<path fill="#B2D7F9" d="M144.545,390.969c0.981,1.028-1.655,5.132-5.886,9.166c-4.231,4.033-8.456,6.47-9.436,5.44
			c-0.981-1.027,1.654-5.132,5.885-9.166C139.34,392.376,143.565,389.939,144.545,390.969"/>
		
			<ellipse transform="matrix(0.7238 -0.69 0.69 0.7238 -237.0038 204.4538)" fill="none" stroke="#0F52BB" stroke-width="2" stroke-miterlimit="10" cx="136.885" cy="398.272" rx="10.584" ry="2.573"/>
		<path fill="#B2D7F9" d="M129.697,370.604l-19.247,18.348c-2.955,2.817-3.54,6.988-1.319,9.318l6.507,6.826
			c1.922,2.015,7.898,4.782,11.4,3.693l21.293-20.299c1.336-3.523-0.836-9.917-2.757-11.933l-6.507-6.826
			C136.846,367.401,132.654,367.784,129.697,370.604"/>
		<path fill="none" stroke="#0F52BB" stroke-width="2" stroke-miterlimit="10" d="M129.697,370.604l-19.247,18.348
			c-2.955,2.817-3.54,6.988-1.319,9.318l6.507,6.826c1.922,2.015,7.898,4.782,11.4,3.693l21.293-20.299
			c1.336-3.523-0.836-9.917-2.757-11.933l-6.507-6.826C136.846,367.401,132.654,367.784,129.697,370.604z"/>
		<path fill="#B2D7F9" d="M139.751,372.505l-27.887,26.586c-0.834,0.794-2.166,0.762-2.961-0.071l-3.845-4.033
			c-0.794-0.834-0.763-2.166,0.071-2.961l27.887-26.585c0.834-0.795,2.166-0.763,2.961,0.07l3.845,4.034
			C140.616,370.378,140.585,371.71,139.751,372.505"/>
		<path fill="none" stroke="#0F52BB" stroke-width="2" stroke-miterlimit="10" d="M139.751,372.505l-27.887,26.586
			c-0.834,0.794-2.166,0.762-2.961-0.071l-3.845-4.033c-0.794-0.834-0.763-2.166,0.071-2.961l27.887-26.585
			c0.834-0.795,2.166-0.763,2.961,0.07l3.845,4.034C140.616,370.378,140.585,371.71,139.751,372.505z"/>
		<path fill="#2A2E3E" d="M172.729,391.104L172.729,391.104c0.784,0.658,1.964,0.556,2.621-0.229l4.917-5.86
			c0.658-0.784,0.555-1.963-0.229-2.621c-0.784-0.657-1.964-0.555-2.622,0.229l-4.916,5.86
			C171.842,389.268,171.945,390.447,172.729,391.104"/>
		<path fill="#2A2E3E" d="M184.778,405.465L184.778,405.465c0.512,0.886,1.655,1.193,2.542,0.682l6.624-3.825
			c0.886-0.512,1.193-1.655,0.681-2.541c-0.512-0.888-1.655-1.193-2.542-0.682l-6.624,3.824
			C184.573,403.435,184.267,404.579,184.778,405.465"/>
		<path fill="#2A2E3E" d="M191.19,423.08L191.19,423.08c0.178,1.008,1.148,1.688,2.155,1.509l7.533-1.328
			c1.008-0.178,1.687-1.147,1.51-2.154c-0.178-1.008-1.148-1.688-2.156-1.511l-7.533,1.329
			C191.691,421.103,191.012,422.072,191.19,423.08"/>
		<path fill="#2A2E3E" d="M191.19,441.826L191.19,441.826c-0.178,1.008,0.501,1.978,1.509,2.155l7.533,1.328
			c1.008,0.179,1.978-0.502,2.156-1.509c0.177-1.008-0.502-1.978-1.51-2.156l-7.533-1.328
			C192.338,440.139,191.368,440.818,191.19,441.826"/>
		<path fill="#2A2E3E" d="M184.778,459.441L184.778,459.441c-0.512,0.886-0.205,2.029,0.681,2.542l6.624,3.824
			c0.887,0.512,2.03,0.204,2.542-0.682c0.512-0.886,0.205-2.03-0.681-2.542l-6.624-3.824
			C186.434,458.248,185.291,458.556,184.778,459.441"/>
		<path fill="#2A2E3E" d="M172.729,473.801L172.729,473.801c-0.784,0.658-0.887,1.838-0.229,2.621l4.916,5.86
			c0.658,0.784,1.838,0.887,2.622,0.229c0.784-0.657,0.887-1.837,0.229-2.62l-4.917-5.86
			C174.693,473.246,173.513,473.144,172.729,473.801"/>
		
			<rect x="313.368" y="351.644" transform="matrix(0.1525 -0.9883 0.9883 0.1525 -91.5549 619.5946)" fill="#F2F2F2" width="4.23" height="23.071"/>
		
			<rect x="311.868" y="348.954" transform="matrix(0.1525 -0.9883 0.9883 0.1525 -87.5062 611.0573)" fill="#F2F2F2" width="1.3" height="15.189"/>
		
			<rect x="313.356" y="339.305" transform="matrix(0.1523 -0.9883 0.9883 0.1523 -76.6797 604.3958)" fill="#F2F2F2" width="1.301" height="15.19"/>
		
			<rect x="314.845" y="329.658" transform="matrix(0.152 -0.9884 0.9884 0.152 -65.7865 597.8306)" fill="#F2F2F2" width="1.301" height="15.19"/>
		
			<rect x="316.334" y="320.01" transform="matrix(0.1527 -0.9883 0.9883 0.1527 -55.1834 590.8444)" fill="#F2F2F2" width="1.301" height="15.189"/>
		
			<rect x="317.823" y="310.362" transform="matrix(0.1524 -0.9883 0.9883 0.1524 -44.3039 584.255)" fill="#F2F2F2" width="1.301" height="15.189"/>
		
			<rect x="319.311" y="300.715" transform="matrix(0.1531 -0.9882 0.9882 0.1531 -33.6914 577.3067)" fill="#F2F2F2" width="1.301" height="15.189"/>
		
			<rect x="320.799" y="291.067" transform="matrix(0.1527 -0.9883 0.9883 0.1527 -22.7957 570.7343)" fill="#F2F2F2" width="1.301" height="15.189"/>
		
			<rect x="322.289" y="281.419" transform="matrix(0.152 -0.9884 0.9884 0.152 -11.8113 564.2604)" fill="#F2F2F2" width="1.301" height="15.19"/>
		
			<rect x="323.777" y="271.771" transform="matrix(0.1523 -0.9883 0.9883 0.1523 -1.1006 557.4487)" fill="#F2F2F2" width="1.301" height="15.189"/>
		
			<rect x="325.266" y="262.124" transform="matrix(0.1524 -0.9883 0.9883 0.1524 9.6804 550.724)" fill="#F2F2F2" width="1.301" height="15.189"/>
		
			<rect x="326.754" y="252.475" transform="matrix(0.152 -0.9884 0.9884 0.152 20.5987 544.1487)" fill="#F2F2F2" width="1.301" height="15.19"/>
		<path fill="#FFFFFF" d="M186.027,486.186c-8.031,0-14.565-6.534-14.565-14.565V274.758c0-8.031,6.534-14.565,14.565-14.565
			h322.007c8.03,0,14.564,6.534,14.564,14.565V471.62c0,8.031-6.534,14.565-14.564,14.565H186.027z"/>
		<path fill="none" stroke="#0F52BB" stroke-width="2" stroke-miterlimit="10" d="M186.027,486.186
			c-8.031,0-14.565-6.534-14.565-14.565V274.758c0-8.031,6.534-14.565,14.565-14.565h322.007c8.03,0,14.564,6.534,14.564,14.565
			V471.62c0,8.031-6.534,14.565-14.564,14.565H186.027z"/>
		<path fill="#B2D7F9" d="M508.034,267.047c4.181,0,7.711,3.531,7.711,7.711v196.863c0,4.179-3.53,7.711-7.711,7.711H186.026
			c-4.179,0-7.71-3.532-7.71-7.711V274.758c0-4.18,3.531-7.711,7.71-7.711H508.034 M508.034,253.339H186.026
			c-11.78,0-21.419,9.639-21.419,21.419v196.863c0,11.78,9.639,21.419,21.419,21.419h322.008c11.78,0,21.419-9.639,21.419-21.419
			V274.758C529.453,262.978,519.814,253.339,508.034,253.339"/>
		<path fill="none" stroke="#0F52BB" stroke-width="2" stroke-miterlimit="10" d="M508.034,267.047c4.181,0,7.711,3.531,7.711,7.711
			v196.863c0,4.179-3.53,7.711-7.711,7.711H186.026c-4.179,0-7.71-3.532-7.71-7.711V274.758c0-4.18,3.531-7.711,7.71-7.711H508.034
			 M508.034,253.339H186.026c-11.78,0-21.419,9.639-21.419,21.419v196.863c0,11.78,9.639,21.419,21.419,21.419h322.008
			c11.78,0,21.419-9.639,21.419-21.419V274.758C529.453,262.978,519.814,253.339,508.034,253.339z"/>
		<path fill="#D2E6FF" d="M483.059,453.297H211.003c-2.229,0-4.053-1.824-4.053-4.053V297.136c0-2.23,1.824-4.053,4.053-4.053
			h272.056c2.229,0,4.053,1.823,4.053,4.053v152.108C487.111,451.473,485.287,453.297,483.059,453.297"/>
		<path fill="#B2D7F9" d="M206.95,442.087c1.752-2.999,40.306-57.831,40.306-57.831l23.133,15.421l31.272-17.992l16.278,15.85
			l66.828-67.684l38.125,56.118l16.707-12.779l20.563,22.204l26.949-14.994v68.844c0,0-0.435,4.054-4.053,4.054H211.003
			c0,0-4.053-0.323-4.053-4.054V442.087z"/>
		<path fill="none" stroke="#0F52BB" stroke-width="2" stroke-miterlimit="10" d="M206.95,442.087
			c1.752-2.999,40.306-57.831,40.306-57.831l23.133,15.421l31.272-17.992l16.278,15.85l66.828-67.684l38.125,56.118l16.707-12.779
			l20.563,22.204l26.949-14.994v68.844c0,0-0.435,4.054-4.053,4.054H211.003c0,0-4.053-0.323-4.053-4.054V442.087z"/>
		<path fill="#B2D7F9" d="M206.95,446.656c1.895-0.571,46.161-29.13,46.447-28.273c0.285,0.857,18.277,15.117,19.42,14.127
			c1.142-0.99,33.413-31.262,33.699-30.12c0.285,1.143,15.422,16.851,15.422,16.851l39.41-25.132c0,0,37.984,14.851,38.555,16.277
			c0.571,1.429,5.14,9.996,5.426,9.996c0.285,0,30.843-26.273,30.843-26.273l17.135,27.701l33.805-27.701v55.136
			c0,0-0.577,4.053-4.053,4.053H211.003c0,0-4.053-0.037-4.053-4.053V446.656z"/>
		<path fill="none" stroke="#0F52BB" stroke-width="2" stroke-miterlimit="10" d="M206.95,446.656
			c1.895-0.571,46.161-29.13,46.447-28.273c0.285,0.857,18.277,15.117,19.42,14.127c1.142-0.99,33.413-31.262,33.699-30.12
			c0.285,1.143,15.422,16.851,15.422,16.851l39.41-25.132c0,0,37.984,14.851,38.555,16.277c0.571,1.429,5.14,9.996,5.426,9.996
			c0.285,0,30.843-26.273,30.843-26.273l17.135,27.701l33.805-27.701v55.136c0,0-0.577,4.053-4.053,4.053H211.003
			c0,0-4.053-0.037-4.053-4.053V446.656z"/>
		<path fill="#B2D7F9" d="M571.581,514.626v-7.021c0-8.011-6.128-14.564-13.616-14.564H136.098c-7.49,0-13.618,6.554-13.618,14.564
			v7.021H571.581z"/>
		<path fill="none" stroke="#0F52BB" stroke-width="2" stroke-miterlimit="10" d="M571.581,514.626v-7.021
			c0-8.011-6.128-14.564-13.616-14.564H136.098c-7.49,0-13.618,6.554-13.618,14.564v7.021H571.581z"/>
		<rect x="122.479" y="507.604" fill="#B2D7F9" width="449.102" height="7.021"/>
		
			<rect x="122.479" y="507.604" fill="none" stroke="#0F52BB" stroke-width="2" stroke-miterlimit="10" width="449.102" height="7.021"/>
		<rect x="221.289" y="500.888" fill="#D2E6FF" width="251.484" height="6.717"/>
		
			<rect x="221.289" y="500.888" fill="none" stroke="#0F52BB" stroke-width="2" stroke-miterlimit="10" width="251.484" height="6.717"/>
		<path fill="#0F52BB" d="M468.33,584.462c-3.517,2.634-6.942,2.847-10.172,5.835c-0.5,0.463-2.394,1.555-2.218,2.298
			c0.573,2.435,5.331,6.791,7.171,6.663c3.175-0.221,5.953-1.244,9.056-1.679c2.468-0.346,7.242-3.177,9.513-4.192
			c1.16-0.519,1.225-3.389,1.061-5.067c-0.059-0.596-1.384-2.137-1.502-2.419c-1.889,0.604-2.828,1.697-5.285,1.087
			c-0.49-0.369-1.08-0.506-1.785-0.401c-2.338-2.603-3.857-3.666-4.546-3.179C469.174,583.724,468.772,584.131,468.33,584.462"/>
		<path fill="#0F52BB" d="M494.587,565.687c-3.517,2.634-6.942,2.848-10.172,5.835c-0.5,0.463-1.768,2.923-1.592,3.666
			c0.574,2.437,4.479,2.418,6.319,2.291c3.177-0.221,5.953-1.244,9.057-1.679c2.468-0.346,7.467-0.172,9.737-1.188
			c1.16-0.519,1.225-3.389,1.061-5.066c-0.059-0.596-1.384-2.137-1.502-2.419c-1.889,0.604-2.828,1.697-5.285,1.087
			c-0.49-0.37-1.08-0.506-1.785-0.402c-2.338-2.602-3.858-3.666-4.546-3.179C495.431,564.949,495.029,565.355,494.587,565.687"/>
		<path fill="#C3DCFC" d="M461.514,477.583l-1.44,6.242c0,0-13.276,10.232-18.074,13.751c0,0-8.798,1.761-8.638,6.719
			c0.16,4.959,7.838,5.759,13.116-1.279c0,0,15.676-6.537,19.034-10.147c3.359-3.608,8.157-11.904,8.157-11.904L461.514,477.583z"/>
		<path fill="none" stroke="#0F52BB" stroke-width="2" stroke-miterlimit="10" d="M461.514,477.583l-1.44,6.242
			c0,0-13.276,10.232-18.074,13.751c0,0-8.798,1.761-8.638,6.719c0.16,4.959,7.838,5.759,13.116-1.279
			c0,0,15.676-6.537,19.034-10.147c3.359-3.608,8.157-11.904,8.157-11.904L461.514,477.583z"/>
		<path fill="#0EC0FB" d="M473.83,483.82c0,0-3.879,0.28-8.318-1.359c-4.323-1.597-5.758-3.119-5.758-3.119
			s5.598-23.354,15.676-19.834C485.507,463.026,473.83,483.82,473.83,483.82"/>
		<path fill="#0F52BB" d="M474.037,520.938c0,0,8.957,26.659,11.73,30.711c2.772,4.053,10.168,16.783,10.168,16.783
			s9.026,3.905,11.373-0.787c0,0-2.191-15.446-7.625-22.075c0,0-4.532-27.404-7.731-29.323
			C488.753,514.327,474.037,520.938,474.037,520.938"/>
		<path fill="#0F52BB" d="M499.684,519.659c0,0,0.8,6.611-2.187,12.583c-2.985,5.972-10.236,21.541-10.236,21.541l-6.398,34.124
			c0,0-6.825,1.706-12.797-1.707c0,0,2.559-26.872,3.626-32.204c1.066-5.332,7.836-31.991,7.836-31.991L499.684,519.659z"/>
		<path fill="#0EC0FB" d="M472.971,458.449c0,0,15.995-5.117,28.473,6.719v56.837c0,0-16.742,6.185-30.393,0l-2.985-55.664
			C468.065,466.341,469.132,460.796,472.971,458.449"/>
		<path fill="#C3DCFC" d="M487.786,455.147l4.817,4.797c0,0-3.123,10.252-10.744,7.444c-7.62-2.809-1.693-9.596-1.693-9.596v-5.021
			L487.786,455.147z"/>
		<path fill="none" stroke="#0F52BB" stroke-width="2" stroke-miterlimit="10" d="M487.786,455.147l4.817,4.797
			c0,0-3.123,10.252-10.744,7.444c-7.62-2.809-1.693-9.596-1.693-9.596v-5.021L487.786,455.147z"/>
		<path fill="#C3DCFC" d="M495.869,447.97c-0.318-0.366-0.628-0.547-0.902-0.547c-0.095,0-0.189,0.012-0.283,0.037
			c-0.441,0.155-0.879,0.569-1.317,1.27c-0.501,0.845-0.738,1.591-0.714,2.244c-0.061-0.082-0.465-0.166-1.189-0.271
			c-0.558-0.082-0.831-0.285-0.831-0.595c0-0.796,0.215-1.828,0.654-3.109c0.31-0.904,0.51-1.665,0.604-2.271
			c-0.877,0.797-2.22,1.283-4.014,1.462c-0.13,0.012-0.283,0.022-0.438,0.034c-1.687,0.035-3.622-0.569-5.808-1.817
			c-0.296-0.176-0.569-0.426-0.807-0.746c-0.32-0.605-0.583-1.058-0.771-1.343c-0.466-0.689-1.047-1.033-1.759-1.033
			c-0.225,0-0.428,0.107-0.63,0.331c-0.034,0.037-0.019-1.466-0.341-1.133c-0.998-1.13-1.868,0.065-2.188,0.196
			c-0.298,0.131-0.57,0.404-0.809,0.795c-0.071,0.12-0.153,0.297-0.248,0.523c-0.036,0.558-0.071,1.068-0.095,1.529
			c-0.036,0.015-0.061,0.062-0.061,0.146c0,1.568,0.071,3.051,0.204,4.453c0.366,3.967,1.258,7.269,2.669,9.893
			c0.583,1.083,1.2,1.983,1.877,2.696c0.606,0.652,1.26,1.163,1.949,1.52c0.653,0.32,1.354,0.485,2.103,0.485h0.059
			c1.271,0,2.447-0.248,3.537-0.737c0.274-0.114,0.524-0.26,0.775-0.412c1.924-1.164,3.573-3.173,4.951-6.021
			c0.345-0.678,0.651-1.39,0.937-2.139c0.18,0.272,0.439,0.428,0.762,0.464h0.129c0.536,0,1.105-0.604,1.7-1.817
			c0.497-1.032,0.784-1.888,0.842-2.589v-0.203C496.416,448.801,496.238,448.375,495.869,447.97"/>
		<path fill="none" stroke="#0F52BB" stroke-width="2" stroke-miterlimit="10" d="M495.869,447.97
			c-0.318-0.366-0.628-0.547-0.902-0.547c-0.095,0-0.189,0.012-0.283,0.037c-0.441,0.155-0.879,0.569-1.317,1.27
			c-0.501,0.845-0.738,1.591-0.714,2.244c-0.061-0.082-0.465-0.166-1.189-0.271c-0.558-0.082-0.831-0.285-0.831-0.595
			c0-0.796,0.215-1.828,0.654-3.109c0.31-0.904,0.51-1.665,0.604-2.271c-0.877,0.797-2.22,1.283-4.014,1.462
			c-0.13,0.012-0.283,0.022-0.438,0.034c-1.687,0.035-3.622-0.569-5.808-1.817c-0.296-0.176-0.569-0.426-0.807-0.746
			c-0.32-0.605-0.583-1.058-0.771-1.343c-0.466-0.689-1.047-1.033-1.759-1.033c-0.225,0-0.428,0.107-0.63,0.331
			c-0.034,0.037-0.019-1.466-0.341-1.133c-0.998-1.13-1.868,0.065-2.188,0.196c-0.298,0.131-0.57,0.404-0.809,0.795
			c-0.071,0.12-0.153,0.297-0.248,0.523c-0.036,0.558-0.071,1.068-0.095,1.529c-0.036,0.015-0.061,0.062-0.061,0.146
			c0,1.568,0.071,3.051,0.204,4.453c0.366,3.967,1.258,7.269,2.669,9.893c0.583,1.083,1.2,1.983,1.877,2.696
			c0.606,0.652,1.26,1.163,1.949,1.52c0.653,0.32,1.354,0.485,2.103,0.485h0.059c1.271,0,2.447-0.248,3.537-0.737
			c0.274-0.114,0.524-0.26,0.775-0.412c1.924-1.164,3.573-3.173,4.951-6.021c0.345-0.678,0.651-1.39,0.937-2.139
			c0.18,0.272,0.439,0.428,0.762,0.464h0.129c0.536,0,1.105-0.604,1.7-1.817c0.497-1.032,0.784-1.888,0.842-2.589v-0.203
			C496.416,448.801,496.238,448.375,495.869,447.97z"/>
		<path fill="#0F52BB" d="M486.777,430c1.607,0.036,3.221,0.174,4.767,0.442c1.999,0.349,3.837,1.588,4.79,3.396
			c1.103,2.091,1.687,4.109,1.721,6.07c0.035,1.945-0.034,3.372-0.236,4.275c-0.487,1.813-0.928,3.606-1.319,5.354l-0.082,0.132
			v-0.202v-0.202c0-0.464-0.179-0.89-0.548-1.295c-0.318-0.366-0.628-0.546-0.902-0.546c-0.095,0-0.189,0.012-0.284,0.036
			c-0.439,0.154-0.878,0.569-1.316,1.27c-0.501,0.844-0.737,1.592-0.714,2.245c-0.061-0.083-0.465-0.167-1.189-0.275
			c-0.557-0.08-0.83-0.283-0.83-0.591c0-0.797,0.213-1.829,0.654-3.111c0.308-0.903,0.509-1.665,0.604-2.269
			c-0.076,0.486-1.726,0.99-2.099,1.102c-0.918,0.277-1.888,0.423-2.847,0.376c-2.522-0.119-4.604-1.587-6.815-2.626
			c-0.915-0.43-1.863-0.833-2.646-1.488c-0.593-0.497-1.434-1.815-2.349-1.412c-0.297,0.13-0.57,0.402-0.808,0.794
			c-0.071,0.12-0.153,0.297-0.248,0.522c-0.037,0.559-0.072,1.069-0.097,1.531c-0.034,0.013-0.059,0.061-0.059,0.145
			c0,1.567,0.071,3.051,0.204,4.453c-0.003-0.033-0.994-0.794-1.089-0.905c-0.497-0.583-0.842-1.239-1.178-1.924
			c-1.232-2.513-0.921-4.284-0.189-6.924c0.603-2.175,2.217-3.753,4.019-5.004c2.332-1.62,4.767-3.131,7.68-3.302
			C484.486,430,485.63,429.975,486.777,430"/>
		<path fill="#0EC0FB" d="M499.843,489.48c0,0-3.879,0.28-8.317-1.359c-4.323-1.597-5.758-3.119-5.758-3.119
			s5.598-23.354,15.676-19.834C511.521,468.687,499.843,489.48,499.843,489.48"/>
		<path fill="#0F52BB" d="M510.079,617.834c-3.449,2.583-6.808,2.791-9.976,5.723c-0.489,0.453-2.346,1.523-2.175,2.253
			c0.564,2.388,5.008,3.713,6.813,3.588c3.114-0.218,5.837-1.221,8.88-1.646c2.42-0.339,7.322-0.169,9.549-1.165
			c1.138-0.509,1.2-3.323,1.039-4.969c-0.057-0.584-1.357-2.096-1.473-2.372c-1.852,0.592-2.772,1.664-5.183,1.066
			c-0.48-0.363-1.059-0.496-1.75-0.395c-2.293-2.552-3.782-3.595-4.458-3.118C510.906,617.11,510.513,617.509,510.079,617.834"/>
		<path fill="#0F52BB" d="M535.826,599.423c-3.449,2.583-6.808,2.791-9.975,5.723c-0.49,0.454-1.732,2.866-1.561,3.595
			c0.563,2.388,4.394,2.371,6.197,2.246c3.114-0.217,5.837-1.22,8.88-1.646c2.42-0.339,7.322-0.169,9.549-1.165
			c1.139-0.509,1.2-3.322,1.039-4.969c-0.057-0.584-1.356-2.096-1.472-2.372c-1.853,0.593-2.773,1.664-5.184,1.066
			c-0.48-0.363-1.059-0.496-1.75-0.395c-2.293-2.551-3.782-3.595-4.457-3.117C536.653,598.7,536.26,599.099,535.826,599.423"/>
		<path fill="#C3DCFC" d="M503.395,513.028l-1.412,6.121c0,0-13.018,10.035-17.724,13.485c0,0-8.627,1.726-8.471,6.588
			c0.157,4.862,7.687,5.646,12.862-1.255c0,0,15.371-6.409,18.665-9.949s8-11.675,8-11.675L503.395,513.028z"/>
		<path fill="none" stroke="#0F52BB" stroke-width="2" stroke-miterlimit="10" d="M503.395,513.028l-1.412,6.121
			c0,0-13.018,10.035-17.724,13.485c0,0-8.627,1.726-8.471,6.588c0.157,4.862,7.687,5.646,12.862-1.255
			c0,0,15.371-6.409,18.665-9.949s8-11.675,8-11.675L503.395,513.028z"/>
		<path fill="#0EC0FB" d="M515.472,519.146c0,0-3.804,0.274-8.155-1.333c-4.24-1.565-5.647-3.059-5.647-3.059
			s5.49-22.9,15.372-19.449C526.922,498.755,515.472,519.146,515.472,519.146"/>
		<path fill="#0F52BB" d="M515.676,555.544c0,0,8.783,26.142,11.502,30.114c2.719,3.975,9.971,16.457,9.971,16.457
			s8.852,3.83,11.152-0.771c0,0-2.148-15.146-7.478-21.647c0,0-4.444-26.873-7.581-28.755S515.676,555.544,515.676,555.544"/>
		<path fill="#0F52BB" d="M540.824,554.288c0,0,0.783,6.483-2.145,12.34c-2.928,5.855-10.038,21.122-10.038,21.122l-6.273,33.462
			c0,0-6.692,1.673-12.548-1.674c0,0,2.509-26.351,3.555-31.579s7.685-31.37,7.685-31.37L540.824,554.288z"/>
		<path fill="#0EC0FB" d="M514.63,494.267c0,0,15.685-5.019,27.919,6.588v55.734c0,0-16.417,6.065-29.801,0l-2.929-54.584
			C509.819,502.005,510.865,496.566,514.63,494.267"/>
		<path fill="#C3DCFC" d="M529.158,491.028l4.723,4.704c0,0-3.062,10.054-10.535,7.301c-7.473-2.754-1.661-9.41-1.661-9.41v-4.924
			L529.158,491.028z"/>
		<path fill="none" stroke="#0F52BB" stroke-width="2" stroke-miterlimit="10" d="M529.158,491.028l4.723,4.704
			c0,0-3.062,10.054-10.535,7.301c-7.473-2.754-1.661-9.41-1.661-9.41v-4.924L529.158,491.028z"/>
		<path fill="#0EC0FB" d="M540.98,524.696c0,0-3.804,0.274-8.156-1.333c-4.239-1.566-5.646-3.06-5.646-3.06
			s5.49-22.899,15.372-19.448C552.431,504.305,540.98,524.696,540.98,524.696"/>
		<path fill="#C3DCFC" d="M538.215,483.385c-0.027-0.053-0.053-0.107-0.092-0.174c-0.228-0.279-0.439-0.466-0.64-0.56
			c-0.12-0.092-0.254-0.132-0.375-0.132c-0.105-0.017-0.213-0.017-0.331,0.011c-0.386,0.081-0.8,0.348-1.215,0.788
			c-0.119,0.16-0.239,0.333-0.389,0.519c-0.639,0.893-1.09,2.187-1.371,3.893c-0.625,0.359-1.092,0.574-1.398,0.653
			c-0.038-0.601-0.121-1.374-0.213-2.333c0.04-0.52,0.011-1.214-0.094-2.065c-0.039-0.252-0.08-0.506-0.093-0.746
			c-0.04-0.562,0-1.108,0.093-1.653l1.146-2.72c0.079-1.104-0.24-2.146-0.961-3.13c-0.625-0.867-1.304-1.374-2.039-1.494
			c-0.064-0.012-0.146-0.027-0.211-0.027l-0.786,0.027c-0.935,0.627-2.319,1.413-4.16,2.359c-1.812,0.933-3.69,1.373-5.648,1.333
			c-1.908-0.039-3.2-0.386-3.896-1.053c-0.65-0.693-1.053-1.212-1.185-1.574c-0.361,1.255-0.521,2.147-0.505,2.692
			c0.039,0.813,0.011,1.933-0.068,3.345l0.107,1.787c0.172,4.039,0.598,6.984,1.264,8.85c0.681,1.867,1.389,3.237,2.095,4.103
			c0.012,0.017,0.04,0.057,0.055,0.095l0.014,0.041c0.305,0.373,0.597,0.705,0.904,1.015c0.228,0.226,0.467,0.412,0.721,0.584
			c0.119,0.08,0.238,0.162,0.356,0.227c0.188,0.108,0.39,0.214,0.602,0.308c0.227,0.08,0.452,0.159,0.707,0.238
			c0.479,0.23,1.079,0.309,1.813,0.255c1.187,0.027,2.331-0.146,3.412-0.52c1.612-0.6,3.118-1.653,4.529-3.187
			c0.923-1.013,1.814-2.225,2.655-3.639c0.438-0.761,0.853-1.533,1.252-2.346c0.119,0.215,0.28,0.373,0.479,0.479
			c0.039,0.015,0.066,0.027,0.08,0.027c0.094,0.014,0.187,0.04,0.294,0.066c0.05,0.015,0.092,0.025,0.132,0.025
			c0.599,0.041,1.321-0.599,2.134-1.917c0.61-1.053,0.983-1.96,1.133-2.745c0.038-0.054,0.053-0.094,0.053-0.136v-0.211
			C538.614,484.277,538.496,483.823,538.215,483.385"/>
		<path fill="none" stroke="#0F52BB" stroke-width="2" stroke-miterlimit="10" d="M538.215,483.385
			c-0.027-0.053-0.053-0.107-0.092-0.174c-0.228-0.279-0.439-0.466-0.64-0.56c-0.12-0.092-0.254-0.132-0.375-0.132
			c-0.105-0.017-0.213-0.017-0.331,0.011c-0.386,0.081-0.8,0.348-1.215,0.788c-0.119,0.16-0.239,0.333-0.389,0.519
			c-0.639,0.893-1.09,2.187-1.371,3.893c-0.625,0.359-1.092,0.574-1.398,0.653c-0.038-0.601-0.121-1.374-0.213-2.333
			c0.04-0.52,0.011-1.214-0.094-2.065c-0.039-0.252-0.08-0.506-0.093-0.746c-0.04-0.562,0-1.108,0.093-1.653l1.146-2.72
			c0.079-1.104-0.24-2.146-0.961-3.13c-0.625-0.867-1.304-1.374-2.039-1.494c-0.064-0.012-0.146-0.027-0.211-0.027l-0.786,0.027
			c-0.935,0.627-2.319,1.413-4.16,2.359c-1.812,0.933-3.69,1.373-5.648,1.333c-1.908-0.039-3.2-0.386-3.896-1.053
			c-0.65-0.693-1.053-1.212-1.185-1.574c-0.361,1.255-0.521,2.147-0.505,2.692c0.039,0.813,0.011,1.933-0.068,3.345l0.107,1.787
			c0.172,4.039,0.598,6.984,1.264,8.85c0.681,1.867,1.389,3.237,2.095,4.103c0.012,0.017,0.04,0.057,0.055,0.095l0.014,0.041
			c0.305,0.373,0.597,0.705,0.904,1.015c0.228,0.226,0.467,0.412,0.721,0.584c0.119,0.08,0.238,0.162,0.356,0.227
			c0.188,0.108,0.39,0.214,0.602,0.308c0.227,0.08,0.452,0.159,0.707,0.238c0.479,0.23,1.079,0.309,1.813,0.255
			c1.187,0.027,2.331-0.146,3.412-0.52c1.612-0.6,3.118-1.653,4.529-3.187c0.923-1.013,1.814-2.225,2.655-3.639
			c0.438-0.761,0.853-1.533,1.252-2.346c0.119,0.215,0.28,0.373,0.479,0.479c0.039,0.015,0.066,0.027,0.08,0.027
			c0.094,0.014,0.187,0.04,0.294,0.066c0.05,0.015,0.092,0.025,0.132,0.025c0.599,0.041,1.321-0.599,2.134-1.917
			c0.61-1.053,0.983-1.96,1.133-2.745c0.038-0.054,0.053-0.094,0.053-0.136v-0.211C538.614,484.277,538.496,483.823,538.215,483.385
			z"/>
		<path fill="#0F52BB" d="M532.283,475.735c-0.625-0.867-1.304-1.374-2.039-1.494c-0.065-0.013-0.146-0.027-0.21-0.027l-0.787,0.027
			c-0.934,0.627-2.32,1.413-4.16,2.359c-1.812,0.933-3.689,1.372-5.648,1.332c-1.908-0.039-3.2-0.385-3.895-1.052
			c-0.651-0.693-1.054-1.212-1.186-1.574c0.226-0.678,0.504-1.465,0.813-2.356c0.268-0.441,0.535-0.936,0.787-1.454
			c1.798-3.187,5.598-4.783,11.421-4.798c5.454,0.386,8.77,3.6,9.943,9.648c0.399,1.721,0.453,3.813,0.161,6.305
			c-0.12-0.093-0.254-0.133-0.375-0.133c-0.105-0.016-0.213-0.016-0.331,0.012c-0.387,0.081-0.801,0.347-1.215,0.788
			c-0.119,0.159-0.239,0.333-0.389,0.519c-0.639,0.892-1.09,2.187-1.371,3.892c-0.627,0.36-1.091,0.572-1.398,0.654
			c-0.037-0.601-0.121-1.374-0.212-2.333c0.04-0.52,0.011-1.213-0.096-2.065c-0.039-0.252-0.08-0.507-0.092-0.746
			c-0.039-0.562,0-1.107,0.092-1.653l1.147-2.72C533.323,477.761,533.005,476.719,532.283,475.735"/>
		<g opacity="0.46">
			<g>
				<defs>
					<rect id="SVGID_3_" x="331.457" y="367.867" width="89.356" height="89.355"/>
				</defs>
				<clipPath id="SVGID_4_">
					<use xlink:href="#SVGID_3_"  overflow="visible"/>
				</clipPath>
				<path clip-path="url(#SVGID_4_)" fill="#EAEAEA" d="M408.802,382.066c16.833,18.042,15.853,46.313-2.188,63.146
					c-18.042,16.833-46.313,15.854-63.146-2.188c-16.833-18.042-15.854-46.313,2.188-63.146
					C363.697,363.045,391.969,364.024,408.802,382.066"/>
			</g>
		</g>
		<g opacity="0.44">
			<g>
				<defs>
					<rect id="SVGID_5_" x="345.413" y="381.823" width="61.444" height="61.443"/>
				</defs>
				<clipPath id="SVGID_6_">
					<use xlink:href="#SVGID_5_"  overflow="visible"/>
				</clipPath>
				<path clip-path="url(#SVGID_6_)" fill="#EAEAEA" d="M398.598,391.587c11.575,12.405,10.901,31.846-1.505,43.421
					s-31.846,10.902-43.421-1.504c-11.575-12.406-10.901-31.848,1.505-43.422C367.583,378.507,387.023,379.181,398.598,391.587"/>
			</g>
		</g>
		<path fill="#F2F2F2" d="M399.656,404.526c4.291,4.6,4.041,11.806-0.558,16.097c-4.598,4.29-11.805,4.041-16.095-0.559
			c-4.291-4.599-4.041-11.805,0.557-16.096C388.159,399.679,395.365,399.928,399.656,404.526"/>
		<path fill="#0F52BB" d="M417.9,373.578c-21.521-23.065-57.666-24.318-80.732-2.797c-23.066,21.52-24.318,57.665-2.797,80.73
			c20.193,21.644,53.261,24.079,76.319,6.519l26.897,28.828l-1.019,0.95c-2.094,1.953-2.209,5.266-0.255,7.359l63.374,67.924
			c1.953,2.093,5.266,2.208,7.359,0.255l10.467-9.766c2.095-1.954,2.208-5.266,0.255-7.36l-63.373-67.923
			c-1.954-2.094-5.266-2.209-7.359-0.255l-1.02,0.95l-26.896-28.827C438.234,428.379,438.093,395.222,417.9,373.578
			 M343.468,443.024c-16.833-18.042-15.853-46.313,2.188-63.146c18.042-16.833,46.313-15.853,63.146,2.188
			c16.833,18.042,15.854,46.313-2.188,63.146C388.573,462.045,360.301,461.066,343.468,443.024"/>
		<path fill="#C3DCFC" d="M487.526,483.242l-1.439,6.243c0,0-13.276,10.232-18.074,13.751c0,0-8.798,1.76-8.638,6.72
			c0.16,4.958,7.838,5.758,13.115-1.28c0,0,15.677-6.537,19.035-10.146c3.359-3.609,8.158-11.905,8.158-11.905L487.526,483.242z"/>
		<path fill="none" stroke="#0F52BB" stroke-width="2" stroke-miterlimit="10" d="M487.526,483.242l-1.439,6.243
			c0,0-13.276,10.232-18.074,13.751c0,0-8.798,1.76-8.638,6.72c0.16,4.958,7.838,5.758,13.115-1.28c0,0,15.677-6.537,19.035-10.146
			c3.359-3.609,8.158-11.905,8.158-11.905L487.526,483.242z"/>
		<path fill="#C3DCFC" d="M528.903,518.579l-1.412,6.122c0,0-13.019,10.033-17.725,13.484c0,0-8.627,1.726-8.47,6.587
			c0.157,4.863,7.687,5.647,12.862-1.255c0,0,15.371-6.409,18.665-9.949s8-11.675,8-11.675L528.903,518.579z"/>
		<path fill="none" stroke="#0F52BB" stroke-width="2" stroke-miterlimit="10" d="M528.903,518.579l-1.412,6.122
			c0,0-13.019,10.033-17.725,13.484c0,0-8.627,1.726-8.47,6.587c0.157,4.863,7.687,5.647,12.862-1.255
			c0,0,15.371-6.409,18.665-9.949s8-11.675,8-11.675L528.903,518.579z"/>
		<polyline fill="none" stroke="#0F52BB" stroke-width="2" stroke-miterlimit="10" points="858.333,205.208 887.727,195.714 
			741.993,349.369 652.818,260.194 531.988,363.179 		"/>
		
			<line fill="none" stroke="#0F52BB" stroke-width="2" stroke-miterlimit="10" x1="890.175" y1="196.474" x2="883.279" y2="222.489"/>
		<path fill="#D2E6FF" d="M748.093,168.638c27.892,0,50.503,22.611,50.503,50.503c0,27.892-22.611,50.503-50.503,50.503
			s-50.503-22.611-50.503-50.503C697.59,191.25,720.201,168.638,748.093,168.638"/>
		<circle fill="none" stroke="#0F52BB" stroke-width="2" stroke-miterlimit="10" cx="748.093" cy="219.141" r="50.503"/>
		<path fill="#D2E6FF" d="M748.093,260.778c-22.959,0-41.637-18.678-41.637-41.637s18.678-41.637,41.637-41.637
			s41.637,18.678,41.637,41.637S771.052,260.778,748.093,260.778 M748.093,178.216c-22.565,0-40.925,18.359-40.925,40.925
			s18.359,40.925,40.925,40.925c22.566,0,40.925-18.359,40.925-40.925S770.659,178.216,748.093,178.216"/>
		<path fill="none" stroke="#0F52BB" stroke-width="2" stroke-miterlimit="10" d="M748.093,260.778
			c-22.959,0-41.637-18.678-41.637-41.637s18.678-41.637,41.637-41.637s41.637,18.678,41.637,41.637
			S771.052,260.778,748.093,260.778z M748.093,178.216c-22.565,0-40.925,18.359-40.925,40.925s18.359,40.925,40.925,40.925
			c22.566,0,40.925-18.359,40.925-40.925S770.659,178.216,748.093,178.216z"/>
		<path fill="#D2E6FF" d="M748.093,214.53c2.547,0,4.611,2.064,4.611,4.611s-2.064,4.611-4.611,4.611s-4.611-2.064-4.611-4.611
			S745.546,214.53,748.093,214.53"/>
		<circle fill="none" stroke="#0F52BB" stroke-width="2" stroke-miterlimit="10" cx="748.093" cy="219.141" r="4.611"/>
		<path fill="#D2E6FF" d="M765.624,243.117c-0.216,0-0.43-0.098-0.569-0.283l-17.53-23.265c-0.204-0.269-0.188-0.646,0.035-0.898
			l20.166-22.844c0.258-0.295,0.709-0.323,1.003-0.062c0.295,0.26,0.323,0.709,0.063,1.003l-19.781,22.41l17.182,22.801
			c0.236,0.314,0.173,0.76-0.14,0.997C765.924,243.07,765.772,243.117,765.624,243.117"/>
		<path fill="none" stroke="#0F52BB" stroke-width="2" stroke-miterlimit="10" d="M765.624,243.117c-0.216,0-0.43-0.098-0.569-0.283
			l-17.53-23.265c-0.204-0.269-0.188-0.646,0.035-0.898l20.166-22.844c0.258-0.295,0.709-0.323,1.003-0.062
			c0.295,0.26,0.323,0.709,0.063,1.003l-19.781,22.41l17.182,22.801c0.236,0.314,0.173,0.76-0.14,0.997
			C765.924,243.07,765.772,243.117,765.624,243.117z"/>
	</g>
</g>
</svg>
