<?xml version="1.0" encoding="utf-8"?>
<!-- Generator: Adobe Illustrator 16.0.0, SVG Export Plug-In . SVG Version: 6.00 Build 0)  -->
<!DOCTYPE svg PUBLIC "-//W3C//DTD SVG 1.1//EN" "http://www.w3.org/Graphics/SVG/1.1/DTD/svg11.dtd">
<svg version="1.1" id="Слой_1" xmlns="http://www.w3.org/2000/svg" xmlns:xlink="http://www.w3.org/1999/xlink" x="0px" y="0px"
	 width="57.292px" height="107.064px" viewBox="0 0 57.292 107.064" enable-background="new 0 0 57.292 107.064"
	 xml:space="preserve">
<g>
	<path fill="#0F52BB" d="M33.315,23.274c2.581,4.026,1.416,9.386-2.605,11.964c-4.034,2.586-9.39,1.406-11.971-2.621
		c-2.581-4.026-1.409-9.37,2.626-11.957C25.387,18.084,30.735,19.249,33.315,23.274"/>
	<path fill="#D2E6FF" d="M9.232,54.39L9.232,54.39c1.502-1.205,3.372-0.597,4.884,0.6l9.387,7.437l0.587-2.356l0.43-5.807
		l-0.815-12.564L22.928,29.03c-0.122-1.986,1.354-3.763,3.302-3.839c1.947-0.076,3.644,1.389,3.769,3.373l1.371,21.722l0.942-0.003
		l-0.535-5.055c-0.21-1.976,1.358-3.71,3.302-3.839c1.944-0.127,3.56,1.398,3.77,3.372l0.58,5.495l1.067-0.004l-0.437-3.539
		c-0.242-1.97,1.355-3.762,3.301-3.838c1.947-0.077,3.527,1.401,3.77,3.374l0.491,3.977l1.277-0.004l-0.167-2.036
		c-0.161-1.981,1.355-3.761,3.301-3.838c1.948-0.077,3.608,1.392,3.771,3.373l0.344,4.218l0.126,0.715l0.021,22.83
		c0.004,3.096-1.117,5.763-2.398,7.332c-0.367,0.448-0.745,0.81-1.116,1.063l0.905,17.152c-7.523,3.661-15.984,5.449-24.641,4.952
		L29.6,83.865c-5.65-2.437-16.733-19.033-20.951-24.496c-1.184-1.534-0.922-3.775,0.58-4.98L9.232,54.39z"/>
	<path fill="none" stroke="#0F52BB" stroke-width="2" stroke-miterlimit="10" d="M9.232,54.39L9.232,54.39
		c1.502-1.205,3.372-0.597,4.884,0.6l9.387,7.437l0.587-2.356l0.43-5.807l-0.815-12.564L22.928,29.03
		c-0.122-1.986,1.354-3.763,3.302-3.839c1.947-0.076,3.644,1.389,3.769,3.373l1.371,21.722l0.942-0.003l-0.535-5.055
		c-0.21-1.976,1.358-3.71,3.302-3.839c1.944-0.127,3.56,1.398,3.77,3.372l0.58,5.495l1.067-0.004l-0.437-3.539
		c-0.242-1.97,1.355-3.762,3.301-3.838c1.947-0.077,3.527,1.401,3.77,3.374l0.491,3.977l1.277-0.004l-0.167-2.036
		c-0.161-1.981,1.355-3.761,3.301-3.838c1.948-0.077,3.608,1.392,3.771,3.373l0.344,4.218l0.126,0.715l0.021,22.83
		c0.004,3.096-1.117,5.763-2.398,7.332c-0.367,0.448-0.745,0.81-1.116,1.063l0.905,17.152c-7.523,3.661-15.984,5.449-24.641,4.952
		L29.6,83.865c-5.65-2.437-16.733-19.033-20.951-24.496c-1.184-1.534-0.922-3.775,0.58-4.98L9.232,54.39z"/>
	<path fill="#0EC0FB" d="M27.315,96.78l28.463-1.456l0.514,5.37c-8.643,4.771-18.692,6.998-28.937,5.994L27.315,96.78z"/>
	<polygon fill="#D2E6FF" points="27.624,91.57 54.347,90.068 54.581,95.345 27.858,96.848 27.623,91.57 	"/>
	<polygon fill="none" stroke="#0F52BB" stroke-width="2" stroke-miterlimit="10" points="27.624,91.57 54.347,90.068 54.581,95.345 
		27.858,96.848 27.623,91.57 	"/>
	<path fill="#0F52BB" d="M9.803,11.116c-0.418-0.407-0.425-1.077-0.017-1.494c0.407-0.418,1.077-0.426,1.495-0.019l6.01,5.881
		c0.418,0.408,0.426,1.077,0.019,1.495c-0.408,0.418-1.077,0.426-1.495,0.018L9.803,11.116z M12.746,25.278
		c0.578-0.069,1.104,0.342,1.174,0.92c0.071,0.578-0.342,1.104-0.919,1.174L1.182,28.806c-0.578,0.07-1.103-0.342-1.174-0.919
		c-0.07-0.578,0.342-1.104,0.919-1.174L12.746,25.278z M51.165,18.67c0.577-0.071,1.104,0.342,1.174,0.919
		c0.07,0.578-0.341,1.104-0.919,1.174l-11.819,1.434c-0.578,0.071-1.104-0.342-1.174-0.918c-0.07-0.578,0.342-1.104,0.919-1.174
		L51.165,18.67L51.165,18.67z M36.86,7.575c0.298-0.5,0.946-0.663,1.446-0.365c0.501,0.298,0.664,0.947,0.365,1.447l-4.317,7.217
		c-0.298,0.5-0.947,0.663-1.447,0.365c-0.501-0.298-0.664-0.948-0.364-1.448L36.86,7.575z M22.768,1.099
		C22.743,0.518,23.196,0.025,23.779,0c0.582-0.024,1.075,0.429,1.099,1.012l0.487,12.112c0.025,0.582-0.428,1.074-1.011,1.097
		c-0.582,0.025-1.074-0.428-1.097-1.011L22.768,1.099L22.768,1.099z"/>
</g>
</svg>
